<mxfile host="65bd71144e">
    <diagram id="HIP3nbAZw_EuaXWnEj3U" name="Page-1">
        <mxGraphModel dx="1086" dy="658" grid="1" gridSize="10" guides="1" tooltips="1" connect="1" arrows="1" fold="1" page="1" pageScale="1" pageWidth="850" pageHeight="1100" math="0" shadow="0">
            <root>
                <mxCell id="0"/>
                <mxCell id="1" parent="0"/>
                <mxCell id="7" value="http://ics2o.mths.ca" style="swimlane;whiteSpace=wrap;html=1;" parent="1" vertex="1">
                    <mxGeometry x="40" y="30" width="770" height="480" as="geometry"/>
                </mxCell>
                <mxCell id="8" value="" style="shape=image;verticalLabelPosition=bottom;labelBackgroundColor=default;verticalAlign=top;aspect=fixed;imageAspect=0;image=data:image/png,iVBORw0KGgoAAAANSUhEUgAAAvAAAAFCCAIAAAAYLn7OAAAABGdBTUEAALGPC/xhBQAACklpQ0NQc1JHQiBJRUM2MTk2Ni0yLjEAAEiJnVN3WJP3Fj7f92UPVkLY8LGXbIEAIiOsCMgQWaIQkgBhhBASQMWFiApWFBURnEhVxILVCkidiOKgKLhnQYqIWotVXDjuH9yntX167+3t+9f7vOec5/zOec8PgBESJpHmomoAOVKFPDrYH49PSMTJvYACFUjgBCAQ5svCZwXFAADwA3l4fnSwP/wBr28AAgBw1S4kEsfh/4O6UCZXACCRAOAiEucLAZBSAMguVMgUAMgYALBTs2QKAJQAAGx5fEIiAKoNAOz0ST4FANipk9wXANiiHKkIAI0BAJkoRyQCQLsAYFWBUiwCwMIAoKxAIi4EwK4BgFm2MkcCgL0FAHaOWJAPQGAAgJlCLMwAIDgCAEMeE80DIEwDoDDSv+CpX3CFuEgBAMDLlc2XS9IzFLiV0Bp38vDg4iHiwmyxQmEXKRBmCeQinJebIxNI5wNMzgwAABr50cH+OD+Q5+bk4eZm52zv9MWi/mvwbyI+IfHf/ryMAgQAEE7P79pf5eXWA3DHAbB1v2upWwDaVgBo3/ldM9sJoFoK0Hr5i3k4/EAenqFQyDwdHAoLC+0lYqG9MOOLPv8z4W/gi372/EAe/tt68ABxmkCZrcCjg/1xYW52rlKO58sEQjFu9+cj/seFf/2OKdHiNLFcLBWK8ViJuFAiTcd5uVKRRCHJleIS6X8y8R+W/QmTdw0ArIZPwE62B7XLbMB+7gECiw5Y0nYAQH7zLYwaC5EAEGc0Mnn3AACTv/mPQCsBAM2XpOMAALzoGFyolBdMxggAAESggSqwQQcMwRSswA6cwR28wBcCYQZEQAwkwDwQQgbkgBwKoRiWQRlUwDrYBLWwAxqgEZrhELTBMTgN5+ASXIHrcBcGYBiewhi8hgkEQcgIE2EhOogRYo7YIs4IF5mOBCJhSDSSgKQg6YgUUSLFyHKkAqlCapFdSCPyLXIUOY1cQPqQ28ggMor8irxHMZSBslED1AJ1QLmoHxqKxqBz0XQ0D12AlqJr0Rq0Hj2AtqKn0UvodXQAfYqOY4DRMQ5mjNlhXIyHRWCJWBomxxZj5Vg1Vo81Yx1YN3YVG8CeYe8IJAKLgBPsCF6EEMJsgpCQR1hMWEOoJewjtBK6CFcJg4Qxwicik6hPtCV6EvnEeGI6sZBYRqwm7iEeIZ4lXicOE1+TSCQOyZLkTgohJZAySQtJa0jbSC2kU6Q+0hBpnEwm65Btyd7kCLKArCCXkbeQD5BPkvvJw+S3FDrFiOJMCaIkUqSUEko1ZT/lBKWfMkKZoKpRzame1AiqiDqfWkltoHZQL1OHqRM0dZolzZsWQ8ukLaPV0JppZ2n3aC/pdLoJ3YMeRZfQl9Jr6Afp5+mD9HcMDYYNg8dIYigZaxl7GacYtxkvmUymBdOXmchUMNcyG5lnmA+Yb1VYKvYqfBWRyhKVOpVWlX6V56pUVXNVP9V5qgtUq1UPq15WfaZGVbNQ46kJ1Bar1akdVbupNq7OUndSj1DPUV+jvl/9gvpjDbKGhUaghkijVGO3xhmNIRbGMmXxWELWclYD6yxrmE1iW7L57Ex2Bfsbdi97TFNDc6pmrGaRZp3mcc0BDsax4PA52ZxKziHODc57LQMtPy2x1mqtZq1+rTfaetq+2mLtcu0W7eva73VwnUCdLJ31Om0693UJuja6UbqFutt1z+o+02PreekJ9cr1Dund0Uf1bfSj9Rfq79bv0R83MDQINpAZbDE4Y/DMkGPoa5hpuNHwhOGoEctoupHEaKPRSaMnuCbuh2fjNXgXPmasbxxirDTeZdxrPGFiaTLbpMSkxeS+Kc2Ua5pmutG003TMzMgs3KzYrMnsjjnVnGueYb7ZvNv8jYWlRZzFSos2i8eW2pZ8ywWWTZb3rJhWPlZ5VvVW16xJ1lzrLOtt1ldsUBtXmwybOpvLtqitm63Edptt3xTiFI8p0in1U27aMez87ArsmuwG7Tn2YfYl9m32zx3MHBId1jt0O3xydHXMdmxwvOuk4TTDqcSpw+lXZxtnoXOd8zUXpkuQyxKXdpcXU22niqdun3rLleUa7rrStdP1o5u7m9yt2W3U3cw9xX2r+00umxvJXcM970H08PdY4nHM452nm6fC85DnL152Xlle+70eT7OcJp7WMG3I28Rb4L3Le2A6Pj1l+s7pAz7GPgKfep+Hvqa+It89viN+1n6Zfgf8nvs7+sv9j/i/4XnyFvFOBWABwQHlAb2BGoGzA2sDHwSZBKUHNQWNBbsGLww+FUIMCQ1ZH3KTb8AX8hv5YzPcZyya0RXKCJ0VWhv6MMwmTB7WEY6GzwjfEH5vpvlM6cy2CIjgR2yIuB9pGZkX+X0UKSoyqi7qUbRTdHF09yzWrORZ+2e9jvGPqYy5O9tqtnJ2Z6xqbFJsY+ybuIC4qriBeIf4RfGXEnQTJAntieTE2MQ9ieNzAudsmjOc5JpUlnRjruXcorkX5unOy553PFk1WZB8OIWYEpeyP+WDIEJQLxhP5aduTR0T8oSbhU9FvqKNolGxt7hKPJLmnVaV9jjdO31D+miGT0Z1xjMJT1IreZEZkrkj801WRNberM/ZcdktOZSclJyjUg1plrQr1zC3KLdPZisrkw3keeZtyhuTh8r35CP5c/PbFWyFTNGjtFKuUA4WTC+oK3hbGFt4uEi9SFrUM99m/ur5IwuCFny9kLBQuLCz2Lh4WfHgIr9FuxYji1MXdy4xXVK6ZHhp8NJ9y2jLspb9UOJYUlXyannc8o5Sg9KlpUMrglc0lamUycturvRauWMVYZVkVe9ql9VbVn8qF5VfrHCsqK74sEa45uJXTl/VfPV5bdra3kq3yu3rSOuk626s91m/r0q9akHV0IbwDa0b8Y3lG19tSt50oXpq9Y7NtM3KzQM1YTXtW8y2rNvyoTaj9nqdf13LVv2tq7e+2Sba1r/dd3vzDoMdFTve75TsvLUreFdrvUV99W7S7oLdjxpiG7q/5n7duEd3T8Wej3ulewf2Re/ranRvbNyvv7+yCW1SNo0eSDpw5ZuAb9qb7Zp3tXBaKg7CQeXBJ9+mfHvjUOihzsPcw83fmX+39QjrSHkr0jq/dawto22gPaG97+iMo50dXh1Hvrf/fu8x42N1xzWPV56gnSg98fnkgpPjp2Snnp1OPz3Umdx590z8mWtdUV29Z0PPnj8XdO5Mt1/3yfPe549d8Lxw9CL3Ytslt0utPa49R35w/eFIr1tv62X3y+1XPK509E3rO9Hv03/6asDVc9f41y5dn3m978bsG7duJt0cuCW69fh29u0XdwruTNxdeo94r/y+2v3qB/oP6n+0/rFlwG3g+GDAYM/DWQ/vDgmHnv6U/9OH4dJHzEfVI0YjjY+dHx8bDRq98mTOk+GnsqcTz8p+Vv9563Or59/94vtLz1j82PAL+YvPv655qfNy76uprzrHI8cfvM55PfGm/K3O233vuO+638e9H5ko/ED+UPPR+mPHp9BP9z7nfP78L/eE8/stRzjPAAAAIGNIUk0AAHomAACAhAAA+gAAAIDoAAB1MAAA6mAAADqYAAAXcJy6UTwAAAAJcEhZcwAACxMAAAsTAQCanBgAAU1HSURBVHic7J11nF3F2cd/I8eurW88RAjuXigerHgFlwABSpDQAsVKCVKktNDikBYt7gSX4FA0aJy4rl4/OjPvH0POu6UECg3Z7OZ8P224e/fsvefeM2fmmef5Pc9DlFJISEhISEhISOjJ0O4+gYSEhISEhISE/5XEoElISEhISEjo8SQGTUJCQkJCQkKPJzFoEnohUkoApVJJ/1gul+MnE1YH/vNaa7FgGIZCiO44o4RVka7jJJGT9gJIchUTeiVKKUKIlFIpxRjr7tNJWBlIKSn9t02aUkoIwRgjhMRPCiGCIHAcZ6WfYMIqgZ4cAEgpCSHx468NnoQeR3L9EnonnucBIIToHXkYhmEYdvdJJfy46JWp6yaNEBJbM9q6BUApTayZBACEJFv6XkVyORN6IVEUcc7jH/UevRvPJ2Fl8p2XOwxDwzDibXrC6oxeAZOR0DtIPDQJvRAdGhdCTJ8+fdGiRYk1szpTLBbj8RAEAQDOebKRS9DEIaeEXkBi0CT0QrR7Rkr5wAMPPPLIIwCSeNPqQBRF6LLbFkL4vr9w4cLrr7++WCwyxnT8MRZXdee5JnQrSqkkS6D3kRg0Cb0QLe4Lw/Cll156+OGHXdc1DKO7TyrhR0ebMrGShjFGKa1Wq+edd97VV19dKBS0dEabNYkCdHUmiqIwDBObppeR3NIJvZAoiqIoamtr+/LLL995553PP/8cy5axhF5MHFuUUuq1yjAM0zRt277sssv+/Oc/+76vD4u9NQmrIUopbdDEYyBx2PQOEoMmoRfCOaeUvvbaa8OGDdtll13GjRuHLoucFlJgmR4wmch6DbHAUyc3xbVnhgwZctlllz322GNnnHGGvty+73e1fuIhkVg5qwOEEMdxttpqq7POOmvOnDk6eZtSGk8F8Vyh0aFMdIlc63IAK/m0E76TxKBJ6J1QSqdNmzZs2LAzzjhj5syZEyZMMAxDRxlM00SXKSkJPfR6qtXqPvvsc+eddz733HOnn346AMuytLcGAKU0HhKJfnx1IIoiIcTGG2988803b7vttmeddVZra6tSilKqlPI8Tz8GEASBEEJr8pRSOnIthEiGyqpJMpUn9EK0pTJ9+vQBAwbstttua6+99h133PE1EWi860ro9SilWltbN99887///e8TJkw45ZRTwjC0LEtXJ9KjRQihH8SGTkJvRZsjZ5999lprrbXDDjssWrRol112ufTSSxctWiSltG2bUqqtFsMwtOGibSD959ruSTw0qyCJQZPQO1mwYMGcOXP69+8P4KSTTvrkk0/eeecdLAufA9BOZj1tdfO5JvzISCkZY57n7bTTTnfdddczzzxz4YUXSiljpx0ASqkOKGhvTUIvxjCMMAw32WST8ePHf/HFF6eddtpVV131xhtv7Lrrrn/961/b29t1wT0du6xUKgA453HupA5oJh6aVZDEoEnohTDGPv/888WLF2+00UZhGO64447aSeN5nk7ZxTKdTWLNrA7otce27WKxuN122z3//PNPPPHEGWecEUWRzoQKgoAQYts2khprqwfaeN1ggw1OOOGEo48+erPNNnvhhRcuvvji++67b9ttt/3nP/+pi4wHQZBOp13XDYIgnivCMIyiKJk6VkESgyahFyKlnDNnTk1Nzdprr20YBud89OjRzz///GeffYYuuTAAKKXJAtbr8X1fiyFSqRSldOjQoY899tirr746ZsyYKVOm6A13FEWEkK7rVkIvJpVK+b6fTqdPPfXU7bff/pBDDimXy7/61a9efPHFM88887rrrttxxx0ff/xxbew6jmMYhud5YRhSSvWUkswbqyCJQZPQC6lUKtOmTdtss83q6+sBUEr32GOPNdZY49577w2CIDZokqVrNYFSms1mfd/nnOu2GCNGjLjnnnteeumla665ZtasWbrfkz4gWah6PVr+YlkWgEqlcsstt5TL5bPOOgtANps99thjn3rqqV/96lfnn3/+Hnvs8corr/i+rxOjdHZ317S4hFWKxKBJ6IUYhvH555+vtdZanPMwDDnnjuP88pe/fOyxx1paWuLDkoTt1QRKaalUSqVSWKaVIYSst956L7300ptvvnn++ed3dHQwxizLopQmavFeT9cqROl0GsCtt976zDPP/OMf//A8jzGWyWTGjh374osvbr755mPGjDnqqKNeeeUVAKZpau1d11ZxCasOiUGT0LNRSsWOlvjB4sWLlyxZsvXWWwdBYBiGVkgcfPDBjY2N999/vz4mDMM4UbN7Tj1hZaGUMk1T2696NdIXfeDAgc8888yUKVOOPfZYbenqHF1t08S7cN25PTF/exNxmSJ9xYcNG3bdddddfPHFkydPxrIr3tzcfMUVV7z22msDBgw46aSTfvWrX73//vvagafnDf0K8QSijSQ9eGKDKR421Wp1JX/G1ZDEoEno2ehMhLiimnYIf/bZZ1EU9enTR2es6H/79Olz+OGHP/LII62trZ7n6UA4EhHoaoxpmn379p0wYcLkyZNHjx4thJBS6hXO8zzTNHUSnFYTJ/WKeg066bprP69cLrfTTjudcMIJhx9+eEtLS11dXbVa1Yn9AwcOvPrqq6+55hrG2EknnXTGGWd88cUX+KaulvrHr80q8VtoB2HCj0pyiyb0YOLJIg4T6OyDyZMnDxw4cM011wTgum58/CGHHNLe3v7AAw/Ytt11O5WweiKEsG27X79+Tz/99Jw5cw488MA4md+27Wq1qrU1YRjmcjm9a0/oBcR5112Nklwud/rpp6+77rqjR4+uVqupVEoIoW2aKIp23333+++//5prrpk9e/bBBx98wQUXzJ8/X/+h53l6kunq7o1fNk6rTFgJJAZNQm8gnjL0PPXpp5+uu+66eksUV48A0K9fv6OPPvrWW2/1fV9KGYZhUkxiNcfzPK0Rvv/++2fPnn3ggQcuXbpUayziLbVhGNpP072nmrACiQNGuuOBLquYTqfHjx8/ffr0K664Qv9Kx6w554wxKeX222//6KOP/uEPf3jnnXd23XXXG2+88csvv3QcRzc9jV0+XTsnaMeedgh126ddbUgMmoSeTRxs0j8yxoIgmDZt2qabbqqnFV2tXE8rUsrRo0eXy+X77rvPMAxdI6sbTz6he9FCYAC+76+33nqPPPLI1KlTTzjhhNbWVq2xKJVK+shkNepl6Bs/llVRSvXepra29rbbbrvzzjuff/75rpODTtgGIIQ46KCDHn300UsvvfShhx467rjjbrjhhkKhEL+O1sroMjaxzaTLHXXHB129SL7ihB5MrJ7pOllMmzbNdd3NN988no/imYUQ0qdPn0MPPfSGG27wPE8vZokoeHVGB5L0SBg2bNjLL788d+7c448/fuHChYSQTCYDQMeekkzdXkZX+Z12rkgpLcvaZJNNfv/7348ZM2bSpEmmaUZR5Pu+3hfpSowAcrncQQcd9OKLLx5wwAF/+tOfRo4c+cILL+g+ULrWkTZiEjt4JZMYNAk9G23KxBMTgNdeey2VSg0ePFjrIQDoKuZYFs8+4ogjisXiQw89pI9PnDSrLVEUOY6jbRpdhKa5ufnxxx//9NNPzzvvPG3T6NiT1gh39/kmrBjCMNQdu7re+7qsIoBUKnXIIYfsuuuup59+ej6f55xblhVFkS4AEc8z5XJZSnn66ad/+umnv/zlL0899dS99tpr4sSJAGLHXuyn0VGtlf05Vz8SgyahN6CnDAC+73/88ceNjY25XC7+rd5U6ULmlNIRI0ZstdVWd955Z7VaTbZQqzOcc63/BaDzum3bHjBgwOuvv/7GG2+cfPLJOvakj0n0472Grj284jRsALZta5smm81eddVVhJAxY8ZgmbGrnTTaRgGQyWS0jZtKpX73u9+9+uqrG2644ZgxY0aOHDlnzpyuNo3eWSVyvZXAVxc1ApaV8gAUlBKBCkOEEGHkuYD86lcBEAJVABJSQkhIGUKU4FcQRJACEBJBqASgAOEHiCT8FbZmlAMvkgIKEPoUpA9VBYoAAomSpyK3Aj8MS4C/EMUV9b4rjqpCqBQggVBBhgoVd1U8z56BbsiCZVpgAJzzhQsX7rbbbnoHpu0VvRTp3rlSSs75qaeeOmnSpJdffrnrtkm/WtxWN37xhF5MvMzE/jydy/3iiy9OmzZt1KhRsZ4mjjrFlk1SWaTnoq2TGG3W6PYXAHzfr6mpuf766ydPnjx+/HgdkcSyS981lhQEgU476Nev31VXXfXYY49tsskmBx988O9+97v3339fj6h4/pH/jn6FxHOzAllmpf77s4QQgzAOAmVww4GkgYBHUDJRMVBIAT4UpT6jlTAw3CjrsrRLeWdJeIJIxaCoAgBqGuCI6ApbGGzTZpQBgFKQklLKQBhQBSomLWTtdu5wWEaYRcVqjnLf9XorGw8pwCASEnAN4lGDqLQTJPUJfiB6KhFC6JCTUmrevHkLFy7cYost4ryD+DBd1V5PMWuvvfYuu+xy8803xwkOYRh2PTiOUiWshnDOBw8ePHHixDlz5owePToIAl1c2DRN13U553FsIt6IJ/QCOOdaTGNZlpRygw02OOuss6644oo333xTP68nB+3o1RsenfuNZeUhNt1004suumjChAmFQmGvvfY64YQTZs+e3fWv9EzVNR0h8dysQGjX/0gFkK+sG/3fgLuCuaCuQUs2ymnVmUYxh7xn0SiEJWFYdqdjzXVk3uGirsbkoIwwTkUYQkgQ4oP4hrWiTvf/VxglQQkUGECh+vpIh7ABQBEFcMCEWPWKU9s+wlCVGXwKR8EOgRCgq96J9hD0pBBvcQghM2bMIIRsvPHGXQ/oqrDRVktNTc3o0aM/+OCDKVOm6CnJMAzLsvRhegeWVDdfbYmiyDCMpqamCRMmzJgxY88999Srl+/7juOEYahjDdVqNZvNJqGoXkMYhtqUAVCpVAAcfvjhhxxyyGmnnTZ//vzYeaMP1sn8+mBCiNbZAEin0wMHDrz33nvvueeehQsXHnHEEZdeeum0adO6Ti96c9XVT5OwQljmoVEAoBT+P99DQlW8CI7+H2QWMi2ELWELpO3ANQzfoxENwroq1qiaNjAbAFeCyIhIygmRkkjwr3t//jeUFFEEpcCXOYoVaCiWWL7XOs+qlhuDsgm3bMp2DnvVS0oILJjUzYi8E+SByDPQZqIlWTf/N/TMoieLDz/8cMCAAel0Op47AEgpv7bqKKV23XXXrbba6qabbkKXpNz4yGTbtDrDGKtWq5TSYcOGPfroo21tbYceemh7e7tetOJoRSqVinftCb0AfSn1vZ/NZrVafNy4cY2NjaecckoQBFpMY5qmNnD1RkibNXGDJ50+qZTaY489Hn300d/97ncvv/zyoYcees455xSLX6kLurqEE1YgXxk0SgKAJNDaF0QCkXQLJWWtYeTW5vXrqqa1/IZhov+Glaa1Sg3D/IYNfWd9l6/bMWIXXHEN3n1d5hfUwwVEJaqU4UkKEIoITGCF+WcARighBJSAQCklwxBCMdC+E9/0djzGy2y9ZM3dlp51SUblOYlQXuXScU3fLZx39dLm7eeP2E3c86gtgsZINi8ud/d59Wzi9IRqtfr2228PHTqUEBJbMF2zsrXXVz/mnJ9wwglPPPHEp59+Sin1fV8I0bVcRDLdrLYQQnTybaVSWWeddSZMmDBz5sxRo0a1t7drHbGuO4JkkPQuCCFaFxW349b26w033DB37tw//vGPsZimK0qpIAhiP7HWmGuvsGVZBx544FNPPTV69OjXX3997733vu2229rb2ymlul6fLku9Ej9iL+f/PTQEkFBSC4ClglSi7Pr1UaXW70y77bzcEZYYVVkYmYqQmZbKwII/rMKKk3Hd9aXdDnaOOKX+iUfgyxznFBD46hUhQVagR1Z99Y8CJBTlBkCgaOnTl0iw2FatfaqtC595AqW2EB6MVW6gKEuY1OsTFJrcdoZyhXkFLtFofPdfJnwTsctXGyL5fH7RokWbbrppnJIQV6nR+Zb6YM/ztL937733HjBgwL333ksptSxLzyw6Op4Up1md0UsUgHQ6HYbhgAEDnnvuuenTpx999NGLFi1ijNXU1CilCoVC3OMwoRcQ1+HUzZ50Vy8AI0aMuOmmmx544IH77ruPMaY7wQEQQuiNk23bjLEoioIgiG1cQojuipBOp8eMGfP8888fccQR//znP/fYY4977rkHgOd57e3tiTN4BbIsbZsAgIDOv1EgBIRRqer90Fq6FPmOdMaKHJaHLBOEluMUBzpL6tL5nBIpZG1hhq1vv9Ey9pzwtffhyhSIgAQFIMAQrFCPrFJfWV1fzSMSKl8oXfMAm78IQ7KBEw1cVMGLHzHAy65yrmBS5Z7nF83AMwSonY4cDq5oYtD8QOLSWHremTNnDqV0iy220L/tWkRYH9m1er1utf3rX//6xRdfnDJlCpYl7mKZIjip7Lna0rU7dxRFnPN+/fo9//zz06dPP+ecc2bPng2AEFJTU+P7fiIe7zXoEJK2Y7TSBYDukbLddtudfPLJF1544SeffKKnEd04pWv/Jh2N6rojsm07nnOy2eyJJ55477337rXXXueee+7ee+/96aefNjQ0dG02l/A/8m9T9v9vNQiBAgct0KFf1q9HDj0x9fxLg+ZOa1r8OV/8CS9MQ+fksONT1jKpcfbruPA3xYFDqGs1l6zXbn8ISzo4IBAqIhWRgsJfoWf81SCDklBQQLU6Z8aX/fMgfWvDXTeYytzmqlG59YU6z+Sr4MbJtBl1TGUGoLBslxsMIJVk4fzhxNGlarU6depUpVS/fv20cC/OVIrDT1qFpztT6h3VqFGjlFIPPfSQjpfrfXm8/equD5XQveg1Kc7i1hv3gQMHvvzyy2+++eYZZ5zR1taGf9eQJvQCtOM2rh0MQAihU5MAnHrqqTvvvPNxxx3X0dER+3J0n0t0KUeuy0PocjU6ARNdNlf9+vW75JJLXnnllU033fTwww8/4IADJk2a1H2fuLexbCmlkYB0CLMiMEl8TmFEPPQkXTIMebZ0PvrXS54uECVYNYSCjxyzU6GE2RwdN3rwo0+31vdDVBz5xP2Y9G4njIwLUlGeZYRAbQmfoYAAKKIEACHCoosqAARQkEAB0ocPJVCO4GH5E4QCEFGEAYhZMcAgaitDr7mhZHbQdk7HnJobsjHsfPrNZ/HOGxEBIqAKeBAijBBFUQAgAOZCwAUKKAM+UEWliCJEESGCskQIBIgECkAZPoRbAiABFyhLhFIhAnwoF5FfQlQCUAVKgEIBbgmdUChEVagIEhUAEeACKIJ60ojskNgBU0w6KrQVVC5yI0ACXgQhA78ChJAhKhWla//4qPqIAJQ9CBfIVwEfSkoJCa17iqQoB6tpN2C9qUqlUh988MEmm2ySSqV0qLurXEY/0CXJdU0RXffT87wxY8aMHz++WCz6vh/Hv/Hv7RQSVjdi5W8sq+Kc9+/f/7333gvD8LjjjpszZ068pMUWc5wCo3NkEnocsbZXX/S4upW+shdffLFt22eeeaa+4rG9EgSBnlLw733lulY5it9CKbXmmmteeumljz766JAhQ/bff/8TTzzxgw8+QJetl455oYud9J+ZDQn/yXdM2X5IytUwjDhojiojh1TazaR9AzaqKHQiX8yaiwAMrV33xIOKRLg2gimzXXihY4B7ecBSqFjVDcARBtKBASgpwRmNlALAUQX1QPNUeEbQxpBRsJe/LisRQaESehxACp7w1ZSZ7R99yphlbLMhGzZ8jUP2B+xOI8o/9RIHFIfigAnCKMGyKvhQawRMOeiogQB4BCbTHDkwp9WAaQGhDEx0MFhAJrKgHAeIFEKmYFMQSgR1I1EmqHLLAc9WQhAf2TBPfAonG9TBB+PwiR/QsKzrs1F4WG5oiUCBQBKmGI2sdBFGmZIo7RApZehFFnwLVaFAbUROtWoygIFQSiEldDoPZba5OnYDjjU07e3tn332WU1NTTab/faDu4aistns1ltv3dDQcOONN8aJl9qRk4QSEr6GVs/cd999Sqn99ttv8uTJALRlrIeWZVk6gpBOp5Oye70G3eMJQJ8+fe64446PP/741ltv1UaMUipO4zdN879x62rPDYANN9zwkksuefXVV9va2k499dTTTjttxowZ8TF6/tGFqnU2gxak/4ifs+fzHQZNX0LqlEhTBQhQBKDQDU0MN0VJ2siGUCbgp61K/7SRzTgRN6e19wkIA/UtFiEihZa02UYWlGCq0ID0pRsEINSSVAAQqEBKODWhb+fzTZUlCCvwl2uHCqUAqgzTBHwDBov4K5+yzkLgwt19S1HTQPbe1XfqCxzlpyfylpk+UDACn0KBUQFGOAiBUmAgYWt9eXHNglbmIdRfgwgaZUtgdLax2Ya3sNkr26UIPuCBK+mzqGISn+v6PIpSLsAZAi4CWLLksBaQslfKqhCi4tvgUJaXN918WpVKHCVTLVl+BjvnpExQsUilEqR85DyZCUMFbxFbRNMVHrXUIp9jASjgw3JSFIoBUAAlX6Wo/Ud1xNUBHVTSa8mcOXPmzZu3wQYbfMvxceMndCn3uc466+y777633357a2urdhRrR85K+QQJPYkwDA3DyGQyN9988/Dhw4855pgpU6aYpul5nk6UA+A4jjZlUqmkYGYvgVIqpdTXd8011zznnHPGjx//7LPPAhBCGIahcySxrNfp8ohLd8bKm2w2q9u8X3HFFdOnT999993PPPPMBQsWcM7jkuVamoMkCP5f8B2zdoEXyma5kvGUU/UMFOB7zC8yUYQDmTHDbENo9l0Ky0e6b3+0V2cMTM9dN1c0zRDEctmguR2Tdx+db9hp0gFH+NM+ixCahFi2A1CAu6GAW06DpkBbf3Pt3C1+9tHGuxVem+jXLLcJHDeJlILCCiu+j5AUWquPvuhEwrYa5O7bBCTnDRpmbb9tH5Kra2vHxBc4woiIKiQAIgihVEJyAo9h8tU3z1tz+ylbbJ//6HUKpKbMwL0PK2tXc+C+vGmvyoY/x5XXyYWfldNeNQNBQgaYgADKkVIms0BrotAqSPnPJ1p2/pnX0Nd0Ghq2+iXueNqVzPJd8+W3p2xxcPsWhwQ3PZR13awgQ4LlelCqlSATIRsgk1ae1bHw3adx3e1Lm7bvn9kfZKvisL3l5dd1fvBKZHcWc2gloKEgsUKIMygloii2bFYftNRX3+cLFy7MZrPbbrvtd/6VPj62hAzDOOqooyzLmjBhgt4P6bkmaX2Q8DX00uW6bv/+/W+77bZBgwYdeeSRkydPtm27Wq3GOb2pVCpRevYytBtG2zS/+tWvDjjggN///vctLS06bG1ZltbkpdPpbzc7Yvdw7AAmhOTz+R133PG5557785///O677x5wwAHXXXedbn6pj9H5UzqGlXj+voXvMGhqeL0VOk7ZIEVm+2gQ1A6MXMByAVCgMiABB+oB5i9dMmtJDR06Q66x5oZ1ATGVhM3QWFe7+ya1QtZMm2ktWpKG5JRESqlIgjDLYMjaaSExf3HzQ68NmL14s9CsGd7/W+vhKakIAUzTtBGIDz6OPpoMHtlrb2BsuAEDCCwctK+TJ0J6ldsf5JVySjsyABACAgEQJe2yv+5Sb3Ch1C/t1Xrzotv+Xjzs5PLxZwW1YegvMVKuW5jb+dcbWnceVf3tJamww4c0lUxJmEBkEckidHSKB5+ZO7gvOfOMpo+n1spUbXaA89m0wokn0v1+5k+bTIlMz5+HL6fXMqEceBzfoh3kabPIPPAiXn/DPmlc+shzwsv/XC+Xzkm3iP48V24rXzm+9Wdj6MmX5d55ox5FBgqhpNbSE4ASQggjq51ToWv1vLlz5w4ePHjYsGHfkkarbZSuWQn6xxEjRhx22GF33nmn53najayVfSvjMyT0KCzLchynpaWlrq7u+uuvHzhw4DHHHDN58mTtj9E79TAMHcdJFA+9CdM0u+p/zz333KFDh44ePVonwcW9uPGtNTm1vliHnOKOTkqp2tpaAEEQHHzwwW+88cbYsWMfffTRnXfe+b777mtvbwcQRVFcnDrx/H0L37EEVip2WE0hzIJkQdHGWLspO1PoMOHXoSONRUTBCPGvd2dde0/fKF3ZYnPstg0YDQkpEwrO+++/O4QabKi2J59HwQWHEIowA0JEEh0CCANMmoR8a7HJxN7bYMSQ7LdoglVEOIeAMogZ+cEzbzhBpWIK7Lk9s2soQD1guw2quXSBCeedaXjv85QUHJIoQCEEBCSUgsVgWR2mqHiduOU+59xryceTokENi5mx2FOmSjfJTG2kRHlx5bXncM21HJJKAh9UwIBkURWPPzH78r+uYQ0m+YhIT9HOVjq/OshO55r4B4V5h5+N517rU2+nMyYVEakEdgS6/M9FgVyo8K+Pv/jDuMl33ZENypESIbEGVjKeRxcqZZuZtcpWcOO9M864wHz/ZSgKEMoNraD5/8aiqxna8qCUBkHw+eefDxkyJG6t8o3oX+kWlV978qCDDpo6deoTTzyhRaCxujMhIUYnwSmlmpubfd/v27fvP/7xjz59+hx33HGfffYZAL1Tj7v8dPPpJqw4dFEZznmxWOSc27Z9/fXXz549+/zzz9eS4f8+NVI7Wugy9PzjeZ42WXzfP/LII++///7Ro0f/+c9/PvTQQx955BHbtsMw9H0/cf59O99h0CywS7K/adUD3lII2Yx8AzpzKOew2MLixvK8IQu/ELf9wxtz8U8+LzqhbV8xtrO2riJ9JUIDFAbBiA3b1l8TqHY89wY+mSIgCWdQVFiME2Q4R+QWJjwemp0BN7xfjAyI/S0LsxChAHiIAMD0uaUnXgnh+TUMB+9qgkUAZ0CfenrILiSVpcpa+sjzKFQtfNVPXAASBEIUebEjiGDW9w9q8OInQkXpk4+hfxo3dPIb/UuTxIJnOn4/ujJ0WH8jM/TLJdFF15qdVQgCBsmQRihef2PhvQ/lPv+gRbQs2mOT6j9vNFsW2EtaUl++z//y2+nZsjNrZvtrz3dGhVbuF1kQpVmJQy2/ZDKFxKIlsy68Ys1pi9dLNyzq28e58aqame/ywuvpljcHLHrfuvZCuf0WtlM3Ym5ndPEtKl/4qgP616ryrGbEHQ+WLl362WefbbTRRt9+fNcq9V2/Me2k2Wuvve6+++58Po9lmVM/ykkn9FhM06xUKnoF0gGmdDr95JNPWpZ18skn62pGYRimUindzLKbTzdhBdG1mkMulwvDMAzDwYMHP/jgg/fff/+DDz6YTqcBaP+uPvgb0e0OdL5SFEXaPaMnIt0tIXYM9+nTZ8yYMa+++upee+01bty4kSNHvvTSS9q7o9vuJnwj32HQrCHacoW56r57Pht54PQBmy3ot7Xq81OR3byzcctKbmv03al9gz3m/uGP7peTve2G4qWLrB22zgqWVo5dhaVQooCdqvnN4RHx+1QDzF8aQBhgkFIQSghMD0G5deZLz5cst2/JtDffCrDal7+x4ZwpwOQoRT5mL0zNWWrVp/ptsk5xzYEkVB4gKcBgHrR9GCm44eyJ76CjZGpbRhdBBgEhaUIbqry+mCEyN8sQS47dlV77+9SBByNX66PWN4bVjx2TOWt0vrE2DKo8Qzonz0IkhIkIgOt2vPV+9OnnzY1NwU579v/zX/iBB7ewmgBOyWjE4Uet+/LTA4cODKZ+2bdTDCpbucqyxhLLjzmZCHDf88PenU/bi6VDfjroX/eVDjrIq230WZPHGgpO05JDfk6f/+uSM/ae4bbyVz+fM+NLVKtQy+rx/PtSvfoQq3cXLVo0f/78DTbY4NvFvFof0zXLCYBOaDIMY+zYsR999NGsWbPK5XLXlMuEBI3v+7FIQifW2rYdBMELL7yQSqWOP/74Tz/91DCMIAiSeGVvQjdvin1vhmFomfCIESMuvvjiCy644I033tCDQQihHS3fiJYD63wl/ThWAZJlSCn1AGOM1dfX/+Y3v3n00Uc32mijk0466aijjvroo4+SUOa38B0GTdXmwk7JnNVQ+HKtYHFOlqrcrTp5boRB2ofl2m4pXazUmWljdgvenIJqG2eVBWYVdgplZCWW2hH96a68ODyNcuuD1zrFgIfwI26iEqCsbASvvbt5O6dGetHvD0Jto6FIg1q+tz+AADwOE63V227O1apykYQHHZOLLIDVRnCZWyGSrr2ms9FQqGCbxfPD556pApBwLZEql9MIPc6odKTju84iFFsX9x865LcXALlQ+KBIi9CWHkRO/uLn7kbrFJkZyhp0zAFDBNgR0DHfuuH+Ghjz7Rrzpj+5awwxgWagTsqMUuAca6+JO64Rdl+X+e2ZAjgDDIB+Sx5ShBb/0duL4Zyobm37ouuFPdwEZAAufVuhRqFOEMhU38OOYMOG+1U56MRzkC3NYTA9w/AIQYjIL5HVTsQaC3s/++yzhoaGtddeO06J/EZ0QOprVYD14zAMN91005EjR/7xj3/squyLC22hS02IhNUT7ZXRlm6sqDBN0zTNRx991LbtUaNGTZs2zTTNuCWQ3pHHwympT9ND0Rbq16oTKaWOOuqoXXbZ5fe//71u79VVtNt1Loqbcn/ji3fdO+kixfGP2nl89dVXP/fcc3qAHX300V988YVOp/pacZpvzGNYrTzN32HQ1FaztI37RW44g0D6kaCPUWqu9QdnK31Ct96jfYzGEaS+fyBUaeGXlZsfnn/WFfjXpHqQTipAoAAbBmtq4L/YsRiF5sxF0bwp6ISygZBzWMSt5J96TYWu9GXdFhsGYCSkIN+yM7ZMwBTIfdYWvDJDtntL+zYa++8suAVCIaCkFcBA/YC+I3+2oG/fsNq+9MmXWWersuFIBosDFFISpSil4AzZ1PCN10d9DQCTMhCAQPs8qGmkUinTNJVSLKQwGNd9Oz+fFlQrzLAG/XTLbDYbV7bWrYK+ahg0ZHjdNpvbVpYqE0pyKSi+Na/6Xy3V6cVU34HO/jsYJlhYsaJ8SuaZACoe8p4lCCRQW2tuuG7r8L58SQemzcsggMKy6jaErYYimmW39KxZs9Zaa62mpiadpvQDXkd3zT3ssMNmz579+uuvxxbP1ypiJTZNwjfCGHvmmWdGjBhxxBFHzJgxQ2sd9MpEKWWMlUolpVQ6nS6Xk2a0vQStxrvssstqa2t/+9vfKqU8z9M92PHvhfV+WBmIIAh0axff99dZZ5077rjj5ptvJoTsvvvuf/jDH7RsK5Yk6/MJw7BSqcT1tHQR0RX2gVd5vuNbziuz0HeAPPTApjfux5JXU51vi+IbpcLrPP9mTf5du/V186PHU+Mv9cf+Kr3ehua0OfZdT+bH35sqtPssRBqeVBwchqUO2q6zHGSWFsuvv446yQGlDCINLJ1nTPzITzu5YcOdXbb1wREQhW+JnnCuQEUgnpjoiZAOW8vZZ+vAoEoK3bIyJ2ktHMgc1t1kzpBhhiP5h5/xdz4tUkAiMGwIw5AAqIAKCYHN+m65ETiiSLC497hesRhLZzPcMqWUVmgpypmEIG746VRLCQGKbbdwHKfrghe3DUKu3txxG0IyTJmuwWioTaTlugp5h5v2PX/B7PwLExZsvM+8fltVGzZF86Zzhq+1aK31W9bfbMFam342eN32HUbW3XPPwNlfoKMTC9vq/RAcIAghoZiJ5bo6ezGcc0LIpEmT4vymb3H5fjtKqT333LN///433nhjnA/V1UOjZ6Wk1H3C1xBCWJZlmuZNN93Ur1+/X/3qVzNmzHAcp1QqUUqr1apSKpvNanVFJpPp7vNNWDHoVOra2trLL7/81Vdf/dvf/qb3t1/b8/zgXZDeThNCLMsqFAq+72+//fZ33XXXvffeu2TJkoMPPvjss8+eN2+e7sWre05xztPp9OqpQMB3GjT1oVHbEarOAJlGkJRA2lBpEw68DEHOQw71g1Ijf5Y97xTjDye3DRneRIT7wqvikedyiBSBx5QFIARGbpUdOJSFMnXP0xUjz12EJmUUeOWVTHve4g7fd6RHnO/cWbeaEESi2Np638P1IlCzptXe9UIwcK+ZAxrb1xy6sLFpSfPAJf2HFtZZB78+bpu3n4FBarmiD71kISxqN4knGTVBqRAqUKIoQvRp9EAjBQiqCEBA2FeuGm4YlFKhlKVsH1AhGFN2S0fWclw/RN/6+MR0rs3/x0RNuGsOCgIQxSPLhjQYoJb/ZRc+/5dp+elMoKz22oVfpsx8q7P4y7pFTqVa4wUNZX+gT/r5nLmE1DbJTGPBkhAhNSkM+CQMpABhfPULrWrboqWlZcaMGeuuu67v+z+4eEwURdpeGTVq1AsvvPDJJ59g2cQUy2508Hu12vEk/DdQSoUQ5XK5vr7+rrvuGjhw4GGHHTZjxoxsNqs1wnrHbFlWEnLqTcQtEdZbb71bbrnlyiuvfPPNN/HvhfjQZQL5Aei6RwBqamq0cJhSuuOOO951112XX37522+//bOf/exvf/tbS0uLFgJ2bUcVp1CtPnyHQVNKF9udckcqimwom1kSvACrgHJKtABLAJ8gIGaH0w8/3Ymvv43MhjWVqnrm3ZSIRKksCOUSCBVyDc377aV8an48vbRksuIRF2BStf3zwdASMrKw/84CDhSUDbL8Sy8BVi6If02M2mbRAVYhHbnpktUxu29o1HkYwFJ9Q9bXY1haLrVXWOOAoFTutEP69Gv2tCnKpDwCGAUBCJVSMmr4QoBRD4pwBgkdrGBgACClkCIUkVIKCgRfhcKkG0AhhETa1NHxuFBbfJ5lQNlWICUU5YRCEQIQLHchlA0WDOl7SoRmBs2N4cA1SoOGF4fXpKjD/aC0VHUsyvkVu1pWUViV4Yx1mhdFblEEAYcgxKCGLiK8GlKtVt99990wDLfZZhvbtmNVzQ8jCIJ99tlnvfXW+8c//oFlwQJtwSSRpoTlEUURYyyTyXR2dtbW1t52221Dhw497LDDPvnkE626iB1+SUuE3gSl1LIs7XgbOXLkeeedd8QRR8yfPx9d2sahS+7C96VcLtu27ThOEASxVkYvN5VKZf/993/ttddOO+2022+//bDDDrv77rs7Ojp0k4S4Ke9qJaDBdxo0WS7qCByIALJMhEeBHKo1MlP2Bwo5RMIKYFcgQTFgQMMB+35JSg5Y9Z0vEChuWBSAACxTCY6f71G102BR6v7XqgaoJzHtc/zrkyibUhusLTfZMAxklkBwQCx3Za4DEIXFZ18c6Ad8elttaqAv0m21mRrluGVXMhLJiIRhxrSZYxcZ6Rg8uCQidLQHjz2TQQV+CANhpLMUqEO5BQYgguIMkNAeGgWAQMv5QiFACZTHAWEAMIqWIaseNxmCMI4x6QdazyGEMIBcoSwNoWhkeQJEKnybi6bOqy20R5U1RzSeeyYWvBK2vlGtfBR0TvLmTlUt8x3ZTqqLzOJ8a+msVOv8TKFliyfu6b/X3uA1VSgGGslAESy/VVSvRbtMPvjgg8GDBw8ZMgQ/tPiHlFKHonWFidNPP/3555+fOXNmfIC2k7qmWSYkxGgPvxCirq4un883Nzfffffd9fX1xxxzzMcff4xlbRC0WRMXFE7oHeipgzF2wgknbLfddscff/yiRYsAaH8J/j2x4HuRyWR0uMo0Td0vTEvRdbYdAKXUCSec8O677x500EEXXXTRfvvt98ADD2gjJgiC1dCd/B0GjecFtBLmPJ4Cz0puuxKe5KIKOwNBgyiAqWBIB5EP2eIQk9jSk0ElAJXgjAHwo4BLySxstqG/7Uadykv/8zXqlWEJPD+xUVCDMH7UPi5SNrNYBCAUbLkGjRkBk6cWn3+9RFVxrQ3wyL2DJv2r39yPyKJZTscs0jGDlmYgP5W1T0+1zWBLvsgd9vNGz0JaiWdfYUsWhbZQDCAsBKGUEl9YkkExA4YebpQCXQUT7KuGq4L6TEYegMCQgwdAccOgmD1b58t0TQDWf2giJDPnCh5JImggvvqal+84CAc3KdOheYHP2lRDnYSZklnTtWxa44OViPQZCSiEwSWjAkD/fqG0hIQtiCWRoaYg+DbpUe/FNM0ZM2ZsuOGGlmV5nve1DKbvhXbnRlG05557Dhs27M4773Rd92vlapC4ahL+A0JIa2urXjy0REYp9dhjjw0YMOD000//9NNPARSLRdM09crXzaebsIKIK8rENYJvueWWefPm/eMf/1i6dGnXI+Pu2T+AeNqJZ7avFa2xLGvUqFHvvffezjvvfOutt+65555PPPFEXFn4f/mAPY7vmPojaktlUGVDMhAqCGChwKw8gzLhmmaZ+YCblp4VVK1SqS60GIyGNQaVLAqCKPLBeCf8MgjMtP2LXSjhbE5BfDEn5F754adhO7Kjin22ZTCo9pEIl5LlrvxVDnfyF30Wl1RNfXnt9bDZpn5DQ540QDFipsowyjQF4kgXUAZFKrX3rvUVq92shF9MxRvvhUy5EpxDAAwsqnrKDSAUllXZ1QNHvxehVOfmEUZhKgjlAQB3hgyiqQyILH0xDf++vGnzmRAiggJmzgvgShpBQugEpOWvg0GDqu1XU9u6tPLQhKq7NIJfpiXhuHZILY9m4DBQAlAhmASLoLjDiJED7AAIKPwwggpXr2gpsKwV3IIFC4YOHYr/QbSr/9AwjNhJc8ABB9xzzz2lUinuNhcbr0nfyoSvoZRqamrCMlefUsq27VQq9dBDDymlfv3rX0+bNi2Xy+lNc1JHpNegS4pblqWFB5xzx3Huuuuuv/3tb++++26sRtAlZ36YIRvHu3W5mrhWtfbWAIiiSLtwGhoaLrnkkvvvv3/77bf/3e9+t8cee7z++uupVGq1SmL4amr2CScSNBSgkhBhQSJExIxMREMuOlM+gqCFSMYpApoNjSxxQ4ROEGSkVTS5R13M/IzeOx7UXZB1yZ4bZ9tVlVFbUZiyj6I2gJCX99nJ61uzyJmVmTDBmPSu8cV8REbb6L1FY19LwawAppQsQ8KsQgQpdXlfT8oIEiJEuZgqFsPrn6o21ucWivqTDoCJAKgNXdggBFkgB4CCZi0QpACstWP+Z7tUanK5QFQfesGCSLkIJCIQwUjaSoWGBZW1QEsA7A6OqgKzIi4oEJBIZazQEqq0kDHwoMENYYBsuMXM+qam+dWO55/w3v+Y+j6Rgae8KuAzBkLgwZr0+sJ3nu3jcVeaVcNkgekAilcK1E6FFgglviLVjEeMDgKCorNx4xTGqn6jEZH0dQ+n4QNpVnE6DZQUIQKuSw1F6fxZ8/bZq9I8YFbTFnT2lAJ1PUcXQU5JkOhbxEe9FNu2Z86cOXv27J/85CdSSp0U8MMMDu0W1kmShmHst99+jLHx48frupxhGOqI+OoWk074b4h9tF3buQPgnL/wwguNjY1HHXXUe++9pzfNscwrtmwSn1/PRYd+YqUdY2yLLba49dZbjz/++BkzZhBCtKT3W8oHfydxEIAxFg+h2DzSaZ76cRRFAwYM+MMf/nD//fcPHjx49OjRJ5544tSpU/HvFWt0eSQsk+MIIfSvlFI9vSPvsmIbXQunak8Co5IAgglYNkxIlln2F9QAqpYZGSYzFSFMwm538a+pS+a15dxMNZXGFuui3lFAyjBAqSDMVoBAc/3A2i236Fd2/Dc+jCa+V+Fum0mGbrYpqCEIwBBFEQFAWQmRF3gAIGBQGkKVSaAyBj54u7BkjioUC0Nr7Q3X8byAAjCWb/nW2LU/37HPvCosC69PwiefI4U8RQYIlauIW7A8sMCWcAAoowRZoqTC0Q5EZlSyRJUFPg0HGzl4fuQgIJG9RmO//bapmOGgXM30R+7HR5MQME7sQNfOC0IUFrvXPyvndKBaTYGFJtP51BLLfV/K1xp+7smpfk1mYfFHd1wnn3kmAxcMda5XaxOPBI7jI+zofOSh8KPJ6Xylz64/RS7HwJkEKBQHAAOr487v1VdfbWhoGDJkiM4s0BbJ932ReBOjbRoAffv2Pe644x5++OGlS5e6rhtvhnTryhX7ERJ6K5xz0zQfeOCBvn37nnDCCV988QWWufpc142VN0KI2BGY0AvYe++9jzzyyKOPPrpYLOod0crJo9b+P6XUpptuOn78+PHjxwM48MADjz/++KlTp3LOXdfV5ZF0/ztd+5gxxjnXNW90neuVcKo/Ev+/lyW67puS8c9SqbkhK2Xq4dSis5KCAI1gBiW4xZTv8ypYSESVvvP+kguvbb/s1iELO/yCatp1F/xshyIxfDciEhFBUQpIBAQgaWu/veEa4aSp0eMTFQuKw/vzn/4kAhEADISRz75SmnBicsivdCcKRFIaAnjiyUHUbwhR2mUjDOxDsqYEIr7cHbkHYKfNO+pSYN5Sf4mY8JJHKgYk84MUkSRFjCyFqMBVjg+EdlbaOcXSCmmAu35DJawvyvoqRWtFRKEAzECC8fQv98Baw8qTW9a8enznpZeXXn6izV8aIbSDDtz/z9ZfHU4f+6TZrgO36rilLKqYUgpVtdz3hazFNlsv3rT//ExpSOsieuQFOOevpekfwqmWyWJFFwUvPi6PPrPuigf7Ly1hYJ/M4b9AXT0HYwowEHBQRFz2bOP6ByCEeO2119ZZZ51+/frpZ36waFcru+O/1WHpcrn8/PPPO46jd97638SgSfgv0Ra24zg33njj8OHDDz/88I8//phSms/n9Tqnu/9ouydx/vUaLMu68MILGxsbx44d6/t+tVrVBsRKeGvOue73DmDHHXf885///NBDDy1ZsmTPPfccO3as53mO4+h2daZp6h4dQRBUKhXt+3Fd9wfX8VoVoP/+HwpAESIASBlCrpFZ2sebYj1yY+uOW83o37/cZyD6DrH7r5HNrmtlNkd240U166v9T+h7z3MN8+ZZNbJjs43rjjzYS+dCIEc5AAGkqSWZMg1IwrHDjguH9stEEft0ii1Vdvft0bdPoDO1KSzD+Eo+G1QtysGhTFSjEFGQE9xc3Pnlkw8XRCGUyB60WwXSipDNS179Vs9EU7+6E36OcpR2DPPmCXaxtV4KZYVFHrW6pQoNRVqotChaqBoMFYIAkJAAHFbOsLwlqyZQZ5SzqSUIffAK0th2m/RvT28bsVXKqtS98VZ29Pk1A3YM0muWhmyt/nCx9dm7nYH0h/QLAw/5ivJDAFSBEXt579tJYW6wXr+zT7Abh9b5TkEV8fd73L1GuXQrO7OL07g3PeDM6IU3vow6Z6w3BOf/FrtspUyLg1IFQRBAEgisfhNiEARz587dbLPNtAdFO2l+QMjpawUbtMnSt2/fI4444uabb65Wq4QQLa+Jy9UkJHwnlFLdJHnAgAF///vfBw0adPDBB3/wwQe1tbVarWnbduwdTMTCvQadnz9+/PjXX3/9xhtvtCwriqKVYCh0lezoRpjZbHbDDTecMGHCHXfcMWXKlG233fa6664Lw9B1XX1KOlKvm730gs6Xy2rj6v8QAkqhzQslJCV5v1bxJmU1k6KRcm0lbFea1cD4ss/iltTssrXEdKpKVSqVziX1GbXfzv1uvBA/3YLAqnMZB/wQlapvSrgAFNqh0K8/frEjMhzVCqGppn12h2nJUBEARFKms9xULXUg4EdRBQgpUsRECfln3h22RFoVw2gcWrPVT0LwiAMpWkkt15vnAoowssdOJd9s9nJY2OG+MimikvhhzjOb/Pp+QR0rKBLKFJCSNMqywEJIYACoho7Lc1EqFeVUNayRdABSVkhND51w8PODhl10SZgZWEo5cwqzXbMj1xj5XodXUQhqG848InPgjkFznYgiOxTEjyARKLG89zUsCY8EO+xU8+iti7bfqSY7EMWOKJgfDGXFOneJu9DOpFRV0T5DN7rkIpxweDXtVEFNAAoBCQHJAK1uXq1oa2trbW1dZ511tMGBH1piHP8uJY6LUx122GFffPHFfffdRwjRm57Emkn47wnD0DAMy7KWLl1aV1d3xx13bLTRRmeccYZWa2JZOUe9g+/uk01YYeioYn19/Y033njllVe+/fbbKydUzRjT1SUYY3EHTT2zbbvtts8+++y11157zz33bLfddnfddVfsEdRe7ViX06NlNP+vocGyRzrOIwmstFN2skuBgPBUyPtKJ1WBU2VNfqq5taFZDWayT5k28Z32TP/9+r4vPOjdeFV1641KhFqKU0VAwC3kTAMCBAQiMhnxwQf+ZMtAVCPTEGuth003hCBpwjkgogiQgIJBEAoAgYgUYFADAFra33/tzaWNg5YMGo7995ZOfQq2GwoYaIG7vI9XVwAJHGvEVsVdd4KbmlFj+xMm8Q4Bni6nG+an6+c5jWXiACZXgEIIRSIYAWwBlCLBM501jTOtdOBk4HMeAgQc4EClhqpDt+cfvpi9+QbnJ/ukgn68M1dsWsc9+ST+9D3Gbw+l6wynmXSYMpxcGtwARYrYy3vfDMLAUixKY4OtB/zjBnXPlXP/dgKt64NFXn1YY2b6Ldp+I/XMn/t89kDx53tXSUYAJJREQSBSVBmgHAxktatv8fnnn1cqlTXWWEObIGEY/o+F9XTaNpY5e0aMGLH33nvfdtttrus6jqPdP6tV1kDC/47v+3369AnDsKGh4Z577ll//fVPOOGEZ599VgihlxBt3CQhp16DniIMw9h1111PP/30448/fs6cOSuhaK+2j7Vx7Pu+53k6uyqKItu2wzDcbbfd3nrrrdNOO238+PG77777Y489pksMawtMCFGtVnt2o3htnUn9fy9SSnhKVJWvZKAKBeUJ5boqCJTvqdDzwqKrfE+FKmxVolN5BVUuK98ri6BVibJSLSqqeq4KlJIqX60qpVQkZLmklKpElVApXyl1+Y1hrrFY07967a2hqkZuqAKlQqVkoERZqSBUSkhfSaGk8pVqDVyphHIDNWuBqhZUR4eKgrwSKlSqFKlWocqeWi5ikVKLlGpTVVVsi1SLWrIgVKpFKeWWVL5TuSVfqQ6lFim1VAnlK+UpVVKe/jGsqvbFSi3pjCq+UktVNE95SgWqmFeF+UrNqygllVCdnapaVpWyqlZUECghPOWVLv9jpWHw0j5D1IMPSBEGSqlALvd93VBJpUI1XQZ5pVRbQUUlVVis/Da5ZLoK25UoyKAgRFioeKG+XkGkhAoi31cikkIJpYLlfw29lAsuuGDLLbdsbW1VSkkpPc9TSmlZ3PdCV6/SLxI/1rz77rubbLLJY489Fr/yD3j9hJVDXPkwbhOrlPrwww9HjBjx1ltvdb3K8ZE/NuVyueuPhUJBKXXcccetvfbaEyZMUErpWkf634ReQxAEYRgqpfL5/FFHHTVy5Mj29vaV89ZfG9u+73f9UZ/VokWLrr/++uHDh++zzz733XdfPp+P746vTYA9iy5+TgUIoauwCEgQgpRTtWinzTwDgkVgoNyi4FwwlzcWaG3FysFJu6ZZpIYDmi6jBswhNrygRADHUb4PKYVJEcBnjHshvBAPv8bBANM5YI8yCDM5JMJKBAKtAZaAS6ivIkiYEhnDrgJVW0ZD65WTQ67uS2ZIUEmlyChY3pL08i1KFfYF+rhoEE6YzSwEK/dp4CGaAoBloppcwc4ooM5Fv6JqVrJoysACOAKhBAiUBbumhLTJUqaLZlcMQoTHn5+z9k6d6+42d/v9bHgCKqqtDZy0a6cjJxUYfkQLAnA/nWvm3TBloCETakUzyPLeV1hcEHhBOKJsZCQ6GnLwMh25vm28we8zIuD1Ac0JI0cUz3GLV0BCQBGoSDJFARooiG/rFdVbmTJlyjrrrNPY2BhL9PHvPSj+S2K1b1xmJt4ub7XVVuutt96DDz6oPTe+7ydah4T/Etd1tTpBFxCPoiiXy0kp//73v++0005nnHHGxIkTbdvO5/O6qWFCr4EQwjkvFos1NTWXX355S0vLJZdcshLeVymlR1oYhnrKirU72o7X0fnm5uYxY8a89dZb66yzznnnnafLDetR2rPbP61gAykI25XvKqUiJaVSFSUL3kyllKdcpaQK3Adubx+ydkD6qN9eKERhBb/7j0ioQlVRarFy1eQpc5vXU6mGjoFG+fEnVEdFuSoSqqRUKVJKKOX61UcvC4ZtqDBk0e4HqPLMdtWmpJLFlbQp7JXE2w69wwjDcP78+WusscY999yjg01fO2wF8tprrw0dOvS5555LNtOrOKugh+Yb0UVBTj755CFDhjz55JP6mXhcxSevR3WP3jGvtuhUfLVsvvrggw+GDh1655136t/qX+kr+zUPyspn5syZ55xzznrrrXfwwQe/8cYbeviFYRgPPN1JSj/Qz8Re6iiKuvdW+horfFNPa2DaCkEgi1EEB4Sy4fNaYbbbfot3x23RDfcGc+YV1uqPA0eWaWZFv/uPhZARojAFpGFjYJ9wk3XaQlVXqZt0wQXqgVvQ8pFHWyTyGdKGj972rrte/P7BwqwFfr/mpn12l+kagkyZyCDbky3f7kYXysSyig5SygULFjiO079//1jOppRasQIXfUtvu+2266+//l133WXbthAi6cWT8L9DCLnqqqt++ctfnnLKKRMnTiSEaCdNpVKJGwDpMiGJXrjHoZSilGrXiFIKwAYbbHDppZeOGzfu/fffj6JI92nRV7Yb06T1bDl06NDLL7/88ccfp5Qef/zxZ5xxxty5c2MtjhAiTgLVLnC1rFgXAF0Zv7vO/z9Z0dV+gpDBAoXp0ABRB4r1C1s++tXv+nd+lDKdXN6POtr8Qf3piQdigxFpRbEKfRXfBqMEnCECkyHSmeG/OaEQwnvlvW39eWTcNeVzr1Qpmxt2S7FiEGqApjsiPnid4i93bTpkfx+1JjjViUgJK4IoigzDmDFjRjab1U0PvtYldEWhVxTDMI488sjf/e53n3766YYbbrhK3cAJPRE9UDnnV1xxhW3b+++//9NPP73DDjuUy2XdCqpSqegStHHP1O4+5YTvgW6DoCcK3VTSsqzDDjvs/fffHzVq1BdffKEvtFaF/7BKEysEXf1cy4GHDRt27733vv3221dfffVPf/rTo446atSoUSNGjIgj7EEQmKapC/HFTWZWNWt7RZ+NbQHwlAKQASWg6J9ptjgqRdbaijDM19fK/XapO+aISm2f9uUmJ61yqCgK4IMhRQxQA7vtYBz5y9kbrC9DjlAFouoHeSmKGSZrJM24rHXYIHnqQXVnH6ea+qsiUh6MkseD1bGS7wokvrX0FmHKlClNTU19+/bt6pVZ4TeYLjx14IEHrrPOOjfccEOcH56Q8IPR4STDMBhj48aNO+OMM/bdd9+JEydmMhldKT+dTutRrf003X2+Cd8P3c9LX0FdrlNXgr700kuHDBly6KGH6gO6luvsFrRoBoDOhBJCbLvttg8//PBDDz301ltv7bjjjpdffvnSpUt1qoRuraqzwX3fj32Hq1Sa94r+KhVCpUJOAMCTHEDW6HvsXn3DtajbZ3bfAY03X9Z07WVFpz6t0NxzssMI4z63ygQAwk7fY07qmJ+v+9r9/Jm7q0cehvp1G4v9M0tqCqJh6Z67Y/wfm1+6NXXmUZXmgaKsbMkJB8+moJK0zB+I6tJESU/xvu+///77a6+9ti5a9SOlUus31bfxEUcc8dJLL82cOTNZYBL+R2IBOwDG2BlnnHHWWWcde+yxuiy1fp5SWqlUVjWXfsJ/idZpxeaCYRhCiHQ6fd1117311lt//etfCSFxp8luPE9dWdh1XcuyGGPlchnA1ltv/fzzz994440vv/zyXnvtdcMNNxSLRSwL9yulLMsyDCMMQ8/zVq007xWsyZGqrGRBKRUpVQ3KslRWJeW1u1FF+UVVafVVtaJUWI6UVG09J89YlksFpVqUUIFSrsoH/lIVtavQF1GoglCVPdXmqValSkoFSogO0dKuPFcpVVSqqjr9YKny/J7zeVdBfN/vqj6bMmXKoEGD7r//ftVFv6b/XbEiNf2aYRgWCoVtttnm9NNPX4EvnrBi6SmiYI3v+7EQuFqtnnnmmUOHDn366ae/dtiqcKoJ3xctm9X9seNn9NbrjTfeaGpqevzxx/WT8QHdgpYnqy6CX8/z4jvFdd177rlnyy233G677e6+++6qLsXSRRSs6wuv3FP+Nlawh0aqSEDYElBQjsGUnYYdWGkbKVcZXqrGhcUAbjMZVOtRWbHv/uNBrIwNOKAQAEENMzMgoagGlAlp8DBtBQ1W0IgwLaThUZqlTRlYPIrgADaoSS2wHqMYWiXRoej4xzlz5pimufnmmwOIY7pKKazoHY8OAQDI5XLHHHPMk08++cknn6zA109YPdHdc2zbLhQKABzHueqqq3bfffezzjrrmWeewbKBF2uEE3oQusInlvVUiaOHAAghP/3pT88+++yLL7549uzZWKa07S66pji4rhuGoWVZ2rGkg0qHHXbY448/vtdee1199dUHH3zwo48+CoAxpsenVuF018n/Jys65ESVCWoGgEQeCAPA41RyhGCWGUi3JqSWh4qnpMWI7DkiGgFWFRkFmICIEEapQPaJnEwEi8AzkDfRaaJqEEqlHUXcg+mqSAqfRx2qZEPWRIpXVqEL3+PQqns9KURRVCgUBg4cOHjwYM/z4hn/x4hJazUD59zzvCOPPNJ13ccee2wFvn7CaogQIm59UFNT43meFmbdfPPN22+//SmnnKJjT+VyWUuDE3oWWmiiI0pd1cGxVOWMM84YOnTo2LFju721ddwbwTAMx3F0UEmHkwzDME3T87z+/fuff/75Tz311IYbbnjBBReMHDly4sSJOja6qmm8VrBBQ2HYoLABE3VA1uawwSmDDRM0R3MwABvpNOGwQPut2Hf/EbHAUgwEoECKw+IwOSwDHCCwgVqgDkgBBBScwwYcYpuWBV5PsyYMcAPfUgAw4VvRXvc4cxvAQw891NTUpPe48WErfC+r31fvQmzbJoRcfvnld999t25Xiy6J4knd+oT/nlgZo9cP27bjYgQ33njjgQceeNJJJ02YMCGTyXRVXHaVkQHo9rUw4duJ87HjHEy9NdKVaW677bZ8Pn/88ccDiPMMlFJCCH19V47YNk7P7nqq6OI3iifY/v37//GPf3z44YfXXnvt44477vDDD//www+/5qHp+liffywk+s8DfgxWrZyrhIRvJL5t9G1WLpfnzp278cYbr4T31XejVvDZtr355pv369fv7rvvBhBFUdwDhTGW2DQJ/yN6afnLX/5yyCGHHHfccS+99JIWkwKoVqt6K6x/1Dm03Xu2Cd8XfX218ZpKpa655pr333//hhtu0Mn5xWJRzyeU0kKhsGqJbQEAURStu+66N9xwwzPPPNPY2HjIIYeMGjVq2rRpAHT3+LinHpbN1bqZlP7zWHDz451hYtAk9AzieFMQBC0tLW1tbbvsssvKed+uedobbLDByJEjb7311vb29rg6iD4gaVqZ8D+imwsKIc4+++wxY8Yceuihr7zyCmMsn8/rEJXruloxZhjGKqVdSPgv0Yu6rgW60UYbXXLJJX/5y18+/PBDznkulwOgC0PU1NR095l+A4wxXTV43XXX/dvf/nbHHXdQSrfbbruLLrpIp0ctXrxYD06dpo5lHhqt2NW1l35UTVhi0CT0AGI9ne5FMn369Ewms+mmm66Et/6acwjAQQcdlM/nn3/+eQBhGEop9V55FdxRJfQsOOflcpkxVlNTc9ZZZ40dO1ZLMmtra7UG03Gc2LxOxMI9DqUUY8yyrHK5rC/fQQcd9Itf/OKII44oFouxEaAv8SoYUtRzHedct/Lebrvtrrnmmqeeeurdd9/dfvvtL7roorq6OgDVajUOVGkPTdzQWzf9+PHOMDFoEnoAXQ0awzDef//9NddcM67Y8eMRmzJ6e6Ej3Outt94BBxxw1113lUolXXYvWVoSVghRFGUymSiKPM9Lp9O/+c1vjjnmmLFjxz777LN6tOsStMmQ66HoqyaE0Ou99mRcfvnlgwcPPvbYY+OV3rZtpdQqGFLUomYAlmXpj1BTU7PVVls988wzV1555YQJE9Zff/2bb75Zy4C0byaWBGm6RqB+DBKDJqEHoKs/YVn4+YMPPthggw1WgstdKaX3SdoPHPfiPv7447/88stXXnkFXTbKiYYm4X8kbkkWL3h//OMfDzrooDFjxjz77LNYJsLQS90quINP+E50F1LOueu6URRpPfjdd9/90UcfXXvttbEQeNU0WLWoWT/2fV8/0HPj/vvv/8Ybb1x88cW33377Hnvscd9993mexxiLa2roamH4kT9aYtAk9Axic2HOnDnz58/fdNNNV4Jmpet+Qt+WOtNqo4022mOPPf75z3+2traaptm1zkRCwg+mawvAUqmkh9ZVV1212267nX322c8//zwhRIsVVrkKrQn/BbrRo25woXOkgyDwPK+hoeG2227729/+9tRTT+kjtcZ2VUMLvHSWVtcCNjqiZJrm4YcfPnHixP322++KK67Ybrvt3nrrrXnz5sV+bv23P+o8mRg0CT2DuHTetGnTfN9fa621Vk79A62D0yegNyX6fUeNGvXiiy9+/PHH+mZWXTrQJiT8MLTVrpTyfT+bzcbNC2+99dYddthBx54ymUypVLJtOzGgexxxnpo2RnWqmr6UO+2003nnnXfeeefNnDkT3dqC+1vQEkbDMPRcp+sFx724dStf0zTPOeecxx9/fP/99z/00EMvvfTSV199VSvATNPUFXp+vDNMDJqEHoCWDujb6e233x4wYMCQIUNW2oQeTy5dNyVbbLHFlltueemll+ofddrCyjmfhN6KHkKEED3S9I96Abj++utHjRp1xhlnPP7449lsVqc7oYvnMolA9RQYYzpwE08shmG4rjt27NiRI0ced9xx1WpVHxCHdbrSjdltXytaE6csxU8ahqFtteHDh48bN+61116rqakZNWrU4YcfPmnSJABxxpM+Xi3rLaN/jMdwLCf6viLixKBJ6AF0LQHc0tKie1J290nhpJNOWrJkyYcffkgI8X0/8dAk/HgEQXDOOeecfvrpY8aM+fvf/x6nO2npZZxqt2qGKhK+E62a+s1vfkMIOeusswBEUaRnuUqloi0bvfD3oHlm0KBBV1xxxVNPPVVXV7fffvuNGTPmyy+/1H0hwjDUqkTGmFJKi4digU4sJqOUxk/+NyQGTUIPIL6H29vbp0yZstlmm/3YrstvR+8qDjzwwOHDh//jH//ortNIWE2Iosg0TaXUqFGjzj777HPPPffvf/+7zvHuWpAmCAJdriahZ6F9zwCGDRs2bty4Z555Zvz48Vpho5RyHMeyLL38d/eZfj90mvraa6996623vvjii5VKZd999z3llFMWLVoUhqG2VLQ5Hlfh6+q/iQNb//07JgZNQs9AB5hmzJgxc+bM9dZbr7tP56ubbfTo0c8+++zUqVP1jNPdJ5XQO4kbIzDGxo4dO27cuPPOO+/222/PZDK6gjClVMsXkGTb9UB09U49xe20005//etfL7roojfffNM0Td/34ywhdGu86QeglNK2OGNs8ODBN99883XXXbdgwQJdm7S1tRWArrYHoKOjA8v0xV0jTd8rlJ8YNAk9gFhyO3XqVM754MGDu1cRqe8xz/P23nvvfv36/eUvf0FPm2sSehBaW6Cd8wBOOumkCy+88Pzzz7/ppptSqRQhpFKp6D2u1hF38+kmfH/iJiphGO6///6HH374aaedtnjxYtu2dWZQXIiou8/0e6Cr8FWr1TAMU6mU4zg77LDDhAkTLrvsshdeeGHXXXe97rrrKpWKlDIIgvr6+iAI9AfUNnoQBDqj6r9/x8SgSegBxC7Z6dOnb7LJJo2Njd1+PkopwzAsyzr22GMff/zxqVOnJmm0CT8Spmnqfqicc23cn3zyyaeeeupll102fvz4KIp0U24hROIm7Ino0AwAHXzp6Oi48sor+/bt++tf/7pYLBqGoS9r7K3pKWhDPJVK6QKkcYGlvffe+7HHHvvd7343fvz4HXbY4eGHH9bdrLQvx/M8KSWl1DTNr8mQv5Oe9O0krLboMe267tSpU7fddlvHcbr3xhZCBEGgM7r33nvv9ddf//777+/G80no3SilamtrC4UClvnkoyg699xzTznllPPPP//WW2+NokjnPfWsHXyCRve+jaUk9fX1Usqbbrpp7ty511xzTblc1sFEnVXUg9L1TdN0XTeu8x77WgzDkFIeccQR77333oknnnjppZfuvvvuDz30UKVSAWDbdpz69LVCw99JYtAk9AC0e6ZcLs+bN2/NNdfs7tOBYRhx4mV9ff3hhx/+0EMP6ZBwQsIKR8/pNTU1cV6rVoyeffbZ559//uWXX37jjTc6jlMulxNRcE9ENzqI++8CoJSuscYaN91007XXXjtx4kQAvu/rokQ9y0kTbz675nj7vq8jaIZh/PrXv37ppZd22mmnsWPHHnzwwfrDxgdrLfx//3Y96atJWJ0RQkyaNKlcLo8YMaLb1SpRFOndcBAEnPPDDjsMwI033qh/q/cZWKaqSTbNK5+u+SCMMW2AauUsljk5etB1iWUxXeutmaYphBg7duyZZ5551VVXXXvttZlMJv5t19QnvUx2+12TsDzi4fo1Y2XLLbccN27cRRdd9Nlnn1mWpb3CK+E6dnWKKKW+00eilkPXY/RNhy5lluKXbW5u/u1vf/v555+vscYap5122hFHHPHBBx/Efx63B0aXjKflfQmJQZPQA9C6gRkzZjQ0NNTU1Ogboxtdr9o9wxjTC0w6nf7Zz372yCOPFAqFcrmsBQ2xkDkRaa404oWha8UOXfFCaw+1S1+bNXptWKUQXdA6Lf1xxHLQQc+xY8eec845l19++a233qq6pLzqmjR6iMYqtIQeBGPs1FNP3XzzzceMGbN06VJ9KVfCdexqV2m1slJKLh+yHL5lqMcvrh+kUqlcLnfDDTf885//dBznl7/85Yknnjh9+vT4MF2Jh3NeLBaFEIQQXX34a7Bx48b9qF9NQsL/jt5M33LLLbW1tQcddFCc0LEqeF/1OTQ0NNxyyy0jRozYbLPNAOiiEdoNsCqc5GqIniuVUrNnz77//vs32GCDcrk8bdq0WbNmTZ06NYqi5ubm5U3E3QVdBvn3RYsuB11EP4qijTbaKJfLjRs3Lp1Ob7bZZnrIaSUmAMZYpVJZNavpJ3wL2hO8884733bbbXPnzt1zzz31fKJ+ZCcNWXbvxOPw28ftt7zOd/5J/Fh3IO7fv/9+++230UYbvfXWW7fccsu8efPWWmutTCaj53zf99PptB753ziek6k2oQfAGHNdd/r06RtttFGsEuhGQ+E/ffgbb7zxkUceecstt2BZtLtrdeOElUbX/R8AKaXnebpYi+M4uVwunU63tLRMmzZtVU4Iio0bPfsvb5urnUyc81QqdfLJJ1988cWXXnrpddddB6BYLEZRZBiG7/tKKd0Qsbs/VsL3Qzd0zGQyt95664MPPnjTTTfpcPaKMJ6/De2Pif/Ff9xWX+N/8UrqAjya2Jm966676s/b0tIycuTIP/3pT0uWLEGXUsLLa/TxPYoKJyR0F4SQhQsXViqVjTfeGEAURVoS0V3no99aLxja8885P+WUU3beeecnn3xyv/32w7L9DUn6Vq5c/vPbDsPQcZy11lpr66231s/k83ldxev77nSXdx2X9zrf97prx95/emiW9zphGBqGof8FcMwxx0gpL7/8cj0aAUgpU6mUPiDx0PRE9Bq/ySab/PWvfz333HM7Ozubm5tXwtTHOdfmsu5AyRjTkuRvOcn/ZHl7hq4VLrQpA4AQkkql2traHMchhFQqlUGDBu2yyy4LFy4877zzHn/88XPOOefAAw8EoHuVf2PJpcSgSegZTJo0KZVKrbXWWli2IeheK0HHcbHMLRwEwdChQ0eOHPnHP/5xr7320stMsoR0C6SLwzzOHNHXIn5Stztdse/4v/ONp/QtQ10HlUzTjOt2nHTSSUqpP/3pTwBOOukkPTJ1G+SkTlKPw/M827b1/m3//fefOXPmm2++2dTU9GM3Io2df67rFotF13X1M1p89p8sb3x+y/N6VHdtsEoIkVJyzj3P0325db56v379fvazn7W1tc2ZM6frVvYbrbrEoEnoGbzzzjt1dXX9+/dXSq0KU7NeF7FspdRL0dFHH33YYYc9/fTTBxxwQBJs6l5iDxkA3ao9/lUmkykUCtoS/V6v+WN7aL72gmRZVsjyDqtUKul0ulQqOY4ThqFlWa7rjhkzxjCMa665xjCME088Md5ea9Pnh51PQregy9Dppl2ZTOa8884DEIbhjz23xJObUioMQ715+xaDZnmem+XtGXRHVQCGYZBl+Ya6/4PuTaYrJusmVi0tLY7jmKapc6OEEPrBN+4YE4MmoQcghJg2bVpNTY2WQMZdzboxgUjf8L7v63RKXS9hyy233Gqrre666659991X175cgW6AhO9F10yK1tbWadOmWZZVLpcZY++9915bW1v//v2/b6Lc9zVcfoB4M3a/G4Zh27ZlWV3bT/7n++p5X4/DMAz1qrPnnnu+++675557bqlUOvPMM/WClFgzPQ69tHPOM5lMFEXa3bgStnM6yU6P6q7Byu/71su7v+K0qbirtlJKGzR679G1fVVzc7N+Rt8FcUnlbxzP5AfccgkJK5l8Pr/33nv/9re/3W233XK5nB7f8dTfdTmJ743uOtW33nrr4IMPfuyxxzbddNOuN2fCykE7ZuLp0nXdyZMn77HHHrFzWy8JmUwmnU6varpgLcnSZVIZY5Zl2bb9fWuLASCEOI4zffr0xsbG8847b//99/+RTjghYZUiMWgSegAfffTRMccc8/jjjw8dOlRvHTzP07Um8e978a89s5IhhERRNGbMmDAMb7/9dv1kIl9YmcQWZOzAa2tr++STT+IntaGjvdmrmlibLCsP3zUNBN8/dBUEQU1NTT6fD8Nw+PDhffv2xb8X5UtI6JUkBk1CD+COO+446aSTfvvb31JKOzo6GhsbgyDQrvivlXjS47m7DAi9kEycOPH9998vFArJErLy+caIZOz6jkdIXFt9leI/9b9fS2f9L9FahPgV1LLehwkJvZskwJ/QAwiCYJtttvn444/L5bJt219++aWUslKpcM5N03QcJ51Oa+e8TnmNmw+sZEzTXLJkyfrrr7/JJpvEW4Uk6rTS6Lo90/oSva7H33/8oKv/Y9Uh9tDEZo2uRvN9z1OXnzEMQ/8tWVYxOfEUJvRuEg9NQg9Aq+K1GN627VKpZNu2jj1RSrsKb/WOtrukuHF7IN3pSW+LE2nwSqOrNfC1XND/PPIHeD5WGl/Th31f8XJXA1onxegs3FXQKZWQsAJJDJqEHkDXufhrj+NjVoXJumtmbBAESimdYZiwktHWTGyv/DAlyqrADxO5ayNG/+2qGVxLSPgxSAyahJ6B53m6IK/eWH9tu/k1XXB39a3U7671Pbp6m15RuuVkVlt0sqsO1sTPfOOivqrNfrHT8WvP/7CKxnHXQKzyHqmEhBVCYtAk9AC0DCUuikoI8X3ftm1dYGOVUqhoa0YLOJLN8Uqma628rnqU2KCJRcE9a2n/AQaN/iq6FrNOhmJCrycxaBJ6MgGEiQjSlFEYhtKyDTAWAN8zu8gDbAlIgMsCQgGSArEBwACg7xABJaUEJRQ0cbmspviAhSrAACsCBEDgERADAuAAUeAEFT/iFg+BLEIBRFAhFIFhgJohIAGKdiNokLREFYVKR7TEkY34cpM0hNvBaAaQ4HbElMQCE4NKQHalfvqEH4kI4Hr+UQABOHyEEUQgVS01SABwupiiHtRyAaqERcLAtw0LCpAKhEBJUAoSCoJO+BKsFtwMGRSVBuhqY8omM3NCDyZUkklqEQplmpRDURCEShrfs418IIBI2gAIrWGGnlVkIKgJAOSreUa7glabuSHhP5BRnlppDgAkYEopBc5AmBXX5/NcmEaGKoSh7VXh5BhVjMAigB6TemAymCCIiGMqBg5BKJUIFPhyRpewLAZTAIRCglDY+N5We8IqC1FSail3KOF5sCwLsEDSpg0FGXqU2w2AqUsUWYQCnDIAIAAFCKRQgKQBYQZtoCkByQEoCSnDEJa5uiz0iYcmoQcTAMyLmKSwKADpRtThAfveU70PMIBHQPDVBAEOwcCk0rsbCUVAYmFOTwpXJKw4AlQMQIWCKEpMC4ogIhAKNhVCgJEAIoTy4dlgBqgdpEEBga8cOFLCpgFAEQowqxopKGJbCBFYMCWWa4e78BzYLkABBZioUJWW5Hva7QmrKh0VZK3AQDtCCYOBEoQ2WE2ZwGTKBImAQCJFOwAFNOhFm0BKSSiVQKSEUsomHBIQgB/BomBQVAdbV5eBkhg0CT2YsnIzcKBQpZAKGQUQVIiXhv29XscTPqHcAKMCCAGCyECVIafduYBUklCKr7zCiid+mtUSF4ENQiQBVERZAEogbVABQAqioBgJIClgQtIIETEJA1NABEiAACYqkBShDUYCDgrFUYkU4QQK6eUNqwCeCdsHKBQDAZSIwBNZTC+hCmmBMinxVdkHGlFIBg/SAzhoDuC+BI8iZvJARzcBghBKgQBQUAQkBESInPzKgI5MeLKaUQxsdcm1XF08UQm9EocY2hZRoITAh4xC3/7+9XktRiSIBBQHY4giCKY4BCQBYwCoNv0JoYCQEjTx0ayemFEEA4AAhXAsBEpERHpQGcqIpErBE5JyrrVXnEcemE8IgBQFQsCUCiEFJRHAICUKSnlc1kFZRADfvPAEJmyFKosY5wRQQlqEJdHPXgRtcz3bYRZlRAkLlIdApzIbw7S0QBB4Ck4QwRdQnYQ2SQ5GFKCg/5UGKAMU4BqqApIOAIIA4NSEFN396VYeiUGT0INhoAETtgqsdheGgSwPmGLf379KQBgABY+gQmAbkRV5KBQDp860be2kgVSEfZUBu6I/R0LPwAkAABwQAapFYtqEBCUoCyBKwbcIzHrDQAiUtVSznasoqu8jDQ71lX/PIISBICKRDTAwkBQiu2UpbAu5Pt/4vqZwMa+QGlrXAdSA+lQCHDKJffYSZIhGx2bwEZUgI0gOZSDnoOQz24KCwUkEz25fglR/18khlEoqwQhACGBIUAWUq1alyPvXFWGlDSDQ7h4KGa02EafV54Mm9Ea8SBEACxbPOP7MRSefh2LFYNwNv3cRGoGvhA4UkFCmrOD1txaf+0ev6qowAoAuvn2a7IxXVwITnikR+eE9jy3e/ujI/qlpbmc5m0f9t++o+Wlh+O44/Y94611wv7WOzKvFwgsv//iWf/COpRRKEIABChyEgIKwQCc8ySrvXPSvM/9Q+u2Fy3tf79XXl1x4TTR3dhUF5vlKKZ8Aq9HGu5cTGCErtuHaO0s/PbI4ZI/Zw3aYdcCRuPUW+KWCIZdyRAbssDhz9Dic8KfGfFEL+5a1VhFUUXiiY+a8RedcyqZNIyh7XgTA0kesTu7kxKBJ6MFQzrzIxedTjeffdV7+ENNnCUTM+N5+xxASoUQEokAhIAVmLfAefTkIgribAfDVFLJKlb1JWJmYIuQog5WV6kR1IVetyJZYfYkXZ9Wn/Jr2uTMevPvTm2/ClClNqDSL6oA5Lf0Wd3DCbQglAAlIwgAFAglfKaKQISxtpxqnzssuKi7vfe05C0tPvcJDkQaDohY1KkgMmt5D/TtfzPnNhZ9c/Vf+5Re5wsKhhaWDP/pw6R8unfzz0+3Js/ooWIjgVmoWtqPqLqm1QEicik2EhAQC0T5vEXn2bXhRDWBRBQEuQUFXq0V+dfqsCT0XD1CoAlUACggBCV9EHKUsp8G9LwzZcyO1BsdjrwiICorwOj2UywjKEgFQhV9BJzwXUYAwRB5fABILgMUFCETgsKbZHLLDcBemwdFuRg2UmgasGZwyAXhCEBW2qkABeUJEiAVA3oVQgEBYdNsQAG53f00JPzK+UVU5SVOmHdW3d2L6w1H7l/asdln21OLZpc5Pcn84rnHiK5j4dCVss2mq9ckLB/ztLDh9UOWcuMJsB4siVDg6fMfPkoKhOkrEQlkN7NMAy5gPoDwHWNyBAiIXHUCIUlAs1bZmU0thtdRJHilVhG+g6jvd/W0kfF+iKkIFgRJCRFB5dAJon4OxZ3S89c6gn49yXn0dpfmqMif88M3MEX8YPnly8bB9Ec7xKryaW7epXAnMWYuBIu0g5UKIiulVq4YRUEDJEe5nxAlQD0QZwg0Ecyj1SYRO0FABCijM9tCKCL4HiPY2LOrEzAVoK8IHoqCKQKECFDGvBB/50AMiAFGoEKIil2tur0okBk1CT4BAEVA9XnV2KwUYp342+GJex3MfY799jH33Ljz2TrqtlEUOvM7OZ2yYNo3MR15IHfd7b+09qs6I9t9fiumT/FrkvJK/3enVwy/LRhQMPMLa5aCy92nTf/+nQljEOTfi5+c2hdXGQUfgypvnE8/lHl54vunMK0j9+jknzc69YOBbE2udpW2kI2KhkXIaQ9NFssL0cvxUNSKgxKhWKWVNQJ8AVoWDAKRNFFK1fY4+uDbsK2cFJaO/6ERl9JX4za3oUEtSgOpkdz1a3vywvPnTlrqdrZse5Aef3/6TURFCNNktX0xvHZEb9OU0HHVBSLYNh+2HB++J6tvhVrJHjzOP+3vfDtq+/ine2XeylJ1ty2dhWEF3fx0J3xsaUQICDgUK5SALVF94ozR/wVrnjK7/w2isNzhUigTCHFCfvuhY68qzeEfo/e0OkkZKwU9bZlP9pm9NzWw7Ghv+Sh79GzzxIEHe7Cy7Z1wsxlzetz3vrT2q5YJ/VGV5ySG/bT/hYouiLvA4AcoCIy+1R/0ZJdVhAwvmNF5wb52z58D0bu5Gu6vH7zadDu4jHcBCE3/3MfzxD2jccHGfIdWzTyBz36ukZbazu7+8/4JEFJzQE2CAzlXUua9QPhBAWUI4T7xgkipGbsoX9xHXPMCeegWjjujgqOfgkY8P35535jnZSqXN8ZsH2eKuB92PPnLuuaV/U5bNX4r+fSqcpD2AVuAIe86sNQdRz6D52qiWEFC34tQULdGEKP3qv6afeMEgl9iuG2Sd4n0POa+/k7vrj33WXlNFLogBHx0GBnTz15Tw40IBGxAhOi1W35BC24LUwH6gHCghLQYWQ9zyXGSnMGwoKZeYWT+kTNHZhj4kAnDfk/MuvDq9lDb2S+eDyvzrbho0ZVbDoMEodyDDB/fv1/rmF4u/uALTPmSNJm9rm/27y/rUGHz3vduywiIomMLOZIXBq0BaMoRAlNTW62koqstBW5CgMrKoWc6XHnouGDqkz6H7Fq1aKRVhZg0lHvFlHc0eeUjdw4/mH3/ZOuN38E1pp1o/mZ595+r2hQudsh89Nx/vvRf1MfHT3dycdAnqmQ8bmTRLGVFHy5y+qQZEfmBWuW+Xs8QoLggqAnXKDvOLT7qi36uzw7rGfOibXy50j78sNadCTz9FKFjPTpO/PLecMq2y2zwwtei2J81PltTccXVx4Lo13f39fSeJhyahB6C04S0UIwCBICJCGCIEJ/lHnvVGbd06YOCiLdZdvM+aldsfFACBKzIuwjbccrdRKtT+6ay1P3uzbsZ7mZ+PbJvbIl//pA1ua6MQTZYHCQkYHFQW+nJqmxYM+6JRuPv0EpfBh0/VnX5CuhrhnGtTAxvKt18q3FmVlrbsPVfPyfRrv24iWh1JbDDAUAa6pyNmwkrDgJ0SYIIPMJgza3LLEaOX9BtRaRzc1m8LMXzHL/tstuiya7Jr1NHthquMCVSrtdRP+63Mb/YruOFpRo2Gey/Flw/Ufny38fNdlgypjdasg+2EgV9WftNnS2rW3bLf64/WLnzRvOH8NVRj6rlZrpGtu+ni7J/HyOa63Gt/SV9wWEoAzTWAUIlDsMdBuHarUSUFwhCAX7be+djcapPIqsmFtNYlIahHqBESI/Qrph3usqmYPdvJd8KmpCIr0xba26414Ivn6xe+3vy3P5itSl0xQfFM/V9/X//nS6oOs9/4c/rcI6AQNNvon0KpUoFDKVMIlg6xWQ3JoZqaNtt6bwpO3YXOf160vlY36XG54Zb59+aWhcf8Kv5ys7fOZsYjN7uVT9jMSUPve3CA2yzG3VGj2rv3y/tvSDw0CT0AoX00QoIyEKmkShGaAuY+8Ur90mp6n93TKtWEFPbbq3Dq+NKL79fttq4Pi7UUl7z2Ht9uQ3fvvVLpAVGI1HVXphZ2oGFQBhGkxRa0NQh4KQCWXUHWN9sKbo1n0lz/Yk19VCYmydlWSn08yV80d+BFx2HfnxaBdCVwdthooz3mzr/vtYZCR0dz30ZIL/Kare9XzS+h19DY6kY50WdIn8zxPy8ft2+mZkjfgC3I8P6lKlUm4JkfLcAnCwZcdDwOOKATlPeRtacNdF//tHXWQnCLgNr5MtatT130a6R9H072wF8Ur/p7bkkbg8WUFTlm05xqoc60HMfuEG31SBtQQKq7P3jC90IRCgAKUCpCJAmD74et7bShBiCoAEAEBCA5w0ZIigGMQX3ghaiEqA0jogZvuSkuO7Hi1FYp6CG7N7zzRc29b6svFpXWH+4b9V5VsTWGFBlvKtH6xQH6KWGl60ILgBOGJO+m6wJEPig1wKpT54o7Hqpbcy1svk7muesRMJ+ZmPpZ54fP1d18ETZbx2IpQGLPjfHBJsY/X8bcORjS0K3f33eTGDQJPQbGCIiMoChRJCJwo4H/vC1qnxIeenqh7Xzbtg2nxc4XrEcfiLa+zLQNdKYjV/bZZl00NSIPnhFhmA4GpiOgJmRVw/AbHSus2oFZsEzbgGHajWa9sAhzYc6LQOpQagWsWcUFw5fk3XP+Gpzzj6DSmUtXBU+zimMXCvAWRcgQmbGsFDx8zwLFCT2MEF7IUpaMloSifth6zf+8FJtsCcrzn7/inXR940ZDi8cfUM0OT8mMCjGQIko7tCwbwfDlkgJTNfttnw94XQGRRXlTP7v/cCz0WmAYQA1JFeqpnVaWUOlAwYjMTKAWTS8XWuqtZhYZwrBqFnqooaihIaQNRqqJRdPToMoEQQBhKkYsBgaJUnNuoC8AEaXBFVKADVqFsDk3CTAnH1hZ2KlARIEhMj/d0Eun0i7STLaYHHutK+5+ns+ek1tvYCsVTVYznxfk+gF2LpNKwxMkbQUuEJbdGjNVDWEycMtYbwQ5at/y7a/WfDzOn1cpDVo39ev92H57kg3Wri6eYzCJUy5ecOxZDVatE4kF/VDfQlk+1xladd39/X0nScgpoUegCEAIEUCAkIIiUP4HX8gXn1uwdm5xS2tjhmSMIN9ZnDXIxL13R26VKIBxHgakUA0hkUEnrxiAVXBrKogqhXbbLzYxj4YgvEah0wxa/BZIr0rgOYBt+l6nX+uUSMQsC9SmRdS0q0aWKhthodPz/cBfdy1EoRn5AKiCSAQNvR0JeAAzUOcL2l5F48AqdyrKIBtt3/e0E8Rz03LH3d23qEIKxgGJpQYrIBKIQKMoK8qlhUYUIgtuAEKKqAVp2SxQ5xIYTs3gIVagfCHbHeJbNGpZRDo70zXpdhs+obNNgWwGlHoMaRCik8ATehZE2QqQEIRJMDMiyNY4O2+Fz6egpSUyZMFECjADVQWRgB2V8cyb1XWHo76ZWablVYJ8SSIFI5JKNYEj7xdogEE5yFBR4QUutZhFAS6XpF23sigkCFNgNZkaCeWGXrmKNtGOtLz6dHbPuPKBO7iDBrElS90/3NQx5hJz4YIiiWRA0OZaAwcsSpsVXw5cRFNVs61vui7fA+oEJAZNQs9AKRXJUOhaMAooujPfnWQM2374SxMHh4sq7W91tr3cx5s3+OFH82rg0pcfB4E3QHIzwqQZUMRlqAsxw1Q8J0EUr+V1+RL91xSbmWVboSTqOvJy0QJX5X1AhQDxig2ANyAb1PfL9luQY+rJy7HkbdI21Z6/tLM6w8p/NvCjZ8TGW9i8KaBApSKo391fUsKPi1VNcQWpwlRKStEKLDXhpyPUhMQ7eGtr1HZ4aqK6++FWeB1WBOb3K7Aa6riQyEpmuNGML9IsKNohWFTEoimFaWAlkACMlSmdZwphcpgZE+ChkWkeAIa8iBpc2EUMVdmyTYoqsivIAlBKZLr760j4nggoXT1IgQOUCyCdbdhx69lvvSPe/ND2fakUF4BiDjh30frwwws+/6Lfz/eqUpQRpaUlPpsLAITnLUa8FD7PlwUPhw1AZDZXcr4TkcgHR0UWs17Fq7YW4KeLKAL4eOkSQ7QNrIWZjQA7ytZsv0vNX+9smPxu6rXx6VP2Lcychjc/7VvXj6TTeOjmpqnvDpz/ufRn+8XJ8N8wFt+JDRq79cv7r0gMmoQegA9CBOGu6YJ+CVWkZbTOYNdcHZ1wAHK1RdhpN1NXbPCJnR40PP+Lnb1/PAbRYdQPTO12WusbLeZfr3bIl0UjGvHA9QuyGxf+cgnC1nDwpubHBTz1Txtvofqvzisv6etaS5v7ELQ7CFskmkQu8haWTViDN0qN3GHheZeoz+8OjHZJ7OFtb7YcfHiw/1j25VIJagYcluPD6O7vKeHHRaXgiLIgFagas9RcyTVyAAZCZduiCeecPHvvoUsu/P3AN54soSqrVmhXOmrqApDyXhum+q7pXz+hffJzuXwhMluyp1y53nt50L7loFAxiRn1ccpWGR2AzAjFWNEPHBlZdawKB6Cld9aoZCZ9kaPz5qQLBTAws6S87v4+Er4fHAwccGDBMAFYALdwwqlDt91m+qmX4JRz6mZ/kmezl1qL0rOmy4uvazphXL/h29Jjjw+YqkE7Qrf60Yep884HXViPhbjzziVX3tuwx3ad2XLFaoG3JHJSWJqfbyEd1Ypo87p/+c33PFvJtdctfb/44OW5cnu/pQq5cual15b02Qa3ndGJSiXj4ycbB4M38Hg9BmaxSX+xyabVi+/A088ozMligfX+5x2/uHzRr67Dkh4QUE80NAk9AAkoCWIhK7EmtVKFcnDPs2tYDXzbzaRp+JAwAIoIxMqkB+2+gzrtaTz6HPv5Pqm9h7uf2/krb5K/v7k+as6nAmfgkPRPNvWNDN33J+6kGfTom1mWfiqw2a92UtmG/iXbrORgM3vgILTK9C67Vy84CSedVL/vgWTczGDfP0XhH9N2n4Vuq7neOuTkncSIPhXANmFIaiJKdgi9G1/AZjYQIR8xnlIdLupYpMANCIGSofoesj8+Wxzc9NIa6++CDKzOciHrNhfr4NSJQw7A1X/lO51aJDxX4IV1s64R5dorGZaBrJbK05uQQ2gpiogRJs2qr+qUY8L0Baw+gxrnCXXcjeTU/JCxx8IiEKgFT9K2ewnjflV7e2bxgy/3/fvTtbbp54wiQxB6hU2HDL/0N/Mz6SECCNiiGkcNWX/JO1PCQT9FSWRUztpwrZojfi4wTEZ8cb8NByxagkP+UHvCofj9wfS87Qsnv5874tTgjIGyTNh+a6XWGF6CWQMju9WmwQbr4rpX685/BJWwAOYMGTZ0q40wZGhAG2tPPXnOCaPtE3+fcSNUICkL1hk44OQDMLQHFD5i48aN6+5zSEj4DkyASAVKKsVq2uSYvXDqxDf6rzEYJ/7Co2YAYlNGGEJCTEZpv4b2CU9WGmvTP9kg2HSwuWlfR8rCtMVUWbmDDkydexjZaStGHXvdddJ22ps8v2Nx5zrHHI3j9pk2Y4Zf17dm253CLCv2S0WFgnjrqcUD+mV32Z1tur6z4drcjtzZM8y2BTUjf5E+4yh5yMiApmpcxQkBkVxEoMkOoTdDBQilblQpTJ+DJeXWfTarbRxAgQqFLVFldm69IZVJs778YGp2nXVKA/uV33yppbapecOtyw1G+JN1UwPr2fQOewlpbUw3XHKUyU1hOOaovRAEi596mdab1r4HEWowIAq9L5+Z6NekyUG720aGNqTMVm/p1PkFx67d5adB1gYEZRFIMt56A5V+jfVbb5Gtb5J5F4VS3s+Ljfo2nbR39qZLWW64BHyTuqRTPvZeZq310mMOz33xhams3E+2dE4/GPvuFMI0Q6B5gDXvnY5ZHYGZNvbbIly/udYk3hdLqh1u/a9HmZcc/eEzrwyqX5PvshtMnjp459nFRdHHn1HuhH2bM8f+nJ85CoMHB8Iyhq1Ru80AVa26c1sUo3LrtevGHpw+ZGQrU2ms6pVoSNI6OKEHUBVgNLJICJiQTPjItyNllZw6CmKBEYAqgEACAXwHZVni1KlRHESVEbpQomjV5EregmyqDizd6aPOQRSi7CMt/bKI6qx0qQwrCyPtV1FIi+awA0Ykihaz68EQkopBfUACJopBZy7rw2hyBVMGHERE8kiAJ1GnXk0JKoslCJsRsC/a29bvVweDVdGZknWd0rOZ75CaahlFF421ndyo8zvg80ouJ6JSruCixqrymlQnvJqyHeQrOxwrhvapPHCRjcF1JYYs6URkK251CNJASFsrGGmtq8tWjFI6agpCBD4cXmIZqZAhEHDNpDh1ryACdKfSlPJpFEG6igcuIynV5Ate4misAkYRvicMzlQ9WBnVKtJpcOqB56NqHc9YihTJUrvKmaitZI0qKjn4KcUgbQm1kEWDwghlU9WmAgKJwECZhzlwwA982+wAbYLiBa9ak06hrBuPAVC+IFbGh+GD5rr7i/pOEgM/oSdAGDjEV2kmEgxRQ0MZUQokGxEOgAIKkGAMPqVOtYbaHASeREQzzMw4QK4EN2vWgqUjIMU9KQNKjFqnAxiQMyp+iWUbloKmFRolmn0GVqOU6WfgUYRAGsyIcpC81URdKuKKGIrAMjyKDgQmZCNP7qbejokgUKEpOmE2rtVP6ggjA1Vl2DmbouTJaspmKVYSXhZGZNWGXOQR9Zs8q/CrP2Q3WdO87uRi86A0/NZ7Hls67csNRh+YE/XoZMgSv4goJyjhNMsUoBprRBSEiKyUYUtelWGQoT54BsgKQIKyACwxaHoDXIAoKIaQWD63KEnr5i4egV2AxYEcWglvolnKnDxgIlOpyZhAjVC279alGOACUa5U72etCMhVkOs0Ue9IhxIJ10AD/KUGzdalKCAqSMMUTho+bzNQa3MrgMUCxijSvIxiqpoTKRSBCDJnUSOCDGA5ukr7Kk3ioUnoCQi4kUctmyppSAIoF2HIjBQoDxVAvjJoFAAVGMSUoW5HgAgw0AnPsWxbIGLgPhCpIEUoARcAQUF6NUUbKaFsRiRQkTAoOCCEa4UigEVtIwR8QAEZtcCQA10GrvtJQSgpwoibRqikRVh3f1MJPyYSkJAQlEpEBJSAMiHBaBnISEAABgFUCMUQUtghFKuoMO3L1mPOzLwwkfDOjqzff4HV4pj+dj/pc/2F5qB1UKKddaBwa6pmlGIMIAJQCqGEQjXFUlWAKbAAlIUB4wYRSjLuk8RD0ysIIM2IwpMgVMsBIQEXfg0sASkBDo9IC2CCIoCgnpRghkE5+2reU0AQweYBQTkSNZwxBRBEQAg4ARCgkkHaB0IgBYSILPCo6nNilRVcoJEXCMkACiRU3FKgCoAEhYjAJAXpAa02EoMmoQcQAUIJkzD4PqEWgMgNeMaEAogSKmIUICQEqKJMURDXi0JupADuA1UogiAHKmEQgAEKgoKwEFAqMJkZwedQUWj7DFR2OKGCkQMzUIDigA3CPcCFYAhtRAwZAZiQqIagBigFhaqGJJeEnHozSpsaQoJKMIWQgVOPwhKFCOlAcYPDkAEpVWHWggGRC8eqdnaY9WmvuhT/eFj+5U57yeJq/741B+9HjjuisOY6FqgdwKcFiylUM6V0aMC0I6YISAQI5FOyRlJCJCIXofJ5OjAJAKqqaZJU1usN+FHJ4iYklUR6hAQQKcVNyRSjZSgHhAtAwedQVdcmTtXxHRASqYBbErAAEgEKBeLVMBNKgCKCUkJyZgaAFVCEqKZlBbJJ8IChCNUYkHazU4LVgzHBfcYCcMsTJmctHDaEjQhAFYKA1cBABUiv6kkPiUGT0AOoQlkgDBJSgTBFIIBQwglkZMNDaEABJAA1wOxAFU1FQy/DM27Jd0wLACTAJQJayIAizCpEBFxIBFQ5TAoiGHEhM5BViE6Eg2CRsgEbikeAIooIwnUpYFYB0rKKyAThYRQYRitkA0y7BGS7+5tK+HGRMggpI0VGOyHXAAVoBPhw03AQ0TwXAYIGgAS8YBp1LnwHFGUj8sDtCClepRAopAo1Ko0yhU0rtjJATAFQgIStEHXgPORtBkwg5yNv+TlluSSsophDhkYWo6AAoghmEuXsFSgoAqktZkgKSaDXZRJB8YiCMgSoWOBEurJk0xoDYB4QATaqXAbwa8ERGCISzCGIhKJMMooITGGREfUXHAKLTdHseSyylmR4E8A6AQfCgqsdjAFAEVowqroVMKBCpSSxLF0AbNUfbau6wZXQKwmAPACFQPlACBUtQhURoqLoxGKIUhsAz4dyCwo+kAoIi6AULVNWAEIBHsIRKNtSwM8o+LAjZTlgFPBMxiAyhoDvVnMWIsB0YVXyZlDMgAPZYgRZ4V4egYXIWID2TuaF5XyNpB3gHqzBJYt4pJhxA6qI4hJGlfAISEdgAcAkIpryzABGiXMzoH1g5gGVBRR8AC4KgGqHgAv4oQ+0oRWAKzsQykhAAm3QrVsSVgIRymHgFQBIhFFHJ9pDkYcCgvwSoBWAAsoKAksRQhaVAFyUEHqAB/iQqABVIKDEtErMJOBrKBMej0CLoGnFKigrH7UF1oCwACjDqCsp33ELiBQsRNlWpDtBweTCLHKMQ3BVSyEXWwg8AALwEMBoqtrc5/BQBXIuQEITskCAyGjyGizXMgLQQEJGMNCpJETVR3sblsL10C6hkEcItwoXCwAU/CJCVDAZKCPsAGQFcAHfhxe6EeZDt65P+EEEKEGFACoSeT+C7IAPKaGqBUAptQCFAkIUJTy0I3I9eMBSCKgOyPYKpABEiIiE7ZAFSB6AtUcheASCABG4B6NCGSRCAAQKtFbato9FQIctwSR8AKEJGiHoNF0GFxKeYRDQdqCTV2EUG1ESQOX/2HvP+DqK8/37mu2nq0vuxhgDNr2XUEOvgQBJCBACofwoIXSMjcF0SAgdQiCNGkrondDBhG6KKcbGXV1HOuds3525nxeDz6PQ/uDYyJL3+8Kfo9X6aHZ3duaae+5iIA+u6AFSWkMMhUC1LsyAh47FQCogCIAeAnpEihPonmtEXCNwqBwiAFxUIGK/GyLmhF4gjFAGQkShQAwgDABhe4ADiuAiQgxwBEAIB3BAAisy+jux0CQMAK5XSquWb/iWAOeRrVsFrsKNkM2DLUKX2t04vKFiI3RK9c0aEAMFDl7x1IIG5oF8sKgXVBuMhOcKXVFSFnzEhnA1JR/CMygVE2Kly0JjiIoBgh/CaOhCb6PiIBjZ3tbVUqeJvKYgJ8oIIlAaMUPOCkNhaEBQhqVAycJXEAIMdhYugwlkIETEVJ0FEGkIVAiqHoBMgzkaMtyDQ2E+HcPpRE8euTq/FsIL0jCdcpzRNFtD1poHfRiUQZCpakggeKRwvZNTXYppcRBoUYi0KRSjx40b0wxQOQSgcCAGlKBkmRaKJjhCA4oKzYuEEir1GQ4/CDRD10hBAIQClvKFY4EWxGSGDDoqug3ouW4TDUKgR6CgQQcCBAZMBjhwDDeDNDQg7kFbGWNW80AO4gZ0dEMtwxwbs4qWLvgqLK0NNCzi0FGGUgaLwAwgDZgAAZkAYDY3TEB3ARMwKlEl15lz6yLhhVlkIoXrNTZQ6PCC5pKJgucHwooZmIl6NQCKJQxb2cNxV064QKDAjISrKwSRCcKIcUuYZHChmKoNGAjC0IQBE9CBoBdxNsjopgOoKFooOBU1w+FmABXEw4yuAFoET4kclTV0hygwR1ciiBpS4HNKiR6gIcgCAENsgIJQFwY4KAVmB8ibPoPj+fWGBQ54EVKAAXC9KBDrcRq9Wa6DK9C8PqWQhaoJFWypaYMhBuKYLGKIASZgoCKCIAjqMzUxuO97OUpD88BJqL5CVmzoADRuuirSXh+0oFuvqXHctowYhSy4CYZQgQpPhQClwJUVZ+pJLDQJA4CZKlBgqFSAW1CjhnyYpVKqnMvDprlnXlO8/q66Xnvhhdd2XXdnwaV00S6UPCiIa0yXqWWkXFYDNNf6DVBQrEn7GQu9XpgG05R8CBgixRkUxbMQAHCR46BY5BFVGr3a7mLtP5/g6xypR0GtgA+Cr5JZPz+dKuV1RLGhCwgGs6ZbyccIuqzo07zblouyhKYQBS6iwFV0HseO3toGjyPLfDVS06yowUGfd/d97oYH9bD11Y1/PfbRl+pCAaCYLpaPmdY+cv9iy/7lPY7jV/6tDn2Waw/wY1hlUDwdNvIac0FgZEaaAcWIgfq01umVKHBUKAKRGjtpRJZZ4KICMwyygVEItGzsZ0uKleHCAYm06WlKSQ+ibBDmK3HasbVyrKEXrJ1D86ALVskq7SYagIih1KiBIIrwLZgE2BE02zXS3ICnBMHiz9848JjgjZkpjwRClEeYGGaKtOLXFmITTLM7eoaFzNEdH74FbwTi1UiMCFHrIO1AAN0mdRlZDl3tQRjDRlReMlP/ydTFDTvP2eTXmT/eBTgqvLRf6nnlcd/cyq/dpbjez1J//Hu6t1eNea8bLEjUzLKiMmiCVCfOxUKEdtmIew2tjXczR3EQlbIoGzBNA0C75gExDAuZ2BR+lPJiK84hRCYDnp+TDvw0R0Z3Ix4CUJAiPQ+tXABXU5nIrPFSsA3oaSay9UEWgnsmKobQ4khXWZBCVxaMo1wwO5mwXFHPjFbVW+i3w9R7PmlfMnJnvPx5HUeTo2XdhkCtaWN5QnMKqkYMkQJXhDEvM9EN30VgqswJOVkgU3EDnlK0hkyKi5LuecIyyiml8tHsYK8jWWGb9gm72TfdrfWWSY1L8Hr/ctuS9X5eMTfXRuw18qor0dkDCA6oAKAACmjFio5E0CQMAKqL1hxzGRZm/VIazCfKgwHIULPPjXJJqVVqVFIrfTBjUWchq1SYCxGmXeTLetrT4WsILGhurrtkQyDnGbwPQV9sOEAP1CiMKIrQiBiWR2qc15jh9+WCdjSk9BzUnvYaPQsfWYQ8TU5QHIugEJPtlsoKyjrnatDAXS30Gslbk9RhDkM5gghJ5SlT12wBzdSGNwSpqJU5lik0N86Dav/9dHzWjfo9Jw/zXzaf+UP3Hc93vv4aYtTdeJ82r7Xlxasa5tySPXO/4Lr7C5/Nd9NJ6vofChW9Gd/SI40XofqIIzOMCUAE1MVZ5mQqnY5uO2op49mLQYiUBp4qm2SWYLqoWFqDSJGj6CpLE3K+KHQ7ehQbGic4GrxOlGsjf6SCIAWIYi7sa0GEuE/1Kxb6QhNhPazYg90T5kLX6mkMA7VcTiGIPGfsJ4tNocJTslAoy9QYw5kFDU7gcBNGc31vUM7EuhUrUSgqFLlMBDpHGjCQ60ND0W+MuREDtVA01H3wntjy1+1H7TSy/OTaH9wBN1x06/0xAv3jz9pOuqzwwAVW1+3Z20/57P5n8MCMWKNMrTmqkmw5LSs+NMbKRgRP1IgUMbUQO8NYjrRSGk7BL2eAThbDsjlzUS564AgqUCqhEroIA1TUIICvjHeF5bseIlNX0wQw8FAYEXI6XEUsYF4lhSAX+1pc8SMG9KWKCvoc2CHrId5uxuUcAA8WHAMezAhRdwrl0XmVmzalFDf+ELXtZMXQopj3+kCdDubD5AEYoBFUxdBVC6IhCvPFimOXMhk1YOhiKKX0iqKDVK2i2BY3wfJvzS7uNzU4bU+497fMuTXVVQ7uf8SFX/f2rMoV94444/DVgkfx9PmLL78znvkRREQKVMIXwRiCeCJoEoYa6Y4RrR8WfjV5dGEnT1u7Y4Pti3+8LFf5NGA8K5jGIyA2KFR8nyi0EfmqmSvHpssx75OOS6cv3GLn9trxWHOj+LLr9XTUWGqtrPez4Kgp7YdN7x51YLTmgXj4ccMIYz0yZ7zk/XryImu3YJ2jccqVi9b+ueNVFufC8tiUAyXIIvXae/N/+/u+SRsFjZvHJ1ycSls9ENmeecpJpyO/lqj5xYJDLyq/+T5UQkr0WeQCKPvIGA7UAIobOsNB+Pfr7594tvbGe/qjL2s7TsKaaxTNPGpG1+y9i/7yx2AO5i2s3WR9rDlRyY5UdtjS7fOj1+fQyh8EOVToTnm1po8zr0k3/+Kz2l1n//hIPPCkaxR906tscijb9+TgVxe3j9nP3ulI3P3kCIRQEH36bu7wEzFhk3D0BvnjT0aplechgMWd3WQBDRk4Tu81980ZfZCl/iTXuD8OOhuffOx6rQsvu6Z00KniwCnlEfsW1znc+8tfeLAYiND6vnP676Oag6zG/csnnffpFruGM17PGlYuCpBRkEPc0eVfcE4wfGOW36L36OMzblcZRQJqM/kwTgPpDHL5MJ2ONJPUmPGy4lTYkqCOu1oI30MEI+rBx+/XRJUx2+0JJQtbw/abNl/9ghZx8cGn60wc3b3H7u3aiMLETXL1I7CkV3NhuPBySWjesmJBISxKp4IcISzXxTx93r3/2fzgRWN+uWCTn+GxF3lcatKiRSN3HHHU+cFhF/SM3Z1vehi/f0bGKWQorX28CL86c+Eme84buWc87a+pRV064qJjg4C00qMjxAL93IvHjDogp27cW78OO/SI3JL3O83emmPPwwGnawdPUZp+7q7+c/z+5gDlcgFGb1vx/y78oG4nTDoivesJszc7wP3PjAY7yGeycJ0ItvA+E1dfU6jfSmnYZP6ZPxezPweCskqOThAweiri+Q/6LvlrdkkbKr0W95rieJiH2grcUOss5LKiYMD32t8f096X32l35jYhqjG32CT824NWudOcuZBvuCb23wVRAetu2PzjvfpeexuxFwPg+CLLBSFekQ8kETQJA0AZLL7gob6ebiy8QY0fbD73iNoz/4rHXjVJpyi2OIHHoq+UZyojrQDT8vy2fBoW67758XCJM/rpa5q9FzpvO7N8yQ30xMuioIfzZzuffVI/+Wctb92k77dF94nnxNSnz/kUh1+a2np8xrvD+fMRpX/8q65Yzui5cUUo3V0Zgtnr+H+4afWQj5zzTvz2bY6lOGf+cTW/y33szQWfBZj/Wujemsmm9N8/gvbOxaZeE7BM0evMZxCJuii2Km76yXc/P3h6fMOj6+21c9dmo1GKSmOadL0gABGIkkH2ozOg+L1PvR5tvHqHmQ6RCtM1tRutG3aVTZG4r/1A2LBp+i0fP/UY/j1l/OI7Juy7h3v61Z+//6TlOvzjWS4vmVMPWf39W2ontuCkS0RU4nxB+aKbzPoxzqKHOz6+M6K0c941DF3WwqihuWEmSgBwz6uz73127Qf/KPi/+Gundr39Mv/Tvc2WOdyOjOc+UPbcMt/xj4aTfpq97I7gnfes2KZjL42HmfzTm5SXfk/F9rEL24xCTVwKzZq0D593wbr14crc7trFt5e6bnBWr7X3PKt2gcMQozdWrYXwP8NtNyzefsfW2lFh7WhqGMOax7Vt+lvjpkfSfSWkFaiCq9yv0Ut5MCvjK0Degqa1fj4Pn8+35y7A+iMb/Lo8NJ6tH77+xl0ffYY0d42YIRro5zNY6WQEG02gMoCU5dzwYNvDz29x/m9HL/zX6r/aq/X4qcYr73O4jT1d7Us+0aYcOGzeQ+qW66q/ugLk9MQl63d/tLeod9+/crXnz+e6t+iiG7TeEstaXIUakgmYt702+/mZuPF34P9qefHytqdfxK3Pm76HRm4//1rDTltoH91iXXdkxz/uKzz1St7vw68vzmhi3dm34/HpvcOt0XM7cjrFvLuu22grpAxKKZe/2Nlm9753g77gqRZ1QsdpV+LjhWlEqsrAgNpaZZNJ+c0mlc649rPfTncefQphLwwPKaQFmjy4LhSuRaETm9QVuXG6tpzKhVk199oHihK6ny5oXH0NFHKdenZxqs5YZ+P4o7mgOIJMZyOTBYpE0CQMNXw0aVecXXP/jWFhrIMabLXOwomjQFY5jp2xTV05JigQw2rKdaYfhy4UWFqT4wFWw+9PGXXDRaidyIKR6bV2rGNayWAO9Lp0Djtv7GywLhpH9O66oVfq0uaUc68vKUWV6KcbRKy+fu2tzLN/2ddkdHCfB3ZscHDg6dfbX3kO5x4E1M0fPaGw7sTs3U9j1gfBnAUj3JquuhYLSua6o1P3nonhzSNDhKZBdfmmUKsYXbjhn60Tftr790fGHXeQ9tdTsd+2aaSx7x4td8xC24I07+LzX68/6+Zsey8xlv18gW4oMtGmXvZUU82omrbSp90cMoztDdwZH9Yeuy/Wm2hnhuF3+9qr16/76JwwnaqB6a0/vnOjtZ3CiMx2W9gIRGtZfeyl9OPv4tgDMu7wUebE4Nd7+Xc9r779gT9aj0N/QxQABUfvvP7z14UbjQ1h1Ywf27DWGFU3UVK07rh7kzVx8I8/RQ0O3b2nrydd8jCr237vY2vbTTqbR7atvUHhZzvHnCNX0JAvRmUrDdXuUq64uumIY8CHF4wRI084/O0Fs/GfDw23Mr8eajAa1hr49XENTz/WUvrcKM3Vuz/LdX++xid3smP2QU0OISEEKXXWmImLjRo89jh4R3vnB5Wbb69RCQpn3RX0AirSJQgEGJ7xSj0I4nSkplfoDDOk0cAQxY0VloZAn1d+6KVhv9gh3G+dspXFMXt7G4/pfPV9lWCl0sp6E7o23bJTqWs9fic4rZg7y3j2ccz7ILvfFmt548rrN5qr1cVvvoe5SzREHkIwykaidOgv13v4Puy582zUYsLa9ZtvBqGr1nC31GesPQGH/6S7eQTWW6dYLINEuKi186XXmvfbtae5Geusmf/5Hp0Rh5lh+WzgxsMyo/HSx+8+9PjIHbbLj1xTpOuts09VH38RH83WEDMuEMBXUK7LxPttlX/4slG7bKPc+u+OvX8b/uOfgB2m4KtAGq5q5iesU2S88dk3VCyxRLd33UMlM2BdxXSfr+u6ADVxNpIEt6jQ50CDzM8HAGDggq/YJ5KQ8IPTxMHTTH14Ruecd0dl1dJpNxRMwOjNC621uzdPmhIbUXtRS2ctysADuNaezSmIh/VV8MbbHUtmN8/vMv78eI8p6stWQPpiUx01aX2EGTgIc42jlLznVTpYNGLkKH3Y6BAaNM3eaO2WaSVVLSDgNVzt1GIn6GruKbVt/Ith9jyruR5L6m3Vyjc21O+/duVvJ6UbruY/PtH6+Q7YYyukTAiFAz5gGtCu/8e7f7p3w3OPwrF79ECpQR1iPROj9yfbMaeY2/DIkigPO2BTfvL6+qlPB1ZOMUN4fpZED1OGZQyUiwjLRRbVDfSDWFWIA2/GnJaTfhHD0pAum2bTrtvOfeOJ1WOzmEs3rru+6mYiAV5Tq2pZtci7OqjWc/xt9ighYpqqRNzk9VBbrBBQLEQ+V6GSrn84L3j9k3SPH774hPHK/HlbbtOYVVINw2qiApAfG3g+D+oqKkUq5i7qjcLRE9dtDpDz6rDmGkqgeaUoRTk/qxZ5t99VGu4tKv9kryDNMkxxFW0rx0DGj3SMgeaaUECIhZVLgcA5OUGcTme0CLFp9iHOWpoVwIKCNSZOuuri8qXnl4/xR26xUXjoeuqjr5Lr5ZTUZ8P8NeDZBXURKmt3Lx4NtcN0fKTGBMk8sIwUAKdOybiiC3aG4tKHc4dN/nmMMOegPZNbffvtvFc7YOsLLDFm++3h6EgB87sXj6wdiZpie5z6bGG09W/CymjG2pFprvQVwZBDVAJCnYFEAYIWL+l4+f0JbheeelB/4x13zNgsvDBXkx5b5yuZLoQNmTEt5RS63C6ztV5NY9KECqz6COmmCS1RAY7Zq7O43mAdH2c0Y/VF7+M3R5aOYQbSUQbqqEJg2i64qTIEsGKEGpFmeaSnf7Eb9tui79qb3vjHbT/ihnHwAZ0ZsykGOeSssx7uPRWn/pEdsDjceavCzw/Cs4VPy23DG4zcwiK8qDXlZRGbojfFVKhMQG45AQD4irVLJxaahAGgTRXqSWfh4JMDpaD6zeaMsyPFLSkjYGJ4XNTsGLwQ5qOcy0CKk3I4QwPiJupx/ng1/9W0TMxhNigPXeMoMXSFER/lmTbjrgZYqC0rYWinCpSd3x62rIaSKMBDKsrEjd0tJiIF1sj5lhYhVdOL9Hqb1i56zin3tsz6qOS+IyqvYvgmzgZ7G4vm+H9/TB3X0nXSuXy7/THvg15VqATy4cDTjj9jrd9NnXvZPdjnnPonXlLREWg2dDKDXM3Bh4v210XpU/cvf6f547V997bidnfkhDhfJ5gyrCtEjHJNDryljjcM9HNYVYgNhSkajIwaEkUEKAhoODIgCqgrNAtxGnEWQaBHostQDbPgV1rGWnM+NNoXNX2w0OhYova8H24wEWp5iQaKLJVZ9Pfbgl8c43z0CpQwPv13tMPo+sWdWWit6dZcNocQFVOx/EpfAze4F9YJk9lQ24smYH5eNrVUlkjp7a0hz43qeml4H+vNDdc/mplpXdSz4OP6RXP13o+xx34Kq2Ux0uiynE7r9jtmbfTjzwsTRNN62eEbUGH1tuYNtfsebuC+AEGB6SNWUuWf7J5/5aVs+3v+/Tcb+toLlSwbOYrqCzlVi9VUNjLWDnMIRnZFhWbK1YDBNQf6+Qw1mIUsLBiFD+kz5IrDRAHtBBOIAGTglGAFLa6g9dbRFr+W7ny1tu2zeMmM1ZxPyhuv5yOfQsrguuGYbU/f6v1ov5YPP6gA5Qt/pW65pmoQSqpRjtCQL4HWrmhBulxrMMQ2FTSlUoTRNxY24mLQwCIm0ODX+0uyXjGjjgAfNteowYePF9o6sovn1c75LLfwOXWvfbVYJzA3jYD8PCKdl9NsAe55IPrJ9LoXypv/5mQc8pM4Yzb5AANLq5lIb9rhIHfma+3+vOyDdxczLX2VcM26nXPusGKT15myc0jl3VxJyy3IpmALHSHSYBEq0JyMWYhXoBN6ImgSBoBhS9zWR9/Gxb8Z87vDu367j7XAakqNKNj5IgOyNW5NCpogzeKmEqbAwPwMzM5KHER05wz1gkO1o/b0zz5I0zOZIEJYNhQRlHoyIuYKwhRY7Lqp8eiqNEzMVx77N1iTiVRJiVOvvtzUbcMSodqXUzDCL9WObV5cXGIt7FLBMmG64Co1kQoOFH0Eon737YqXH970wCXzPl+ExZ2ynA6zUOcSCbBj9lj9k9tw3H6tf32u+Murg7ueJ5WnzAhBSVfcJnSnvV5ud1vrjO7WULPh+MpTr5QQ8MbIDRfaM9+jMdoi1R3o57CqoLmifrtJbW++wtQo0oOcVyy//k5qvbWheDkmAj3UwsjkUZQSGeIQZVIRNlpx2ychepF38gjS7UXDjaCqjZWIcfg8mrdocbzbRumrT/LP2i89cYRX6VMLKrRAKfYhpUFBA7eh6kGv7xqm0TDBxzC8YWVCwBiXev1TmLrJ1NrOoCnfVKpVsMGaemfcPvOVtNc1CjFzHZQ6AiUKtBgiWox6J9OMww6b9PxD4zre09tfVYozWOnNur5n3QN+HDMzHTKocCxweHm7HU6XjsCKbd7Tlt92AjI6a6jJPf5eWfHbdTtSi6G7uHGniSHzYl5CTgz08xmslIBMUUAojciCaYV1Vsebn2kwelVk4wpufWLTrbYVoRdpZNfGpEVlE2jU0mBeuUcMz1qtjvXim70moNkVFFU4eSewOl3V80oq3CyG/e3T9Mm/xHUn5I7+pTl+bdtWTDdTKRgdloqQ14OBB46llRUglcvV17GGGv5W5XNkodWZL3zCNc8JdOZtlDKNUj6opIO1Gxvw77ciI2hLAWrR6PQ1wbKaaZWidARTN+CHxRkfzd92cnHGbPW3PzXvPJ0fulM5ZcQA1wk8DFgc6xGiSjoqt8BF18K828kO2LGvLhYT8/YHnzSVewJ4sLz6js9qJ46HqQt8UW3qC+fzFbnVngiahAHAHRFXmkP0trq0pKZjDn/lhc4Fn0T1pTqBuK3ChQbFyPgp4QuDIR3omRhuU8HUUzqzsEhoSCnzOoI/PpStqYljB4h41mSqwRD6iHQm0lFnJa9g00n6BiNx65/1ng8Kiz+u3PYwKQwsUATibhsg/GicmDCq7exrLW8xZdvtcy4q7XIU3n8t/tvfo6PPjmlOncPwebs/sgVNzSNIUXuRjQBLNWKhg5XMLHbbcfifLqo7bN/W+YvZy5+xW56dOf4nmPNRH2z8+5W3nn0a+2zRIDLYZuP0x0tGfPyR2tGtPvFqut5kG49pRFLJ8gdiwbAabLB6dMezeG9WAX3snzPo846ZB60NNWaqLpgAYgWx0MFVNWRh4We75/rCyh/ubhY2or7i8Rd2HDnNj9s4FCOtg8GKWUHPU5Hrn3daFfbx327vmzXfCGKISFMNl5craZCKRQVrpNOcdnVa3Rqz/+a47+66jk5UPire8aTPQ1uJoJp98/sM38KIluxxh6x28i1Y8nGs9eGaf3QefG7fjFdd+KCwOVDSPhAAqSyMVKDnu1h9L+oink0howkdCrqEm4ZnvvzunK2OxHOvZ+y+8INPOme+r/94Xd+ysM0k/4PWmhdfaeE9+ox3O594DpZpgNeoWtkpDvTzGazEIOhaV45cKKhJ5ffdtu2u540HPqwtt4XPPt/XtggTRypGTSWInIIWczstShW7mzIZo6bg77KeGFET3/7MsNZ2KGXj6Mv1vc7CJ7PcplhNoRD6FUQ94wivvY6gndgS/4p/1M6aszDXFaCnLttkQ5RBYVYpkMVcgtDZmLH6pPV7//XAOGcxFs4K7ntcN1JODb3fMq/H9rPNtbmNVje2WMO+7SFr7kfDvO742Vc+3foEPPoOI/CCHujw4lA8/1HDP94e+9fLstOP69tja6fQYEVa3mFWJGKVcSOagw7tk88+W/0A3Pykiw4SrdqN95YP2cXI5JVxo1OzO/HoGw0o4u0ZrTfekt9qY+ga/6KMg9zYJCgrUHUke6cJA8ASOGtOPRZ7XpS/5h0q9gb3Hsx22VK89il2QnnUcNfIU5/dm87lTbUmIpCKELYWG6oVXXOsefA1sy77xzrp0eo5Ryyc+dTw0EC7F4wYo5UpGzAwHZ7mcz1farTHr2Zce3J0yS3+lFtzEybktt/WfvaFbMyKqUx53bWbQ1Gpbxx97tnBfS+FDQdBoPOIH7G//LIwcnQhsEufzxWNh9naCG2Euc4FJ/O1RvdB1OUVhWOxHo+EpkYoqFmAIWNihy3W3nwSCuniNsM3+HQB1j8Npt272dpb/+FcrD0hVFLOEbvaT3+mbn1GjaWWG7h2zB5YY6xV1pEf6CexamAii/N/MzrU4+2mzc7FqS3XHXPeUatP3A7QvcBq6MsjDLnGansyxdCqKdRXlLrcreerf33AV/dToNQevRc79ed+vk71lGIK+SwYtPpdtsGzn0SbXABPH3bqDjUHHLZkSfeI+ZX6ERMXftI3TgAOH9WTnTtq2NhMzk4ZqSl7G2c+EK53YEVd3Hzor8ozXjEDICXEOhNTft6HYv3xFKpcWNppmttRFtutlzpkl/oNN0LIoGiaHjMAxEAAZ2bEGhkDA3TDIygaDCATKwyEDdcaf8bhxSOviqKbtRH1w074MT96dxJW68TR/u1n129/HhCLCS3qgdvjxH0RGipXuwsNSTdcNpqIIYtOsPEAPD9z3E8ync5/pl0z5minvPuoCX+b0r7rji2kZXhDrlWDm0UmEL6RFY3qO33xGmspN59XvvmBto2OXD1wSj/fPHXVYTXjx1lOCE2HbjQ7EX77s65jrvLH/0pTa/xjN7P22Ux9e3GDZ5a6hZrJ1QBKrKPViZqaUQnzEeGuyfz/Lq2su1+F3OGbbm4b6abFQVPBRH49+9UFtPuo3J/Ozh5ycfdu5+hL3EJLbfaG/8NOm4BgdAdImWHWiHbfxNx+HZ4qxAAQMzBoDApIBYcw2+xJw2r4Wrkx1xzf8Zs/NJ+uzav3aq45atQm23EopZ3Wzhx3kHf2nYuP/kt2eGHU/x2BDdcmVWVy5UZQAQYBtgJNNEnpg4QBwAdkQYM4QlYgUHyTG1xTBEFXOlAiXtei+jZcL6irdcA0qFoYGAY0NwD5pUwaUBXoucAlxWjVjRHtJaclHcCMgFoIQDG6gJoI5WJ3fb7WS6lW4P7lz9rf3zZe/nuFiVxXJwpN0BVUAoRF1DfCF8I0QFAEYh0qBOsMSk0oeBFSsfBI0erAGXzENUIDAigBkCMwm2AwmHEJcQoa3JKaVouIVKh1yCAyfQIzfBMaYgE1hF3ycxkbWQatfqAfxCpCFMHTkUdcifoM3TA9ATWPADyjqKyng9U3AwGwBBhHPSjlYeowUFFdBXEFUQZmLjBhqiF4O5TacpTNmRFzDTeAaSxQ1ZHQudNqoFDJ5FK8pPm5clpjDDkCmN1VdhvyTczr606l8mQaLMLt97VOuXL4jHsxrBk9PmoyjqpDCUKULfAULJBGEZhu+ZyEphuwI1AMJYZC0FQwBQrAs0AvOINaSzoIReZxpqkQdfB6UQPfqQUVLbXOTpWyKMxzulaLGqHEthNm8yYMJVCYocIDkqLdy4YHYcH2nDw3oVPRiq3YS4cm0gp8G6ru6jUA0k5UySCCngudboOaA4rNHAdSXoBUBFeD7iEWUA1oFkiDwgIGDyBQrc3DrGYUAR1QPdLVJboxkvrgauVMNhOHRY03Vso8l1VhAN0ceSVUlhjdI2e8+dnBl6zx6pMo1PvZko6CWkF3LmigchdTC9AMAJEJXQ2ghFAEAAgFAohzngUNUBEoCAAOYUIxAAEYbghDcbkdmgqDAAITSgXZxl4lqNVNuODCV03NcUuZqF7UBgoIqkUKQsCAT6GuaOoK2xpSzzvvvBX01QkJ34TmQBHwNOQqgAWha67GLAcq0G0gbZo8MiLT0HQwhflQeyCaY11RAeJLUulG6CImVdEjzTKERgqzjJSjaXU+sgpYzDpUJ6+T/ei/+35yYuP42uI6TT2z3qw793btmMOCceO5pTiZtEGKE8PUtM58KuMzmDoUKBy+hkUMPUAuo0cgS1fhUjmd7VJVXxN2XLEMKyCeYgrskJmqZ7Je7qqcZ6FFiq7q6aKIUiyb9aBQOvZgaGjTWCHUEKkoivb6uhpXSUd6Gkg2nX4YVMDkiJkSaekMFCgG6RoLWWRBi5RsoEUaXMbzkWIwDbpRNmEymIFmCCsrTJNZ0NTFjNW6foFM09A8lRFIh8E1QwCZSCtZ+RRLmYxVYFhCMwkGIVQR99mFVA17e07fj88Iayi9wSi10tv194cxdrT+s+0XqGptJu2pusXAfJ4Vhk5pIAWYTBiAIjTVBTKRppNuQDWYaUI1Y8USzOQq6yqmTCOlAkKQqipML5CacjX0BSlmpZgBpoUas1y120JUq6c56U5aEeluywqhGqQsUZFXV+iaeUijISJKu0BG7YMLBY5q2WEpx2uhGa26lYFi9ELJqWbEUmCqYuTIiGBGKtIcULSyYCZMx9A9PStUU4fqK6yLQQEKNmAwPQgDU2MWuAHFUFmkmRq0coh0xmRMCVgaIkxlAFWd39e5zpGchamNV8vrojztjuHaiPiEvQNoKW4pDK4FH1qWjAxBjXSwDGICVzWCoZICnvIji2mmovbqzFUpAKViloqQCpkuoDCoHB4QGprQrCxMVvSyRo2mpFSoWkTC1CM70vScq2ipOJX2MtxSBUFnqsIA4lAURoCirrg9p8RCkzAAhKLHgAVFaYeXg5Hhuh8GXkqtrWS6c24DV0AWAHAfJkecIQVcgdbnImtBRYkpphtYkekXYMn6cAKugrTHQ0sYQkdpVrFubBlGzbVXZy+6qafXTw8bnztqX5pyFAsy4PjE6FtLzVeYkiV4rBKDCUQ1kYFYg6VyxhUKmSCOlOpypCwBXgm8fCYbkygxkYWmxtABcMCtoCbjMrRFpdWjWjct0o6Ckl8ZbgXgDb4KA7LkLHTAR28WtSUBRYEuYCVObD8ELsXpUPMZLA2IPNeEJ1h9ZNkmsjxGqMEKYgaPzByLiTSGCCFDxOKsqgkgBDRAQawILQLCiIhYxkIMBDzMqoYflSytwJkgbmtqGvAAMxAGR3ta0RA1xBU8/Oqic64aNbcLIp5zxqHjDz6gbeJIBj3V6xdqsohBOoRPqsrAAUEyIT0YEPNQU4lAgK5CJWnbBACYUayAi9jkKhTNVxUmYMaAEpc0jQN1cYwohJLuNVGLyIcaQsmXAAYQkEarjuERkOQKXia+qTilY2mMQkVwi6fAUNEqOTJ8xbScALrZZyCAXxMBusUAIxIgBQoQCAgFFgIdMXgmZrHGWd9i1ORDZFOkIXbQ43a3tDR4CFLggAWu+Aos5kUxY6p12yOdd99ReOkN1NabO+2BP5w2u1GdQI7j5Q3LEgrMAL4JS5RdJVWEPgwIAAJPgwAEUGJA5zAjwITDFAAZACEgQAqYDsQcESESMAwIwIRLlK4I5JmrIe0yqAyCQIxS4AwqB2MgRQgSKhRAEYyUFeYYnAiahAEh8qETQWdxCBjQYkBzfU2xui3oEAJKLQeUsJ3ZLVEdfIBxpNUuBQXA6A2RM7o11AWkmHEMIUqRUciCnBLjBZ4G1+Chs4Amu9ibzdS6JgR6siWBsJHnYatLCjSiu4JcHQSQ6iPUMBcgUBpdDE0CCAAT7QpabOrNsho7ZGljAZXGVArIIVShAwzCRQAoJhS1x4Oad2t8H6TDzAkFJTeq1T2ILGIlNto1tYYrUGHZWJBFE8KU8KAkdQF/CIQoK3GedLAAZNntCBuR0iLL0SkTBkJJKbwIU+lFTS33fKZypZwhk5jVBr0OMj+HMAR3FbUH/igyEGkLDRoBphZh10EV3bZSSCHUoFkwY98LLZGuGCIXVpDJhYFi6311Sg2Hr0ZlqHWoaGEGoQ8tDUWBBvghpY1uoBbQPOIp1gvhw6sDS3MGZkEhDhGKSFFUBlIgANLCtGMQB+VJwI1hsFDXBVgR7vA4A4ZO1dFBtU4WFDtZO4NsOQrzbrpUQCuwdiRAMRnEkERuLxMhKgZZYLojEEVxjV5GVCd0T1EE4kwYCcWwmZ9XA5CyGIbOtCzUDAgVGxS25fMpmFnENrQaYpyhDGEgyDgcOvMNUqOsrntFRHWUR4zPdXsct+BpQRaCkOLohVOrZioMaSAGTHQXYVnQ01EMHTYo62adNIA440fQUgjRng5aPBeGVVJThQC2SaAwazMwhWeVSAjL12AGgAIGoSgxVMiyBQTOy5pmBiAOQ0DRAQQwdRQVmBDMqaQyhW6IWgSa5xVTNbWkMA4AscYB0qBAKLEQmraiFnKJoElISEhISEgY9CQW74SEhISEhIRBTyJoEhISEhISEgY9iaBJSEhISEhIGPQkgiYhISEhISFh0JMImoSEhISEhIRBTyJoEhISEhISEgY9iaBJSEhISEhIGPQkgiYhISEhISFh0JMImoSEhISEhIRBTyJoEhISEhISEgY9iaBJSEhISEhIGPQkgiYhISEhISFh0JMImoSEhISEhIRBTyJoEhISEhISEgY9iaBJSEhISEhIGPQkgiYhISEhISFh0JMImoSEhISEhIRBTyJoEhISEhISEgY9iaBJSEhISEhIGPQkgiYhISEhISFh0JMImoSEhISEhIRBTyJoEhISEhISEgY9iaBJSEhISEhIGPQkgiYhISEhISFh0JMImoSEhISEhIRBTyJoEhISEhISEgY9iaBJSEhISEhIGPQkgiYhISEhISFh0JMImoSEhISEhIRBTyJoEhISEhISEgY9iaBJSEhISEhIGPQkgiYhISEhISFh0JMImoSEhISEhIRBTyJoEhISEhISEgY9iaBJSEhISEhIGPQkgiYhISEhISFh0JMImoSEhISEhIRBTyJoEhISEhISEgY9iaBJSEhISEhIGPQkgiYhISEhIWE5E4ah/CCEiON4YBuzipAImoSEhISEhOWJEEJRFABhGCqKommaEGKgGzX0SQRNQkJCQkLCckMIwRhjjAEwDCMIAsdxpL5JWKEwIhroNiQkJCQkJAw1uru7Gxoa5GfOuaqqA9ueIU+iGRMSEhISEpYnURQByOfz1SOJheYHILnFCQkJCQkJyw3Oua7rvb29zzzzDOccgO/7cgcqYYWSCJqEhISEhITlhnTkePvttw8//PBLL73UcRzLsqpBTwkrDm2gG5CQkJCQkDB00DRNGma6u7unT58uhDjttNNSqdRAt2vok1hoElYhqtkg5HDjed6ANidh6OO6LoAgCKqfiYiIpI+F7JCyNyYMJYho4cKFiqIwxqZNm3bYYYdVKhUsfdbVJx5FkewJCcuFRNAkrEJomhbHsQyqBGAYBvqpnISE5QsRpdNp3/dN03RdN51Ox3FMRIwxXdcdx9E0DYCqqr29vQPd2ITliaZpb7zxhhBi8uTJe+655yOPPPKjH/3oww8/VFVVCCH/9TxP13Vd1we6sUOHRNAkrFqoqqooiqIoclgZ6OYkDGUYY3EcyxmLiC699NL77rtPURS5QM9kMgCCIKhUKrW1tYmdZsjAOY/j+L333stms8cff/y11157xBFHvP/++z/96U9nzpxZDXdKpVLyzIFt7VAi8aFJWLVgjMmUnXJYiaIoWSElrCCCIDBNE0ClUrnhhhumTp3KObcs6yc/+Ynv+5ZlRVEkTwCQyOshgzS5zZkzR9M00zQbGxsnT54M4MYbb9x9991vvvnmnXbaybIsx3EymUySCm45klhoElYtOOfSQiN/TNRMwopDihXO+WWXXXbWWWe99957Dz/88P7773/HHXdYlgVA1/WqpklW6kOJIAh6enpWX331XC4HYNSoUZdccsnVV1/d3t6+995733777bZtZzKZxI1v+ZIImoRViGqyTumeKQMpE1N/wopDCHH66adfdNFFr7zyyqRJk/bYY49LLrnkxBNPvOeee+QJUlJX/WkShgCc8wULFhDRFltswRhzXVcIUSgUTjjhhIceeiiVSh111FFTp071PC+VSiX5aZYjiaBJWIWQm00vvvjiDTfckPjQJKxohBBnn332n//855deemnTTTcFQERnnnnmSSeddNhhh0lN4/s+gEwmk0S7DBmI6L333mOMbb311pzzdDqtKIp8vvvss89LL72UzWavv/76o48+2nGcpGjlciQRNAmrELqux3F82WWXnX766R0dHaqqJgVWElYcZ5xxxu9///tHH310m222UVU1jmNN04jo3HPPnTx58rHHHiv3nqSNMLHQDBk0TWtrayOisWPHyt1tzrmmaYqi+L6/8cYbP/vssxMnTrz99tt32223WbNmDXR7hw6JoEkYgggh5CQh83/ItZFcCb3++usvvPACgF//+tfVg9W8IHK5jKW7UQkJ3x3Zl2SXC8NwypQp11577bPPPrv99ttHUSQjdWVUSxzH55577oknnnj88cfffffdqqrKWG58JVUSEt+awckbb7whNxNlr+BLsSyLMbbZZpv961//2n///V955ZV99933tddek/9LjkJftdVxzolICJGYc/4fUELCUEQI0f9H3/eJKI7j4cOHr7/++o899lgqlXr44YerJ0RRJD9wzuXJCQnfnZ6eHiKybVv+eMoppwB4/vnn5Y+yR32pTwohLrvsMl3XH3744f5dzvM8z/PkZ8dxVnzbE5Yz3d3da6yxRl1d3bx58770K855GIayJxSLxXPOOQdAfX39E088Qf0GnziOZc49KYKro5M854e7ksFGImgShiz95w850/zjH/8AMGfOHCIaNWpUPp+X54RhKBPuyeEjDENaOgklJPw/qVQqRCST5sVxfNppp2ma9tJLL8nf9tfKRCT7GC3tn+edd56iKI888og8s/901dvb2/+/JwwWFi1apOv6+uuvHwQB/fdAVH30UrP29fWdd955ANLp9LXXXlvVMfTfz10OTf2/IeFrSQRNwhBEvvNyyIjjWH6Q1to99thDnvPpp59qmnbppZf2H276i5gvracTEr4Fx3GkoDnrrLMAvP3220QUhmG1R8mdJvk5iiL5WSqh8847zzCMu+++W57Wv+PJGTFhcDF37lwAP/vZz+SPcjj6kkyxbVt+juP4zjvvTKfTAKZNmyafeLWrVOGcy46RjEvfQiJoEoYg8p2vLmXkWHDUUUcpiuI4jjTAcM4PP/xwuesqF0b9vyExzyR8d6o9berUqQBmzpxJS+0rkq92MCKS/VBqmksvvTSfz99+++20dDKTx+U5CYOLJ598EsDFF19MX2dQieO4ejAIAvl5xowZY8aMAXDQQQe5rktLzcZBEFR7jhCiKoUTvpbEKThhCCL9K+WGNABFUWbPnn3rrbeecMIJ6XRahjUpinLDDTcwxvbbbz95RLpzSpKQk4TvjqykMW3atAsvvPCtt95af/31Oec1NTVSjkjToOxR0t9TupwTURRF2WyWiE477bQTTzzxpJNOkj7CcRxns1k5gQ3spSUsA6+//rqmaRtuuCGWjkUS+TSlD7j09TYMgzFGRFtuueUTTzyx5ppr3nPPPT/+8Y8XLFig67qqqvIEeTJjTFGUJCrz2xhQOZWQsEKout1J2tvbt9tuO9nbpUW36mt52WWXAfjggw/kj0EQyIXRD97khMGN3Gl67bXXqkdc1/1SR+rftfqbD6snnHvuuYqiPPTQQ7L3yqW5XK8nDCL2339/wzA++eQTWur+UvXt/doNI/mgfd9vbW3db7/9AKy22mqvvvpq1ce8uvOY7Dd9O4mgSRiCyEmi6pH35ptvKopy3333ySNyO6kqetLp9KRJk8rlMi219id2/oTvxSmnnGKa5jPPPENLe5ecoqoWmv4nVzWN53lVB+Hqf5k+fXo2m73vvvt+wOYnLGc222wzAPPnz+/v5V117O0vaqtKpdpVent7Tz75ZACapr344otS0/T3vvqBr2VwkQiahKGJEKI6WOTz+XHjxvX/bXVcqFQqb7zxBoCHHnpIutrIsSNZCSV8E7KHyByvRDR16lRFUf79739TP8fPL4Xafkfk5Dd16tR8Pi99hKuzYP9vk5opcfNaGZCDhnxw0lOqo6NDrpF6enr6u8t8yzLpS6NNGIY333yz3EK58847qzGY9N/2vP5u5olRWZI4CiQMTYQQhmEA+OMf/+i67sMPPywPMsbkVrTMEZzNZtdee+111lln3333JSJZA9l1XdM0k73qhK9SLBbr6upc15VhKWedddZll1327LPP7rjjjliaRU26y1QLoH535H8577zzstnsoYcemslkdtppJ9mNNU0Lw9AwDFnMsq+vr6amZrleWcIyIp1g5AfGmG3bnPORI0fmcjk5hsjffksd3P5lWIQQuq4fcMABuq4ff/zxBx988KxZs84444x8Pg9AJpuW/aT/AJUMVl8wsHoqIWFFIJezMtmDrus/+clP6OuWQdVlTaVSATB58uT+v/0B25swOJCuV9V9hLPPPltV1RdffFH+trp6luvyZbDQ9F+FT58+XVXVRx99VP6qam6s/pXEQjPgVO1n/ceWV199FcDxxx9f7QBhGH7H5DFCCKmH5P967rnnGhoaVFU98MADu7q6qqcFQSDHLpk0K9mHqpJEOSUMQeQS2XGcE088MYqi++67D/8dbiDPqVZIAHDOOedccsklcscayYon4etIp9O2bSuKoijKOeecc/HFF7/88svbbrutlC9y3SxnGmkF/L7fLzukoiiVSmXatGnTpk3bf//9ZQ3LaikPGVEl7TTL/QIT/nc+++wzAOuttx4tLaiCpUaab4GW2ngymYz8Udf1HXbY4a233lp99dUff/zxPffcs7u7u2oClL1LURRd12WXSEpkIKnllDAkkUvkvr6+W2655dJLL5VxsHJZI9dSABhjuq7LkMhsNnvGGWcA+PnPf84Y831/GWajhCGPjLJWFGXKlCkXXnjh+++/v9FGG1UqFVVV5YaCVDOapi2boFFVVVXVKIpyuZzUNOeff/5RRx111113pVIpIjIMQ2qab9m/SPjhqS6WhBDvvfeeqqrrr7++lBoAZH/4dsEhhKjWj1MURY5Rvu+PGTPmjTfemDRp0ocffrjBBhvMnDlTnlDd55I/JuPVFwyQZSghYcXiOM7666+fTqepX4Wd/imq+p8swynvuusuAO+++y4lTnYJ34AQ4vzzzwfwxhtv0NJs1DI9Wv/secu2C1CNv6vmfozjeOrUqc3NzQ899FDVDZmSDMIrDV8aSVzXlRkivlTFqX8427dQjeuudgB5vKen58gjj0ylUoZh3HvvvdXdRs/zkv2m/iSCJmEIEkXRk08+qev6P//5T3mkv3mG+o0U/UNI4jhuaGhYa621ZAh3UjMl4atMnjwZwH/+8x9a2m0qlcpX880sc5Rcf0ec6sGzzjrLsqyHHnqIiFzXlWommclWBr70oIvFYmNjY01NTXd3txQlVWeX//37r7jiCgCGYdxyyy2LFy+WB5Nu0J9E0CQMTRhja6+9NhGVSiVaOi7ImaZa/o2+Mn+89dZbAO6///7E4zLhq5xxxhmWZT322GPUL99d1TBTrbYjWeY5rFpvub+P8FlnndXc3HznnXf+b1eQsJzpXzaSiDo6OgBsttlmtNSKJgeW7yg7+lem7L/6qhrk7rzzThn1dtlll8l1V5Jgoj+JoEkY3EibfzX8RB6cPn06gN7e3q9d734tcgQJgmC33XarbsX2N/8mK6FVDfnEq3PJWWedpSjKk08+Sf12BIIg+AFmFNmSKVOmVPPTfOlXkiQ/zQ/Pl1JxvvzyywBOPvnkL+1uL7O6rX6z/IZyufzcc8+NGDECwMEHH9zW1iZ/K+X1lyR1NUnxsv3pwUjiSZQwuLEsy/f9dDrNOZfBTaVS6YILLvjtb3+bzWZleSaZ5uFbnPKkOx5jzDCMv/zlL5ZlHX/88Y7jSF8/Xddl+gfOuczu+kNdXMKA4bqupmmdnZ1yQXzKKadcc801zzzzzK677oqlMSmKoshSOyu6MTIib/r06Wefffahhx762GOPVR1IZX4aANX8NEn00w+J7AnV0m/SQlNXV0f/Hda0zE671W+Ww1cul9tkk00effTRDTfc8M477zz00ENnz57teV4qlXIcRzoLc85lTBxbyrJe3CBkgAVVQsL/gDTMyEVMEASyQPGuu+6qqmqxWKR+mVvpu/n5yuX47373OwCe58VxnKx6V0H6u9yGYShdWOROE/XrSD+Y6a5/Otrp06drmpbkp1lJ+FJxrgsvvJAxdtddd3210MGy0b8ud/+e1tvbu9NOOzHG1lhjDVnd/Uv/q2qYWaXiGxJBkzC48X2//3v+4YcfArjpppvoe+5eh2FY3fOOosgwjA022ICWbmnRN9TlSRiqVMuXnn322QBmzJhB/+3tK8119INMGFEUyb8i3SamT59uGIbce5J7DVLEyDRrK7oxCV+LjHQ74IADFEWRCqMacCCf3TL0E6liq7n7giCQf0U+7nK5fMQRRyiKUigUqmq7fwfwfX+VUjOUCJqEwY4c0OM4lmP9qFGjampqiMjzvOqcRP+vzL/VRW0cxz09PUR0//33A3j22WepX9R3EATJ8ndVoCqCZUzTzJkzPc/rX/VaBlT/wOpWtkr280svvTSfz0sfYWkMSHrmQFHtBp7nrbnmmrqud3d30/IQNNXv/+r/ra6+ZBIBANdee23VZPilZdiqQyJoEgYxco+JlmqO22+/HUsThPTfbPoueeirQ4CkVCqtttpqo0ePrqYGocQveFXCdd1LLrlE07RXXnmlOifJWaR/svkfZgVcjdOu9uc4jqdMmZLkpxlw+ieY6ezsTKVSY8eO7W+6+19Ub/X/fsm3t38tTCK66667mpqaAEybNq2zs5OWFnL/6n8c8iSCJmHQI4eP3t5eVVW32Wab/lHZ1QjY7/gl1E+1yN2rP/zhD9WD/YOeEoY2cuH79NNP01eyFlG/GeUHM+n3d4moTqJJfpqB5Uvp8mTSh4MPPlhW+/pSzNGyfX/1c/UL5fjT/18ieuihhxobGwGcdNJJMqefVL3/y18fjCSCJmEQI19yIgrDUNYukMZe6le/7Tt+DxFFUVQNx5Xss88+jLH+efaSbHurAmeddZZpmo888gj1yzfT34Gmf9f6wbpEVa9Uuysl+WkGlP4WlDAMH3jgAQBXX311f8cXecIya9+vrX9ZNdRRv+3yd955Z4MNNgCwww47zJo1i5bKnVVK1iSCJmHQ8LVpFeQo39fXB+CUU05Zvn/RdV1VVQ899NBlK56csPJT1QeyIwkhJk+eXM03I2cLmYxxYNv5tch34cwzz8xkMl/KTyPllzxBWh8TJ5sVQX85e/XVV2uadscddwxUY7q7u2UarTXWWOO1116jpT1E9m3f96srwKG6D5XkoUkYNHw1rYJMMON53j777GMYxrnnngvA9/3l9RdTqdS0adNuu+22SqVSzfZRraCbMNghIllWvbe31zAMx3HOPvvsG2+88fHHH99ll10AyBqQjLFqOpCVClmh8MILL5w6deohhxzy6KOPys7JOdd1nYgYY47jWJZVKpWS/DTLHSKSCWak3+7s2bPjOJZZ7waE2traJ5544qijjmpvb99hhx2efvppxlgYhjKTlmmaMlENANd1B6qRK5aB1VMJCd+FL60nvrT0nDFjBgBpdV++9lW5Ltc0TVZRWKWMt6sC/e0uYRhOnz7dsqx77723ekR+WGk9bft3yGnTpgGQ22T947fDMPxe+QsSvjvVcSmKIsdxtthiCwALFy4cwCbJZ33aaacBsCzrb3/7W9WlXbbW930ZQjEkfQETQZMwCPiqoKl+9n1/2LBhY8aMCcPwS5FKywXO+cMPPwzgrbfeCoKgGsKdMDTo7e2VH8466ywsDdSXxnl5vBoRvRIKgjiOZTtluN+0adN0XZd7T9LxS7Y5DMP+MecJyxe5j1Mqlerr6/P5/IoYhb4j/QO8H3nkEWmMOeOMM2zblvKlVCrJDjNUx7FE0CQMAr5aoER+juP4T3/6E4DZs2fLI3IcX47ImWC99daT5szESDOUqBbikTFNL7zwgkxcVj3hS5nNBqyh34qcq6SmueSSSzKZjCwy/6UyQwkrCHmHFy9erKrqZpttNrBDRDUMinP+1ltvjRw5EsD//d//yWgJKbb6O5UPMRIfmoRBgFxqyC5b/RGAqqrHHnvsQQcdNGbMGM/zACx3R4FUKkVEd911F2PsD3/4w7fXhEoYXEgHrEsuuWTatGkzZszYbrvtDMNQFEV2szAMwzCUfipCiJWwJo4s2SN9lrPZLIDTTjvthBNOOOaYY5544glFUaQzjTxngNs6dJG9Zd68eZzzrbbaagBvNRExxnRdj6JIUZSNNtrolVdeWW+99W688caDDz549uzZlmXRUr+fIcmQvbCEIUnVKVgWOj7yyCOx1HsmlUrZtm0YRrVu3/+O1C5CiIkTJx588MGnn3664zgrp39owjLg+/7ll19++eWXP/bYYxtvvDGWTvxSKBiGYZpmtb8NbFO/FlVVhRCmaeq6Lluuquqll156xBFHHHjggU8//bSqqrZty+ktEeIrCPkU3n//fQBbbLHFAMoFWhqRJ8coxtjo0aPvvPPOffbZ5+mnn953332fffZZxpgs2Ts0x7GBMQwlJPxv+L4vQ7UvuOCC/jmmvjZN+PLCMIx99913pd16SPi+TJ8+PZVK3XXXXdQvfrv/llMURV9KprdS0T+nfjXTiWzwaaedVl9ff99999EKfikSiCgIglNPPRXAW2+9NdBt+QLpCyz3lfr6+mSarlwu99RTT9FK7Of+P7KMgkZQhYTfQ7yNOPkueQ6RzaNe8ioUc4qIYiJOMVFAUUR+EIUx8YACn0KPQo8CEkTecnvH/IoniGzybPJ8CkMKBXEiKpNbodgh8okioiAUYegT+VEURcQd8h1yYwqF75NP5FNMNoVc2LxCFJNLXoVKfcviPVX2YiKfiMKIIi8mNyCXRJIHYhmp+jbS0vFaCLHuuutqmiZPkGWb/vfUnF9FfrOcD2666SYAc+fOrf62uhs9JDekhxj9881EUTR9+vTBkm9m2Tj11FPz+fyDDz4of/yq58QqmHhtuVN1Ad57770ZY7NmzVppFzxXXXUVAMMwbrnlFuqXlXRAskSuIJbVQhMRVcjzqEREPpFDbkyy3qsgskl0U1QiTsQpDMl1SRAJCv1A8IgoEiIOAo+W33MXREHkxyIiiog4cUGh4L4g2yUvJM7LUegR+UJQzCniJE8MiUKimBNFPoVlCrt5F3Ein0hQh3B6KLSJwmV4xBFFRK4geeE+UUBEg7urDDByrVydeJ599lkAt956K/13CldargP0l7xBS6VSoVBYbbXVqinP4ziuOl32r4WZsLLhOA7nXAZ3VCqV6dOnZ7PZJ598Uj7cwT6Ofy2c84suukjX9aeeekq60vfPMCtvRalUGuBWDmaq40Bra+u4ceNqamra29sHulFfj6y8ff3112uapijK1KlTe3p6ZOHuajg3Df4XYRkFTTf1UVwhstuoV4iY+6KbeElO20JqBU5BLOfyMhGPiQQRl3YSTmEUhn5Ay20xZJMXi4hiTgEXlUCqGuLkEIWyPRWfPE4BUUxCUJGoL6LAJQqJIgpD3xYVh+wSuWHEySFyifPIoYBCop7v3Z44IIqJYhJElZg8IiGbkbBM9I89CYIgDMPa2trx48fLI/JVrCZCXY7vpBQrnudV7flPP/20oih33nlnGIbVySAMwyQN68pM/1JcRHTxxRdbllVNrbvy55v5vvTfJps6daqmaXKjob/+DoKgv+EzYRmoDjWff/65aZobb7zxynkz+0vY5557Tlay/OUvf2nb9pfqfw32cO5lFDTziaijSG6FU4l4SBHFFHlUdqJSTGWiElEp9LtJcOJEMXlEfWH8hZXCJQo4UeTSchs+bPKIIgo4uUScIqJAkB+Tx+VmE3dFb0Aln0oOlYuiVKaKT5FP1CfIljosiKmnQr5HEXFOHpHjt1HUTtRTou+dwqFIPkW9ZLfZ5HZ8sfdE5Cam3f8Jx3H6+vrCMJSh2vPmzeu/7pR2mhWxZVANg5Q1bDfddFMA1cmvWvE7YWVGjtSc83PPPVfTtCeeeIIGT76ZZUBel7QaSk3zwAMP0NK8BrJLJ3mVlhezZ89WFOWXv/zlSuuu1H/F9d57722zzTYAdt55ZxnO3d8NcVAbaZZ1y+mV5xZP3NSub140urF79NhSbngwbHi5YIRN61JuAiljyBhfXn0bOvPi+JnnyamQ8AOKloTS04HIDom4Q8stAZFPIREXlYA4+UQ9cRBTRLFPwhf/+Q9ddJW9wS5hdgI3x/o1E8rD1vGnX0J33UsfziK/UiLeHkdxiaiXKCLyyCGKyI1uvLG9Zs15q29ID/7tezfokMl2y9bt47eie++hcg+5MQVhiZKxYxnpP8fIYI1f//rXYRhKVdG/DuUK2sAWQsi/xTlfsmSJYRhnnXVW/wW9ECLZclqZkcWHL774YgD//ve/6b+3JgdFvpnvi3TvsG07juMLL7wwl8vdc889tHTGWjltCYMRzvnjjz8O4KKLLqKV0iep/0glP8+dO3fvvfcGMH78+LfffpuWKt3Bbmle5gCzJmsJz9hqc2jqccqLDFLz3Mi1GXM6a9t6W3rtumLQ/b5/1997Dv5NvNlu/pNPG77dpKsBKFQAU4dg4MstXl8BIBizjFiBw8MCi1XXxvMvYZ2dKvv+Krr+umju63GqK2q23WxbiT4z//DP+KjzWvc/Mrji+nz3knoVUR6BCTBAQQQ4iLQ4aLbDxorNqfz9bw8PRWfoLkJtHOc06CoEaUhqAC0jmqZJAwmAI444AsBVV12l67rMsaEoiqzIA4AxthzzQFQrnnDODcMA4Pv+8OHDjznmmEsvvbSzs1MeCYKAMZZOp5fX301Y7oRheOmll5599tkvvPDC9ttvD0BVVRok+Wa+L7KcmaIonudlMhlVVc8888zf/OY3xxxzzFNPPaUoihAiyU/zvyOD+RVFefPNNwFsuOGG8scBbtZXMAzDtm0ARCTHsbq6ur/85S+nn376nDlztt566/vvvz+Xy8kUAMuxFt4PzzLeereuz8k7UEqVcruiaxnUGOVUwc+NLo1p6huu99UpYUPKbLI0XVTaNWfJvGlX4P4nNN9LIQoFoAKMmaq1vC5DgwoOKBCEgqqofojb7pt92vnoncfLbUyQggL8Oq1YW1tsGWmPm69WtDQa5853rvtbx+nT6JWXLRKOgT41AFDgKMAsGql5dbV92WbVbf6+7an4fk6wWugA9UKAADIiDPqBcgBRVTWVSs2aNevWW2+96aab8vm84zjSwCsTKtBS481yHFDS6bR035GZG8IwTKfTtm1fddVVpmkee+yxnudZlmWa5sqZpyRB4rruNddcc8kll9x///3bbrutqqpSqg6WfDPfF9M05dSVSqXkFWma9sc//vFXv/rV/vvvLzVNpVJJ8tP8j1S17zvvvJNKpcaOHdv/4MoDEWWzWSnW5cqwpqamsbFx8uTJ119/ve/7P/vZzx544IEoioIgsKzlNi8PAMto2flo9ryGDSNreNfhv6D2VnKpLOJOssnxibhHkSCbFn5Ef71xwZoTnVR9nzK8a/cD6NNZJPw+PyRBUbCcDbvcF8TJj4lin555+tP1fxRpYyp1LcVtt6V//pXaPvbI7qPIpZA4FzPupbNPCoetRkpNa/3wBUf+huZ/Tpz3kU8+UZ/0vLHJ7aHeIonvvafunDXNr1mrWDeaXn6ogwQFRBWq0EpnihxE+L4fRdGaa64pB+uqXbcajCp3CpavA0T/7WS5o1StiXPzzTcDmDVrVl9fnzwyNHwvhiQXX3yxrusyAWMQBLKr9C9vtJLnm1kGhBDVC5RXJC/wd7/7XW1trdx7quYpSVhmpOvVmmuuaVnWJ598It3sBrpRX09/F8NyuVzNWvT3v/9dioHLL7/ctu2Vtv3fhWXNQ/PeW2FmHNW2BD/anyikWMY/E4UUEQmKqNcjX3SSS/PfXFw73qkd3dYyke6+26Y+n4hsijgF9EX4N3Gq9AXkURTx0lLf3h4ZXWQT2dRD1EdE3+Ki4HsUcoeoh2Lq7vb3+LVIj6eGsT3nXU+fLiLBbaI4JHKIHCJOPkVkR6X/zPSMDSk3goav0fHAbYKoRORTkaIS+UQxRUQkiPqIBKcopDgkEUYU+SQoJLKJgrCLaBEJ8ogcojDwqM+hrr6Tj/cbR0fZMfTYYwFxirlHEXFyqJcEkUtUISJeCXpJEHnEHem944cUUfmLuHGXisv2dAYv1UIktHSvt5oqg3N+3333AXj99deJiHM+4GNxbW3tsGHDqk7BK+He+apJ/+wavu9fdNFFjLGqFzD9dzHqVZCTTjopl8s9/vjjtPSGVH2EqV83HvD3a1AQhuGCBQuy2ewaa6zhed6gu2nS0eqpp57K5/MAjjnmmNbW1uoL0t81cFAInWU0zseG7mmMZw1RazgIPDX09aCoRkUdHqgCIG8BzIhTaJ404vSTdafcxFmwYLEVwowBHaECFShrUZgVSxDyggEBTVEMaGAxVNQBJgAKg4wwwD3EPP2NptHY1IQfGICGGL2lz959N7LEXKWncNxPMa4Zjp/xSSXARJCO2xVbj3yeUfLrjrWuPtZHJFpbe295kIV+3iNT6FAVaIhjQFQC5pYLAJRYUwMFkR9oxDiYrSPOIDb0BjceyRlZCDTRqxseCumgQdV1UlisApoi96g5ODgZMCtlGxpgghMsI+MGHgwoFnpDJwbTSYMJKAijOIXBbPpbJmQhkupGAABZx0C6yPz85z/fYYcdxo8fL88c2NTdYRg+88wz3d3dDz74IAAhRNWPJ2EAqVQqMrm7qqqVSuWKK6646KKLHn/88V133RVA1elKflg1ueqqq84888w99tjjueeeM00zCAJd1yuVimEYnHO5H1fdyU34FuI4VhSlr6/P8zxppBnoFn0/OOeWZXmet8suu7z77rurr776Lbfcsueee/b29srRLAiCdDotnRcHhbvVMgoaZpqBiN3AVznPIErFkRVHtb5T54mcE+Z51CMC0lBggKJ3DC/wGii+h/Y+lVlwIigwEaiL2vJeq1FuH65wAF7EAXAQ1yk2gIrQAw8pbqIv29nR0tulim90VqpAg6JqBMZjzJ4z3DCgRcO2najWFMBUpFOhxUpG3K1WBJwWhJ6mdALlNEq/3iJqaVCM/OjnP0NrG6WYr1A7grIKTYs0p2y6nTEcxKhAsZmuW1kIFsAPEAKRJmKkOSKblbpV3a0VqK2gaEII4fPIEzHXGMAA6FChMB+6Xsg6KmIdCgs0eLoeQInAg4wBDT6ECxXtFPuGFrqDoAMtX6r1aAA4jgMgk8nIX02fPj2O43/84x91dXVxHDPGlmPNpu+LHMg23njjLbfc8rDDDnMcJ/FFWBkgomw2yxgzTTOO42uuuebiiy+++eabd9ttN8aYfGoAomhVd8+fMmXK5MmTd95552effVbeK1nbUlbrNE1T07QBfL8GC5qmqara3d3NOV977bWxdOwaRIRhKIXsuHHj3nnnnW222ebdd9/90Y9+9MEHHwCwLCuKolQq5fv+oLi0ZRQ0mhenhQKOiLQIKWiZUMv2WjVOKkImdlTONCVSEaoCmt08ImtnYQe2YaWhKL6hBJoQbYteO/DIzzbY9cMdD2Iz5xQgUnkVDAJxDB4C0BWD6VC8j0+b/vnOB7/7o0N67nnim9pDIMUwQNBVM/R9I+aGE4ieYkmHq4py6CkhL3CtgedSlAFymSA9jCt5rxBQzl9rvUpdS1RosN/5lLmwIquF5fORsK/+x2fr7/npjoel73kEGgBoAAhgPA2q5772wVw89Ghl9T387Ead6+/U/eODcc8D0HwD0AUAhApxlREAqUwYMr3CBKBErrfIf/0lXPG3vpE7QdkU2R91DNvauuJmvPYKeI9hUBz6Bs8s29MZvMj5RsqaqpRxHKdSqZx//vmnnHJKoVAAoGmaEEKacAYETdM0TQuC4JFHHlFVderUqTIjzkC1J0FSlblRFF166aXnnXfenXfeefDBB0u/marJgYiwtPLoqobspa7rXnzxxWeeeeZOO+30xBNPaJomXVlt206lUqqqlkqlAXy/BhFEtGDBAsbYmmuuKaMdB5FfuRxFVVWVT18Wyjj22GM/+eSTn/70pw8++GAYhrJ2t2VZg2N8W8atqnff9OomlJtH+LscQr6gMlEfxTGViERMFIXkhuSSTRFRm/Ony6JsobN+HD38cJl4p+P5IiS3i865jJScx4bTHQ+S09tH5BE5UUBxSBHZgsgNyZnbPW4DB8123Rb0+cJvak5ERAEFoSgRp1kfft68HrVM6s0anU89THa7T75DRDFRicilgKiPyA4pDqlIRHEfhd0UlDuI20RO5HVTEBAXV/7JNod1t4ynf95hO57M/UucSPhUahM3/WXOhO0WDR87f+yocOSIIJ0rFursurX8fX9DCz+l406Iho/raRzrv/yMQzF5YUSRiKmLiCp99PIrdMaUl+taPirU9TQPC4cPp5ZRSxobF6427v2G0d7h/0fvvk3CXwWz1sgdaGnxJiIZEU1Eu+2225f66sA6rFTdLYUQkydPBrBgwYIBbE+CpOo9c8EFFwD497//HYbhN3WVQeETsHzpn4FGptS74IILMpnMI488Qkt9aJJUe9+dIAiCIDj++OMVRfnPf/4zGL3opAtgHMfVJEx9fX3XXnstAEVRrr32WnmaLHU5kA39biyjoIlmvlZsGLekpb6818EkInKIfHJIOsaSR9RH0juY0zNPLRm/Oelji7v/zF34catMy+uFwu7sefN5v6GRsmOjo35HUW8PRTYRcUGVmHwqElGpUnn0NpEZRcPWokN+JzPufj2cU0BuJPqIyKmEJ5zdnRpF2RF2/cZ0/pX08fvkdRNFjut3cb5IuhgHXzjn9kYRJxEQkU/EiRxOIZEguuxqUhuC3Ai69W8hRcSJ2x7xkCq90V/+2rvlbmW0dNePIL3JqxnePWwMDVurUjfuk2Gr0U77hvv+nOrHlhtW8154yiNOThhQFMub9PrbPWtv46Oe6tejlknFEeNahw/7JJuhSRv3qs2UW4uM1eeP2Yieftb5lusdovT3qiuXy/Ide/XVVxVFuemmm4gojuNSqSQ9GQc2UX3VF9j3/VQqtfHGG6+CE+RKSKVSueiiizRNe/bZZ6t9qTqRV7MjDo1Qpu9L1QW4/7vz29/+tqGhoVrWSrJq3p9lY6ONNgKwePFi+u/QucGCXEDKllfl7AMPPGAYhq7rU6ZMGUQFv5bVQvPGq+W6Ub2rNQT77ecWPyavi3hnL7VSXCG/m6jdpx6aP9e/7u892+5LaF4y9kfxY4/45NpErisrSEYVKi3Zecue7OhZ4zalD97wyC4TF0RUJoqEQ0S+E/zq/8J0fc/IMdHD93Z+S3vigIQMFCISEb3//muTNrPr1iJ9ZNQ08fNxG3y+00/ojzfRiy9QcR5RK0UuhX5EnGRNTZ/I5VQKeygkn3s+b6e4eNN11DSmd/T4rofuCCmgOKLQI+HTsy8sXH+nVtSGo8fa6+1O995NvNOjHhG3hX/5kz1hK2Iju9feivQWp3Zs8NyTERG5say0QG1z3991r8gcS9q40o/2Du+8kzo+I95K1EqdC+iue+NDji6nRlN6Df+Y3/Ly58v4dAYz1RFBetd3dXWtueaa+Xye+mWxdBxnYKNUvvTX77zzzlQq9eqrrw5UexIkQRBcfPHF2Wz24Ycf7h+586XnJRMLDUwTB5pq0Ep1UU5EJ5xwQqFQ+M9//iNzEMhZbbAnjf1h8Dwvm822tLT09PRQv+Lbg4JqPS/ZE6oZKCT/+te/6uvrdV0/5phjBkuBl2UUNP7M/3j1Y6k+I5Tat7f+0ZKaCXH9Wr2Na8xqaaLakX21TXNGjBbDNyVrYl9tU7z5eHrlFY9KpahCDglBMRHZRFFMV50fNa1batiYbvkb8d4+cmwi4tRHgUvCXfK5n90gqmtqHT6Cygu+padEFDoiiomEII+IoiK98lLXRju5w4dXGoaVCsP76lZzRq2zpDCit2k1u240/eH68r13k+hZEHQERFQOo9BtJb+dXHI4eWQTVa67hlLNcW4s3fOviFyKXUEh8XLXOZf2YAzVrebtvQk53WEc+USuS45HMYU05/VPDt+/tXESac1x7bjw2ScFEdmhT1GZBF1+9ZzVJ7U1jIiP/Q11ft4mbUU2xYLikGwiP1zYMeU4u2HMp42r0d3/WLanM3ipbhnIvCCu695///0APvzwQ3lC/5lpYBeRciCojl8tLS25XG4A25NARJdcckk2m5X5ZqoW8v59pn++mUFhQl++VHdy+5cKqeansSxLFoWgwTYxDxRhGM6dOxfA9ttvL0sH0CAUgrIzVF+T/sW333jjjfXWWw/ATjvt9NFHHw1gI78jy2qhef+dvmGju+pBtY0zh40gaxQVWpaMrIvrm6OaRtssiHwzr2+q5FN2k2mPNOnvN1LvfCJ3iVMmTlEQU8wp8u0FsxeOWo+M2s/225XikByiEnnUE0dEnNx//ZVyVndzffGi6yIi8r5xArOJpJqhkByiCpETO9TXSzfd/u7mu7ybGkt165I1hpQc1dd4zRmqy/BcU6cxio4/hWY+S2E3OeQL6QHEZcHwynXXBA0j+urG0L/upYjCmCgmmv1qqXZYbNR+sPZm9O4Xs2y1iDwRua7b0dHRMWZdX7VozFh6+EGZaycgcssl2nAtyo9/b8IWvGtBkaIw8Ihcn0o9FFIQkceD0KEFC9+c+KNSYXVadxMKfaKo4pd5HFLEKeCcxBDe4q7meqoOCnKwGNBGfT0yNQ4tVTbz5s0DcNVVV8lUOl/a7EhYccjxt1QqXXzxxYqiPPnkk7R0dF5BxUqHKr/73e+q+Wn6W7C+VJQ7qVlWJYqiBx98UNO0U045hYZQ5p7+ds3W1tYDDzwQwKRJk+bMmdO/gOVXOwn1k8gDYgRdxiingDQhUimeg5/Vs6NFWINy3iw3BrzJ1YeXsqPaMsO6zRYyR2fi0Zn2mo+mXjvn5Avw7sfDLSsEcUMVDFDVzPCRI7fZPMhqmZkL7DkfwweyUGAEAIJ48b+eJcMKAqrdYWNBwDentM9EUAUYgAhpB9kAaSWNQjY8eu8Nnv7rBq/fjz+c0bfnDgvGjO9SmsNoWMnMKKHa2NTcfdcjHT8/q/3aPyFVNt1v8Z0GF4Aa8/kdCilqJt+y2UYYN65/NTt5omVZuVyuaetNzEINF4hUgAAVBB7PX+wvjD3FGrbLdkpdvhakhyrs2OQowYbGoQlD15HNjZu4DivUtXf2xV294MiYKTAGBjCmgA2C4LllRVVVWVXHNM0oik455RQADz300EC368sQkaqqMiZLhlzV1tYeeuihp512mu/7uq5rmiZLokhlNtDtHYLIDO5RFDHGuru7b7rppunTpz/88MM//vGPsTT9/IAnKxpcXHnllWeccYbMT2MYhgxuj6JI07QoinRdl3Uuk5plVTRNk9tzzc3NckwY6BYtH6oBbkQ0bNiwq6+++qSTTpo1a9b666//1ltvVcMDDcOQxWcAKIpSVRXy7RuQKLllfNtNkYsqapzJY/vt1rj1IiWVhxZyKGnixPQ0FA3AkhLe/ASPvzznkWcmLl60+J5/t6nGsKmnu821aqomZkhFXFFTbN/tneeeGFb0nadexnHrxQo4dGjAvMXmS7NIzebGjcHmE/m31sfgeuyCAaqTjgrQCBRD8aA1+hZyWazTjIlr1xy0d43tYmGrv6Rt4XP/WvzYO+Pb3Rxif8kC75Kb7KKfvfBkUOHr/4Aa64rmIzY+XqRwkKakNl8PmRRjBECWtZMnMsZSqRS23oiee9mNuWJoOgANAp728efMKFrtAbvnro4nHjEXlWvUVIfimSPqGksVeKrN+fxM3FBXk1qwMKfGWlb0zl3UWFvLUmqsQAHAGAjqSlcqZHkiX4M4jovF4vXXX3/GGWeshMXeqmn0hBCKoiiKUigUrrzyyttuu+3oo4/+y1/+YhiGTOGQjP4riDiOU6kUgCiKbr311jPOOOPuu+/ec8895a+kjpHT8AA3dJAge/LUqVMdx9lll12eeeaZHXbYQS675QlBEGSz2VUz1v1b+Pzzz4lo4sSJ1TGhOqMPXmTVJ/nuRFE0bNiws846q6mpacqUKdtvv/2VV1553HHHyRyMcvTD0owbUtDILxmQ+7CMU4UwQ6LY9ImXAy1XDzWLOF8T5VCpZV4uCKxeZMsjRtBPdsDlp6RuuwgFc6Qg78WX8crrNamUAXCmKIYOINhjK6XQCBLmnU9wrazFnMHUEARPPzu6LDxPze2/r68o/rc2VgXP+ZTzkIeqwweCfMCbIyiKAVKcmEqq7mQKfvMwvvHGfPvtJ/zx6kmzXjSvmmxut5kPqvfj3oefxoszvvEPMA7EIWK2oFMnFhKx1UfYKhhjjDH5UPsvxL1RTeWQByEXhgEBqGCIrSUdC1QLzSMpJN5XTjXmnVoVOssvLmu2jSjMMrRwnRXtTKHBs3JFWF5PHxwfAAEEfFHdMh4M+QD+NxRF+dWvfhWG4WWXXSZTfq1UVJdi8jWWxpj6+vqLLrrovvvua2trk0eq0+rAtXTIUh1tr7jiitNOO+3hhx8+6KCD5K2uWmWGUr3JFY0cvmzbvuSSS04//fQdd9zxySef1HW9aqqRdZhXwtXFABJF0VtvvSWEWGuttap3ZrCrGfx3fV8iCsOwpaXl7LPPfvTRR8MwPP744y+++GLZK2QS4arwlRMi53ygktYsY+90qGhakZXRFDUOIMoiEGCGogZ54aYYNzUFiAEXSlCTrt1hU2/TkcgxtdjpPvkcwtj0AIAgiKGSbazZbSebc3XWbJr7ERAzwHB72h94GML3jQL22omDItC3FKvuArr1CBwmIq1kp70y+nodHb4R+Upk6awAlom4GXCVkMlnO7U8tBo67EBcO7l5790jpnkdRTz1/jf+ASGkWonCkDEmhIChBf1+Xx06v3iWmUxE4HypRGXQABZGedVHpSvl2sOj0OzrzdjlWoUUxnvrRCnnOoaTUYJ0X6/mBKkKH1FWahsboGtYmplPog7dMYWW1g587733nnrqqUceeQSALIy8UhFFkdxF7l+lAcCZZ57p+/4BBxwgk6BL011iJFjuyDLRQRBcdtllkydPfvLJJ3fffXfOefVWy43gIbMFsKKR2yVhGGaz2Uqlcskll5x//vk//elPn376add1dV3Xdb1YLFqWleyf9ieO45kzZ2qa1tDQIIf6IWPBkjkqOeeGYVRF7Z577vnmm2/mcrkpU6acfPLJfX19qVTKdV1VVauZReXyXiqbH77Zyzg1mhYDixCW48jVwPOKqkQEHxr5aQrzXBQi1AU87XomSFVZ6ld7Fg1Kc77gpRmIYgAM4LFvx8jBwOE/CVPZSBPaAy9AC4RH+GSu9ensvtjObL05JozPwDIQ8m8enRo5GpQUAkRP/adr4k8Wjtqx/bhzzMhVECvcU4kj5mDETBaoopsFdQQUwTSza/U16JC9SM9NcM22l1/6xj+g6oCWhu7XZhhjigK9u5QCOOcy+hFLxan8kIrIsHSdQQs5qQCgQolzqdri6u016/TdeFVvae4Se45fWkQ9C4Q9t2VhW651UbpjfqpjftZuQ3me8JdETkdu7dWRNSMQg3xdBAA2ZPUMAJimGYbhzjvvPGzYsD333LNUKq2Euza6rsv0mlLTVBc0qqo+9NBD77333r333hsEgW3bA1uiYaii63pvb+911113zjnnPPPMM7vssouiKHJUBSCdsqXRNJE13wWpyxVFCcMwl8sBOOecc4444ogDDzxw5syZQRAAqKurkzsRiaap4nleW1vbaqutpqqqvC1D4+ZI+SJzBMt3Std16S6zySabPP/88+PGjfvTn/601157LViwIJVKybfvi6X+gNqolnVutElwNdaNMJ22AZ+pIqVSBgpjYCR4ABXQVZZKEZgCNczVCY8arXwt0yG+sMBrKjMNmLGOSWvwTdYJ48h54DlwP5VieHpGLnBEilk/3z0wciBWE7JvrOQEQFAPAyzBx+bquD26t2jO+ijuWhhBE2o6Zio0RhRDwCQ0CFWzhVcHT0WNz9laEzuzDL6tfD7vm76eCy2KoQnVG1lHKgwF+tzFaUT9U/UDkNtPjDF8upDx0FIUIxBShzGo4YhGU29r7F2sf/ppLeIcFCtSTCgVqCF0X7V8zYgZhK6FQAxVIYbaFFchBQ2E9EzGEN5wkmUF//73v/f09MyYMYMxJofXlQ3P8+RD1zStutvoeR7nfJ999llttdV+/etfa5qWzWZd101SyC93PM+77bbbzjzzzKoXcHULH4BcU8qDgyNf+0Ajfdg1TZNlfWSUw7XXXnvIIYfsscceH330UbFYxFLDWHJLq8yfPz+Koq233towDNn3qqp6UCMtnTI4A0A16kXTNNd1N9hggxdeeGHHHXf8z3/+s8suu8ycOVPW3ZNityrsBsRYtYyCxlAyHKZPOlPSOnRLMCViLAQJBqixYQYKQgUxAyNNj1W73c16GspeQ74GOQsMBECQDkAg1s3GA3fNxmrvp3PCTz4LKVr0+L+joGKmLWwxiQFBECJQvm2dSyoDKKNoa46i1XMowPx8vvXOnIytW4GmxVoMLdKtSGFcEBRtfq49RYEqeI9lYMGifK+DnN6c/ua7oUDXgFijYTWCiTBwKp/OgWczxqqFML5oCBEA/4NPPbdiKFAAwYAIgIbmhiIWq6Lc/dCzaC+bsBABAibIrCDNkSJVC5kaEedcgaKSEjLYiAOpYeiLvxJiKCwCvgnG2G9/+9udd9557NixQRCsnHv2clFS3TbufxDAk08+6TjOpZdeCmAlNC8NAa655pqzzz77zjvv3HvvveX8IcfcqqwJw7Ba6DTxYfp/QkSWZQVBUPX0lL36+uuvP/TQQ7feeutZs2YBME1zKMXy/O989tlnADbeeGPTNOUdqzrJDgGkQU52hurLlU6nVVUdNWrUo48+esQRR8yePXvXXXedPXt2VdNUg54GJMBwWW+9LzKKEsQuC/wYeiS/SUWoiBgRiHOgAtjgxAJ4pfRfbrB00WfU9e67E3pdGLHh+0U1yyFAaENK7Ln1wjpRx7zwwceMtz8YOffNgBXYXod5I8dGgMl1L0e13jc79+m8zncDxF6suocc0RvWpnNG8aJT3I5PoAZCEREgAAVMJRVuMAbDAZOgtgi0Pnh/jeLYShgffAAgHApiBsTIwBBQdC0F11AjTwU8I27ZZNs59U0mr3GefhHvPt8HMMZU4i68bnhcuIovgk8XG/c92kRaJHRUNIOj10AESm+wTtaoK+Wiht5OPPC0GcblNDoVWL4KBvjwGXoNgYWfqz8+pKQN75uwpldyrYDVwjKgQFVgaWBIfYsz0eChKuSrE5I8fsghh3DOZai2rusrswm3KmX6f3AcR1pozjnnHOkxV73A/t6pA+g3N7iodgB59zzPu/LKK6dNm3bHHXccdNBBnPPqRCLHXwCMMcMw5PhbDdZI+BbkfTNN86ti5dprr/3Nb36z9957P/PMMwD6759W64DKH2VvH6pUN1+w1FcSQGtrK4CWlhbZ9+TBIfNe93dzrn6WuZ0456lU6ve///0FF1zQ1dW10UYbPfDAA/K4ruvVTvLD++Mvo6AhzXPhulroq04BZZ0FoWoTCyw3q3kpw9HTAeo5aiLG5rV1PPOytbBEtl/JZRq32hy1tTyILN1QokqICJ5ohq7k61t+vJ0WKfzF96MXXhWeiIRIb7tBSjPSANJKCiqMb1kZaNAsE0pay+W32bQ4YURXb7mulb125gV46iXFCVICEVAGfA1BymQ89nhoKnH3fXfknnlV9fgSj2kHHwnBUsyIgUgTPWZcskRryl+Yt6FrRCBoKGQn/HQvN/CbbPrktCvyny9A2eeaESCVR0pVDSya7V9784eFqDsTLaiN4xwPVKQBXSiRqhqnnF4WeUUX8y65BPf/04LXRICOShZOWgB+LS8Xb/gbvfNxXS5vThxrWVZ/nbsyz+7fF5kIWNpgpBtKHMezZs164oknzj//fLkWlG5JMmJoUFCpVDKZTBzH1113naIoBxxwQNXDRm4zy8yBGForuRWH7AO+73ueJ0tA/+lPf5o8efI999yz++67Y+ltlHNqYjlYQVx11VUnn3zyLrvs8vLLL5umKROmyULNnufpui6ljIyiH6pUC5JjqbtkFEXSQtPY2CjttVUNPZANXcHIFYJ81wqFwpFHHvnPf/4TwJFHHjl16lQ5qhuGEYZhGIbVOPaqyKsGUqwoli0fX+WDT/pqN1iy2hrB/kdSexc5NqcShV4cuTGFHvk+2WQvpueejH575uzh61N+RJc6LDp6MrW2fVH4OoiIbIcqVPQpJKKQHrq7MzfaT48rbrcXz9a3r70ltbcSJwqpTJwE/5baf7EfUExREEcUU2SX/vTn7o13dtBM2hhaY0v6zQl0/33UMY+o16FKmSq06BN66NFFu/1cNE2IoITDx4kb/uL4FMVCEI+IKI7pyuvIbKHUWLrvHk94JMgjciigD99fMGkrSq9B6XHFxk3onruJSh75RK5/33292+1RbBlXGbUmaVm3YQzd/6iIibyIorBIRLNbP93hJ23ZOso30JhJpSmT6d3/lKm0mNqJOvqevOuzX/6cRmzko6m8+Y7uYzdVL1AsZdme18pG/8TqMuRP5qdad911NU2r5mUfpJk35Yh/xRVXaJo2e/bs/gWfZVWHAW3dYKJab0h+uO666wDIyga0NCCOBm0/GUSEYXjGGWeYpvnSSy/JI9UqhvIRDMaijMuAjG2Ul1wulzfbbDNVVefOnUurRvF2zrl81zjnrutWL/nVV18tFAoAjjjiCDnEVYNAZUb1avwvreAbtazVtj9+Niw0eTklUDI0er2ewvB5LSOoaV3euL6XW6vPGOPWrmE3rV5qGukMG9GVy85vGDV3y53o+VeJeBcRRUS2TVTh1EOcyKOIiDo+/2yjLUkdUW4aF2ZHhqdOJuHK39oUBcTj8BuzyIuAIqKAyHY8QSGVO+hvdy5c48dhbc4uZMPhI0p1zT2Z5rhmPE+NE9oYKkx06ieVMmtQamzfqPFdZ5xI5a4OIhJEInYp9LkX33QLpcf4mRHBQ7d6xCmmyKcSEZFLd9zZvtbmJTTOndAk1DoyxgbZtciYSOpqrS0jo03Wp4um0ujVi81j6Okny0QUc/LCXhJtRPTBO+3rbtaZyrUV6ooN49uGrUv5Dchal9TVqWZ8yWikpknBGtvSjX8l6vni6v5bygyxN6eaUv2hhx6yLOv222+n/y6TNrimq87OTiKSxqd8Pj927Fj5+PpXzxnQBg4yqpLliiuuYIzdd999tFTffOlODmy90iFJtSy5LFR0xhlnAHj66aerJ8gyCPJBrAr3v1psjoi6u7sLhUJLS0u1itOqgPROo6VihZY+/ZkzZ44ZMwbAjjvuKMdAqWB+4OFuGY3eWqU24g0hWoz0GHSpGZ7KUiauKMQXM7OL5Upk9Aq3S+8tpz2tQWvhR+w/7oJTsNV6DpQsgIAjZTjgSsB8BR5DHANNTTV7bR/Umym/3GPm9AN34RxggMLTgAOo39xaRihCeEDGshhUP1fAIXuPuuUSffudFmdq2uwgb2brsimK+kpxW9gQhqyDglKarHLN6MKUs+svO6c9l8lEEQBiwgJMpgWxVuaqrZgGLA4FXqQBJtAK4KA9m6ceW/7pNsPnepVRKa/ZDdkSp9AXZbTGCVtoN1yPkeP6Qg2hhljjIDv2oLACWB1Aq49q/tMfwn1+QvVr1YbZRhb5/pzIKiIbQomoPjvD8I2px+HXhy5C3f9/gUPOjNnX1yc/6LrOOfd9/4gjjhgxYsQvf/lLADK4KY7jMAwHUfZ627YbGxuxNNDm1VdfnT9//u233y6dx+XeWRL4+t2RrglhGP7xj3889dRTH3nkkb322iuOY7YUAL7vfymfXsLyQm6Ycs5zuVylUrnwwgvPO++8Aw888MUXXyyVSkKIdDrtui5jTO49DXR7VxTVF1ZuKslNE9u2S6XSWmut1d/xf8hncayGuck9dCz1Dlx//fVffPHFzTff/IUXXthqq61ef/116U1crY3ww7CsQ0BULo2xevqC2tiu9WzUiDyMUHMjv9bQFBbHXNN5c72+5QbYbetgTNO4dSagps6HCZDBGSyVk2BIQ4ljQDcBDkBr2HC9LvPuehGXJ41r2XjdMKBUCqQrjLjClG/zhdVgVP2BuGIjDrR0dtsNsfU/xs9bzN7+eNGDT1Zem1mnNaRIcYXwC+VhZxzdscmkhgkbIFfvOU6LpSEAaQgRmWAoIxC6O3wUIx53xiDA1MCFyRWF6SUtVTh4/5G7/sg/9rDinY96L8xoiiv1ubE459c9v9gz1dCUnlOpZJug+QUnSoEZpomI/CiOdDKMNN9q/ZbxF0eLu9tffFVcduNwLduqW8in8pusUzhg1622/xEaRgmhDfOA1JDym+lPTU0NgCiKZEr1888/v6en54033gAQBIH0odE0TeruwaLn5NBm23Y2m42iaMSIETvssMPhhx++++67NzQ0VAc7znky+34XFEUpFot33nnn5MmTH3nkEVnZQCKrOGmaVi2qNVg6ySCif6rlan6anp6e3Xff/cUXX9xkk02kpgGQSqXCMBzCGQpkaQj5Wd6W+fPnA9hss82+1PEG0Xj1fZGXRkstVdUEelL1Dhs27Lnnnjv11FP//ve/b7fdds8888w222wj49h9368GgvW/kyukictAmYjaOoj3UmxTXHFpMYWtFRGSHxB3iSpEJXJ7yLOJuE0UE+/ySx5xJ3RFGBBRxXaJKCIehUScXCKKfLrkyp6m0WFjTft11xBVfE4UUEzkkS8rYH8jMYUkQsEpiuW3lYki+T/kfwx8CirklSmwKfbJ6yOq2GFRUBhSVOExCSJX/qVKwHuJE8WcetqodW4f+YKIKCS/SL4bEy2yox6KI/KpOyDyKa6QUyRedijsJeqS96djPvUuJPJLRGG5jzxXEKeAKIwWxF0x8ajTpoBTqYfCuUQ9gb2AeImCElFY9GyfaAjXaZYlG6u7MD09PZqmHX744bTUuE1LLZYyW+VAtXMZkIb3Uqkkf5RxEJMnTyaiKIrkJVcvPOHbsW372muvNQzjgQceqBbv/SYjdrKXtyKo1tbu/xqeeOKJmUzmjTfekFvDtm0Prpd0GfjqBsq1114L4N57761uwcjjQ7gf9h+4qtuR1G9kk73l/PPPl9rl/vvvl9tPVVb0zVlGQeNwIk4BcT+iiMdlssn2I0EUkBtTH5FPnERErkeCHCLiFBEFPCYKeexVAocEUYU6iMgn8qlCRJ1dC7b9aZwb6zYWaPGsMOwrE1EvxURd5JFD3zYLCKIgoiCiKOI8iokoJCqTFEI+RSXy+sh1KBAkvYwpFkSuT7EbxBWbqERkE5FLHtmCKuSTGwhBLqdyBxGFFJDrU5GETbagmDyiElErEXmCijER9Qi/wssU9RLv6Q1JkO9TzxLe5weCnIhCt5NsCsghoth3uesTiZjmU1ykkFwKiDwiiokqRDGFsReR//9f39ByCpZI5xjHcX72s58ZhhEEgTwihKh6DUt75kC2clmpukmecsopmqbJF7t6gQPZssHD73//+2w2e+utt1aPyI5RHVirO/rJLV0RyO4aRdFX1xUnnnhiKpV64YUX5I9D/v5LQVP154vj+He/+x2At956Sx6p/mrI34r+VC+2qm9kfPv1118PQFGUyy+/vOoQKReoK7Q9yyhovi9VD+cq0hd6CVEfEQVEvER/u9Idtcb82hF03Ek/TKsSBgrZreUL8MknnwC4/vrrB5fz7/dC07StttqKlq5lVx0nyu+OjIagpWLFcZzLL788nU7fc8891UCnxLK1UnHSSSfpui41jezM8klJ0Vl9nYfAe10VzVUBHQTBzjvvDODtt9+u2g5paYTjKktV+Nq2/c4778htykMOOaRqp5G2eSGEvFHyZHlXl4sQ/IEEzZeQUjcMQ+rrpdYuok7v/r90b7BhN1LOmM3pvRkD0qqEHxg5P40bNy6Xyw3tuequu+4C8Oqrr8ofq5k8BrRRKxHVcAk5+RWLxauuuiqXy91zzz1yBJQkxpiVCs75lClTALz44ov03wJdbj04jjM0JviqJqtq7p6enjXWWGPkyJGLFy/u/6tVs3NW47T7h3Patv3xxx9vsMEGAPbZZ5+Ojg75LssUNfIceXJVJv7vDIygkeHsYRh2j57YWTfGaRzbVqjrUzPUvK64+CrP7hqQViX8wHDO77//fkVRHnvssYFuy4qlUqmMGzdu5MiRcRxXKhVa5VdyX6JqtZL2aplv5o477qiasvobABIGnP7r6TPOOCOdTktNQ19JSFNNVzOo+VLOhTAMFy5caJrmNttsUxXcq3jn7L/31P9WLFmyZKuttgIwadKkDz/8kP7bGav/MNg/OdkyMzC5SqVftKIombRmpJB2XdNSadJ4vu2W7IA9y5mGAWlVwg9GtbrvT3/600mTJu2xxx5y0hrodq0ostnsI488snjx4n/+85/ZbHalrVE1UMgoCbmpdOWVV5500kn33nvvwQcfXI0WkSHBQyap/GBHxrYQUaVSufTSS0844YTtttvuxRdfxNJ8wbKyDxFlMpkhEMlcTUJNS2s02rYdBMHYsWOrwerVvjoErnfZoKU50KuyxnXd4cOHP/7447/85S8/+eSTHXbY4cknn5RDnywc1j8sbvmEyP3vmui78I3q9YrrncbN/dSEntU3Dm65TlAPcbL9rz83YSgRRdHpp58OoKuri/5btg895NXtuuuuAKrZb1eR5KrfheqW0xVXXAHgkUcekUu3L21EJmatlQRpd5FPR4YlTpkyRdf1GTNmSAMkEZVKJc55NUhqaFAdph599FEAl112GfXbkOqfaG6VQoZuVN3gqJ//r+d5QRDEcXzxxRdLuXPfffdVd5q+5FLzv/PDCZqvfcwl4hW7laiTRDdF5YC44LTKdYdVjyiKSqUSgFNOOYWI+vr6hvwoIAd3xtjxxx9PS53jEqoUi8XrrrtOVdVHHnmkerCaETiO42qhgyHfVQYLrutW1Tnn/KSTTspms2+88Yac3qqPaQjI0K/OX9J56N///jd9Xczdqkb1qqv9QSI1zRf+skR//vOfZdaiSy65pLe3l/rFe3uet1zWtAPjQ1PFI+ohTpVSRLyPyAuoRETl5bCXlrCSs//++0sDYXVqH9oWC5mZ5pxzzmGMLVmyhJKJuR+O41x11VUA7r333ur8902ab2gb8wYL/Z1jqj352GOP1TTt9ddfl2ab5eIVsTLwpawZQohddtlFURRZxUnSv1zRKks1W081hFt+qL7U//rXv/L5PIBTTz31q3fvf2/AAAsa8on8KKKQAhJlcojibpfCoeBHlvAtvPPOOwBuueUW6tfphzBVy6qsS7zpppvSkAhnXV5cfvnluVzujjvuqB75Wl/LqmX7h25fwn9TVSpS1vR/Rsccc0wmk3nttdeqR4ZMP6/aooQQEydOzOfzS5Ys+VIA1PKamAcX1bDNak/o/9D7R2hHUfTRRx+NHz8ewK677jp//nxarrXAkrIyCSsWWchDVVXpNCfzo9fU1MhccwCISFVVznnV825IIt83RVHuvvvuQw899Omnn95+++0HulE/NL7vW5YlP8uewDn/xz/+cfTRR8+cOXOdddaRDpWyJyRD06BDvuO33HLLcccd9+KLL2655Za+72uaNtgLfUglreu667rpdHrevHlrrbXWpEmTZsyYIUsaySIA8kw5oA10k1dqurq6TjrppLvuuutHP/rR9ddfv9566/Wvh1AdKgFEUfS9aoQN7n6WsJIjJy0hhCxfZ5qmYRh//vOfS6XS7Nmzqz04jmNN075v3x1chGFomiaAfffdd6utttpvv/0WLFggra+rDpZlyVWaLN7ped4111wzZcqUzTff/JVXXnnmmWdk2Rc5K+i6noQ1DS4URbEsK5vNCiF+/OMf33jjjYcddtgQKGwkY3LjOJYuIJ2dnZzztddeW9f1qpSpnolEi/+/aGxsnDp1qqqqt99++7777nvNNdfsvffe0sCjaZoMoJOLHzkIfPeY0ETQJKxAqvWQ0+m0aZqKosyZM+fUU0/deOONV1tttU8//TSfzwdBYBhGGIZxHMuYz6GH53lyoO/q6mppaZkyZcouu+xy7bXXStfCVQqpZqTSlYH6W2yxhaqq//znP1tbW3O5nPSsBJBKpWR98oTBgtxZaGpq2m233To6Ovr6+rCiixH+IEj7MWOsWumdc57JZL7JEjMENNyKZuLEiTfffPOECROmTZv2i1/84qqrrvr1r3+taZrceDJN07IsKXG+181MtpwSViBygJMGZ+lB8re//e3EE08cN26crKTteV4URfl83rbt2tpa13UHuskrBPlORlFkWVa5XF5nnXVeffXVxsbGRYsWDXTTflDCMFQURT76qtiVm1CyFkoqlZLz3xCYBVdNpIeTruvyycoJaQhM8NVa4lEU/fWvfz322GPvvvvugw46qOq9UT1zaFzvCqW6owTg4Ycf/uUvf2nb9tVXX33ssccahiHnBWkM+77jQCJoElYscnETBIGmaaqqSmcxud2QSqWqjhQAhBBDeMsJSydvz/MURTFNszqpr1JURyjOedVczzmXyTaxdP9RdptkdBpcVFcvAIZY95Yvr/RgPe644+65556bbrpp3333rTrDytOkmkm2Sr8dVVV1Xe/s7Kyrq1MU5ayzzrryyistyzr22GPlcheA4ziZTAbfsyMlgiZhBdLfvUsuwS3LkpZbOfDJmWzVWdP8f+39Z7hkVbkvfP9HmmOmimvVCh1pchAQUQRBUUCiCBIMIEYUzIoJtwkMqFsRtxhRARHJIIgiIgISJOccmo6rV644a8YRng/t8dlPOM/7cq4+LqTrd/WX1V3dPavuu8a8x5gj/PNbihc+3+2lwVqrlNr4xjc2VRtL2//by17yk8RfkjZGLYqiIAgIIb1er1QqvQQG2za+hY0r7Pr9/n777ffwww9Xq9V/rl3/7wUNBo+c/n/Z+HFxzimlG8dlCSEbd5c+9NBDP/e5z+27774AlFIb+zz//3+egzk0A/8bEUKKogDgOM4/FztEUSSl3Hg73zhmI4TY+LJ/99UQ/zOEkCzLNs6J3vg7RVG8VN/s/4eNN4aNlcrGPbgcx/lnNfPfu2L/WIQ5uDH8W9kY2TAMe71eEASlUimO43+ua/v3tbHbb4yRUnY6nZGRke23374oikWLFuF/5OrGV27M2H/3Au5/t40f1z9vDRu/6a7r5nn+wAMP/PKXv6zX6zvvvPP/Qgs5GKEZ+N/rn/2zjYXLP3/cOEizsXf+33vtL2H/fAz/z8Vfm23D938bgPnvtcvG3tvGT2YwdP/vZeOK5Y21+0ssvTem4sbRgv+++8D/x4sH/mf+X1e2b2wE/rnNx39fAD945DTwomYsrAbJQR2YBNQFDGDQ9xIL5cIxWnPKjbWECg36Qk8ty6E2HmZICIXSYAxaQXCVMy6IJSgAAxCAwzAAmYLDC2NyBgZuAAswYJN1LRWQJXAkiIEuILmCNSAOXuI13Iuctl0Wcfh+h6FkkRIU6FcSwAsW5Hr6gACYNcwCWiPP4XAYA/nSXP23uekDEuCFhbEgBswqpmNoBwKgGlbBCjgMIAaC4oWOTyqkDIxYZnopdX1YBVpYQcima8le5AYFzcAC6FsI8o+SwsIApoASYG4uoAABEIAiLbR1mLY2pC/sq90ySZVKa0xEFAUJiQAQQYXKAQAKEBhic6UItZxyZiwowX8/fH7j12JT9TAtcgIFMFipFCixFCmsNyhoFlQfaaBoxp0cKGXQ3PaYkjr1WGlBrscCcb/vOI4QzAIa0IAF3E2WiAMLqQuwf/zS1FqK/zE7JKGgACwYAQUolLaEkRc+iUzFRUGEQ8EAcIDBwGjQzaWd2eye4g+8GEgCAwCGqEwyChSuVuAAqhD/KDhA4FIDQ2CBF1jQBNQjBQihhjMLAg0AYA4AGA1tQSklxKXCUJvBuJTBWmKBQkMbUApCwOgmu4/kgIQCAAIq0M+IJwUtBvephZWB+5ybVIWcA2AgAoIv3FxkolXgSlCe5znjDqEgFoN5RC8Z5cKAAoxmYMU/ShcwwApQAmrJP8ZkDBj++cMLYMF9wa2FBRJVgHNG6Kbrlv0bGIzQDCyEDCDaOkTBUlgNk4EkMK42DpMaxsBSKAbDYSksxQvsMedAt0AgUg8G8PsWnETMeNxoUAsIWKoAMHBkG+t6rRll+OfDbwbAbLKKvwAMtLWEE0oBC1jAAC/0WdrAJjWLomEEcsACHMpaYjQjHHJhrsfojDIBS/OscISABgqAAoMnTi8NSkFbGGsIJZQT8o92IHPBAGZACoBaUGupBSHkBdYiqYYLQAHGghMwbBx63nxKmkFBM7AQsgIOU4QSA5YDGayDVMLLNv6xhSCwBQBwAgDkhRUWFiA5QNCjSjDuagDIGHLEOZgF9UACUMSqYFRJ7gHWghBYGAVlQRKTUUpL8DfJ2/3H9VjAqJ5LUlsEhPuGY7AweWFpJEYJwWF0YY1HxT8G8xZq5LooLCOZ0tyRGy+PE0ANCt+XiGkoFyQA4xufJv6T+T+HpTc+bbfE5EbJFzh7UANMAWlmHZM5XEM4gFCb0ZOYzeaNDryoUJ0R1rJJQJwSZyAgAKVoedAGriUhAYywBWwO6uCFTjWJoKhD8zwuEclhFEMvj33mlzRJmZpHIRAAgOMwrQ0ADVAoINYZYVaCucTKFz7k+z/TBhxHBeDYOMGZcAt0aVzeRAXTwP8ihQ7PHcCnVukMyoDLtcQsW7AurSAAd3gCk6AQjDFAO1kNCzNJeWDTqoJvrFg0VYoYQ2FANayFtbAElIBQwAXllsqCvdCRQmoBaxHSGKqNPEU6jpLYnFZcDQqagYWgJRFEEuYgLzrzIvDAcgZeBSOUwDBogVwhKPWBLsziF3iDcVQWc15yJO8BGyb4NmNVR5JWhG7uDnmLQ9m3BSyFsdjYUzIAhQEIISE40QpzERwPtU0z1l+CaiGLbDIKV/aMnJ7F8qHY2Zxamhel2CajzCGTLVjijroZEseSkCzceEhhDSGEgum0wQixhZ6aYrU63EFB81IgY4ChoEUutCDWg0ahkGQQHHkK31XCVXByq7h18MI3luwQVIlFlAdTa4KtF2UQgFGEbj63+c3m2drAi4lySW6LmrbymcknDjlxZnxfO3JAGrxKVV6lR/Zujez5+OLd7tr/CHLVFaVkejHmXui/LxUtwfC8wC33X/7xL83cdg9JVeemu/549Adxw51IEYBBG4BQh1kA/2MCnkMJsQYz3TV/vGXVzy7eVO+XJ6YELoiDTOHiG/72nlNxw73+oJ5ZaF1Xksg+/tZT177ri+hESnCibT1dsMDkPtEcDPBjTSLdvPi6q991Cv50/0Jdz8AmJpBKxEIYMCfP8Zf7Wh/5z6dfecKG0UPX7vnB/D9+xe9f6ybKJzyjiF94GRIBKAwu/vNt7/8KrrlXdgoJE20uK5yAQUEzsCB4hFALYyWWj+zy1IOOs3auRCHdwmiTNiWZHted4VakSkHmSYAhQ1QA2mRIMA1kQA70oIEpJLDZLHIowEABTaTg2Rw8y/w0oPutes6PUsCzfMNeqx+NG+V1rvcskbAmdwwKBB30ODokY4CckDGRebVFP/nlFdkckGxAnAFFAsSAwiyAKIFCBswAZuOGNikmARQFepgAsgLoIbJIoJAmQATXMZAFJLiXjBavevYRjOWWhgsdh83dWEoRmm3wVBj9HV5IEHaFhKBzQBOAzZAnGpgDUgAFNsAoAAWQQQPoAjF6AFqIbAJM5lgNnfQMkKMLwCYKmAJQIAM60Bs2/q02kAI9oJsC3QytDECOXKciB7rQYakXhnWij75jZWskQB9dIElzpFkH2Ur0YKFzoI0igwWUyWAKZEoBCkAO9AGDjgFyQKEPFP+XWRsDC0CJyO0jMCAw+rLfTH7ofdHF543k8ZiYdzrPNi/+cevN+3cfuroHMwMwqChPNzZsMYAOMuBZoLMxG+MUtockQYI4h7FoIqkD0Byj8T5P3gWf60q1BV41sMBj6KdAmmcogAQdAAWmAMSAQQEbw6xHDgP0gRRQahYZ0gJJBp1gvtVF8gwUFNC1KICO+sd2XumLaBru5jMWNfAiMhMqFymPfSfO2kGt+pET+MdOQcXXtsoKCBL5RNTnOSqsB/Q1pJwNbSMj8wQ5hkemWT4SzW8oLRsDxjTF01ON7UZA0MrymsvrSuciG9MK0zzab6fhm7/bW7xL3leiUg7Uc6j1/Y3Nfc6cUQBpp5JW5j1UaItDLgIBnI6ztLS4SLXI9JAM8wgIYbPE6cyWh6oIHNi+7FMVsEwYTxNEety1ECmYkEnEvSFoHmrW4rztknHNZll7GFLkBH3qgc91e35mSLoJd+4b+F8RC3gwJFGSCDCRGDg0QiFrDMakUIAJWIphB6DdLl23SO+AtIlAWeQZCl2uFQhLKWvVdE17sN4sx+IMzE/7DqQt0JLcgQgBoaRuySINXR9KoZ6sh+O6Iz7cDEUNDuIY3A9ta4MTlhxe0jxkouUXfpXXMmYDKJu5LkU3DaClW0JLswrrVTMfApp2mewBjsSYBYnRD1rGcURahNztOK5QeZA7hfhfWAg8sCllcHrCFJSOPDmBj/xqdPEove7r2P7V8O2YS3HeRdHnzgi/fSPOOySuV2UBqTloewZRFQwcMpYr/DqPsDrEMulSouAVHYigT2jM4qoHY3xBE5Mb2MAXPY2CptAOSczL/CAjWjKGIlOeCEBzZili9CJIyVGIjSs7tYOATyIYTzjndL0LHzbIIMNaH9g2VtY3XT8PuZtUuIL1QQxX7otmP63BCM3AAhhBXEbuO5SXal3ixuE4SotmUSUaAJq8aHKDYQJrfWRlFgVTz/Q+/Q05dJQTHobfXs4fuWX93m+tXn05dDF3/c0Pv+uT0Y23gxjuOVCqc80NIAfgvgd6i2BvvTM76PPytkccw4M1+RQpIw5NG7oGK1ZP/PKs9Ut2Yo3tezvu1/vaF2q3XNsnzc49N6967bGYW7nmovOfH91dPvMkQuOqGee3/5W84YDZyla69Or0ot8hiEYQeSpOf3nRhn2PxCMP9Y/8zFPbHl658k8ME8gftN/+chpuOV7buTe6rfvZ/yI33SscZWtW06JMHXCuBtXMQisYDBRNLDQHoy5FKe3h6ivZgUeKkT1nl+696tvfnlu/CgqIZJksL/L5+KxzezscPl95RbzFAaVfXFhP29olFXRg+rjken7s+zGypT++U/DRz9J8fqLuKKYJFPImfvqbrPGGTmMvHPa+3u9uWAKZW+tb1FKa/+o363fcoygviYffWP7NFSXMajNLdFHSNIsTlNy+Rl0xR7VxxYXxdm9wyRbYZtv8z98JEfXNXE/P1/v95b++lBx8VHPJtt1FY/QLZ5amnjZuwVhesYWfAwScDFr7BRYYp0apsX3Mro0qgr7/yPWv3XttowRWXpOEOO54eeqJq+95NJme8wF0sjkvwnlXjW399kS+LDr4KFx7JdfdyMcWEej0VOesrzUbiyrh4niHPXHSqUseWx1SCo6UkjjXhhPK0CAEUS+6/LMYWSHdbWe3erW+/kpazPC+4SAjP79ww9HvwQ9/Zj/93UjsLytvwee/Hz9zy3gOdOBBL8F8/Ue/UMt3R7B4pLa089cbE/Q5Z3a2E2pULXE0KH+xVDMYjNAMLIgMUoIiA7q9Wjcpt+bR7TZKnuUENpY2sjqFritPWgje7M5/4uvdK9f7Q7UNeb/6xV8M7bdddf0Um2vpNKllWX/NROhwUKO0BbEVzrDImcw2SOgyM+3165nO/BL6NUucneO+pCNwO9PZkR8KVq0JtVC0HPPW+gvO3+WG+6rXjgrG1sQJHDLWz2x9OVi31FtvTj27uPR3iGZo6DGiyafOVTOz/P1HppWKO1oa2jAx/4OflW5duVUexEtHKu0MR55OnniuUlLGtknaD8/9/dS9Dwzt+O3e2FIddxuypI3uA5WFDsRmjgIoFHNLmmaF1i4T6rq/rD71ezKKmSzCbr9x5m9xzwzOO31qtDI2IZPTTo9vvnN45ZrSkpFsppd84Vz555XuOf8R1xl+90f7mbMqZqpDNwSmxH95ffpEK/zDuZw59X6zd8Y52VXXVaKMhYF6/Nni/eciHqfHH47U2o9+v/fn39eTOK7yyox9/rRfi6lZ+bH3ghPeJ2XjrOXtZQRAsf7z/+n//pZgcg7DwZzTth84IzytUT7+MPjAhVd1Pvf1MZGZIm6JnJ79p+6Ts+VffCVtlN2+BXdSonluuPMiuvdsjrSGIpJL7Lp1e3EjfGjDksnZ/viyPkfDxTQs+9x7tzj5ZITDXQA15Kd8vXfh7aW5ljtatc9M9E8+M5hk6SffFfIietun7bP3uNYHuFGd+Vt/Vz/6RufOm1ApSyEl9ZSxDkCarbXf+3nlN+c2E+MPjVam5idO+W59rhse/U7ihxhi9TseVk+unizJRsWL8nj2t78tT99f/OawbAwjup9+6Az3mpuduN0K4kpQap10xhYPHYdPnJA2SnMAA3yiA81ePNtPDGr2gQUwD6cHPw+AqqhlnbmfnrPy1Qc8tfgVevTlreGds2UHJFu8xXzyB3yu6yqDax8Ir3t06CvvY7f/ZGnvVudbJ8/c93g7ijBaZtJjXJOiB8/kQJUyUNsuuk+hOc69emwkdUthULPMLyA497JVutxMsjb+etf0ZISvnMIn76azj9fX/nmX1x5jHuuKRwh2eN3y+/886ywN33VS6W9/y7d6Ba55cN3l97EPfIasfobMPa83XN95796z3788XbMhRgAeKmrcVuHce77Y8Ae+7364YfXss8A3vt6dvGd66pmwPYeDt1Nzk+LJtXWYhggBFElaUQsdhs0ez1JmGUDns5w4Lutn+oGnti7C8Qf+5k/cU2rdjA8fPfHIA637bq2hGd98SfncP5Y+fBi//3Ksu1ncdyV50xvjP92B+2/h4MWtjydjY+5tv/O68/n089GXP2QefLpy5yrYBA8/Of9fV9nlK8TTV4STN/CrznbLmLj0srF8Pa793coLrxw64R3+PX8NplbB3Fh7yyETP7oOf306ITxplLVkVVeg2ba/u653wV/Y244ka+/B9NPewxvqb/7R81/8KR58DkDv4WfyrbfDjZfZ1U+RuY749PFrVzdx3dMEciJwMgmXMf4Ct9se2PREokUmLeDXlnzi/c/97a7J3Y4MPvUf6s8/9y/+zWivPwxnfbmaUvgzKe56fNF5f/B23wb3X+hP3hVe9BO11Y69u58c7jTbF1+4bmou+N4P7PR0EU1UV90jPv7mmf7j/YefQV+5lvvKEeCuBW69c+6yq/PDzqw/3VTrn3OmH6wecvCG712CBx8lcTI74qTS5S/faeScL7hz1/GnzncP3ce57O+Vp5+ooInf3phc/mD/3cfr2cfQaZvH121x1Ktmf3kJ/npPAU10EQKgDGm20B/r/2kwQjOwABb1CVwSEcBReUkZ26u1WvWehkiljT1Jo16n12/RimI8jZ54cGRkjH3lJKQBVPr8O9+0vDnpf+bH0C6yvK+zki+tgxTEKWA5ZWV/+17Q81nH10ug/K5BYU2Bsqap6fluCajiLUcs2383gOKymxPV2rBqculdj9l+O+rOeszEY8OzSGrLHbUYLpR96O90O5+edLg7NDauC1hR+/Tb9a0PrrnjgS132RtTGlEavP3w1Vttu0UXQZfbt+7nvXV3KE2uvH1sg8az8/N33Ov2SDY7b6wRnJGoR3znxdOt2Wx5woXRcDjbeLiGlAURTqebnvPr6g5LcfAr8J1PLv7sx/Wwx7pTnat+V2w9HJ/yVhfLIiPyHRvVr1Z6d9zRvPKiZbu/SdWDVc2nyaWXVXbaw9trN/KBo3HqkWBbJGiJJ56qhoH/nrfk2+7SgawdsMxftbc/n+YOWfP4/bX9V+DkvbCswg3pUV477i21ex/DM8+zg/eJpey1WiPzkdpBTDz60LJXbxV85qDZarkxq4M6w5lv3+mmy1uPPWn33qYUBvHKVekf/lRsvau/++vkp976si+cADokE4Qe5oFxgKgcfNDgLyhrNBe+5obx5O2HbL3X1rjh7vbFF7nXXKLX0nbph0NvOnTJWZ9aN1yVI673x8d7XnfkXQfY3fboAe7+b6rctjd6EcoV573v2OFth8JH8w9Xjk4Aa9dH/3X1IjtazM5DchiCRBMmoPP8gYdfwTz8+H1QNOyjW7Hlzx08/+Cd0Ybn+sHuo7NiOqzi+EPVgW+MUS/X3fHXH5hf+zfVns9Rnnn87rF9txAnvTZzbc0WkAJfPwSPPYE1K0t4TaknQZGW8aJqxwb5PbAQHMAUYcRhVTw0Wj7xHe4HPoR6uYOGhCIWpVkOyL6AH6F//TNqjxWtflr2A1m4WwFiuxXrPVVXmR94xFgvynSRaTAYEDgsylRuSpEsWVdrO6W7i8shBXQ38p0tsCbGlkCSzZxxTumav3tPT3Qaec2ONcWGhsxRjQVLKhPPe2XSm3syoICZ6zz98MiTj64/6MBodXfp8Oic6pQUr3faS/bepWmzcNQxDX96jC7OkZbRgh7Xkffp79lfXT2qin5Aeg6txIrnvigNzRDP5dRjhFbcPrHBYJbmgiooSBLzNBn2fWZMzql97Stu/8PN+/zsV5jvN0dqZs+9qse/dfatrx8r1+gqJV6xG0GNtUVFIxuCWdGQ3DbufR4VLg55xRaXXFI9/cfafL+z/bbZbrvMv3//HfcZ94TB0yu5Tpw9twF4Y67oDstyP0Q1ZCbb6p4Z+qe7+wefEDTFRKs3MVpeSoO0M1XeZ1k9TtxmUq0MgRKeO+4tT7C7/4bdHg/ni5YjDY9suqEktp958tkQlfpr9/LPv8Sc9eNSM0NjdOWrtxefP2F4j9f7naBCAy5gKJg72G94oalSJohm8GIduDJdvkJ/YJHzgSOzYp49Me/d+fCqH1w4fORzSy/+GcYcc9/zXiz4ri+bA4Y6IC56npt7voUsweDkM+3tf8b0sz2vlntDTJvOUL2kCnBkjHqUpQ4TpFjz4H3btJvR0iET+0lsgyGJor/CGZq58f7RY0+IjKGNOupVFKRGASfImY6FlaJaMl5y/7P2r3fgyTvkdEcJOe2yYozXnlStPdYwpH5V0gJdaOmKF08rNihoBhZAJCKJXFTqiPxuC64dR7B9bGjFAlR2bVQaoQRFYVvgUdp43rSchqy0CGQGR6BbZouDcm5NBiosFYmGogowGSiHn/M1JWe54yIHXNcMl3Kagep2Q2gelRfDdTvs/N/6v76o+9rdvM+csEgEfLul5qFbp759QTBlkQYY34JOFDV/NEsUvHo+LattWhVz5WGimuuW8+EnliT1rHB67bKxPE5oGpeYTB100B2HwpmXz//6OvHO1zv7vpzBa6xYzh65e8NplyyaS0c0TWLNXDdP0yDTkIMv4EKKgUoQqiwR1EGuOy5tHLjPa1ds1brp9vDbF9Qn1tm//Hni4fvc5nvIW4/KTQwSFjCooEPgFrGkiePzjmMK1g732rt67TW463722TPkU89V1yejf3ws+lYl+PAeytdhuweipqDGSqxstQ6TSWCJMlg1H0k6TbIV0xv8rZbuNjkjqARL1kw9N+RRkuc2y3KPE0dVChVV4U7PeKbWrYl6U0WLQjO/dttmkkLijfuWbvt9/5ZLoi+fkyfJVrc/0L72Tv+sr+Gj71ZA0AckCqOEM8i3hZQJUkqAokBItLY5LRUoDRVA3sAOsLtuX92OFO85J7n9T95R+9sVjQwOr5TmgeESkKlSWoCWUwbn3At6196uDtpj9OgvomXTLUvu/FT3/V+ikitm+0RzwbtE1RmPex1ETafOnKgQyxf359aFLJ/PpoYEB0UIZ6rTaVQCLnydwUpAsCDObA+YMUPaL4Kg2YoC6vTBFnV9smEVgtG1/e4yRcEAgwYYsgxygQ4/+38Y5PfAgiCiW7cBpsvxaOzJRKOYY3IETZgKOAtJjizTTqkGRYM9D+zecdvw/OrSaC3zOCOV4IHVpJn3K416rrS2z405W6xeN7x3P6oEfXTGprtDago6AANTeWVeRx5nko60R5C1MUdhK/jtrWE4FF7w66YX1iP0wrXRX1vjcwxCmCKikT89MlRlqetxqI5+5fjsstc3zjkLpWGksCGWkOfRqXXKVU1UvQQ+70GOZTAuyjDdNffcLrddWjvz62t9ZxlqCgbX3TTSduZDMkSNQTHD8zHlKTl4ALDAKhotVtRsVRsRu71h1DHHsMW4/8GT7Uknm2Re//EvS75+6cpLbxl+71FyfByrbrPq6A6vVNaJ5lJfPrzquSja4uAdaNFgFlg2Umz75ujdR9Yijcuv6/74F/H5l4QnvjJZsnjDaG357c+OLd8e8GYJKhD1rA9Jk9esCBeJ8JJvZI0VVHEBTPBkPNZjfphpFY2SoVhJ3kuh1St38gKKS06bbCwfjn1hHD+E1AagBpgkGNlyWbD4c+qoz9gqTa76vvOxy1uX3l374HtjrtyAxzBVO0i3BSZTzHlmmHXx2R/ffcXvXnPjBd1ttjLcB0BjdJywMb7XZOeCepTkUjEaFk5g/nb3dsctg/JQ8LxcFui7rQh/vKEzHlYuOWcWohFBhEnzi1+loTTEKhS1TDLWF/4M78id9jgq73yfPrhOASbLPZJrR4ZGGSoAKJ8Mtwy4A0iWY7XEsiCgBUWpQEO1X7Ni3o23uupbhbe03gnnKhhOWopgkVtDCuSwPiIURuaVhTrN9f9hMCl4YAGEcGBRADHS+VGjKt3CnVHoqnqynvViKDAjhNZgCCpstz0q96xMv3lekU4TnrJfXtU67zKYdq870+PcjDaW9gj/2/1Rd1UJzbHrb+5+6TvMgU7aFoDIjND1KKmoLHaTnutkVdlCNj3C1xWz6X03W7QRzjqnn8t+cX2GFI4qauiXYy/qBxM9ludNTsYPe+Pcdff2Tv8B1GQSTnXJfPnMPz64+9vIJTeGRXvKzGO8NBfPVJC5ALpqPBPJMyvx4H3LEGP6+Ylzf3bvBRdxk1ZcwGZ+loRGQSfxQkdhICZw0IeLCdvuISZRZ+rzP8CeH4snnwSmrdcTW5fjKtx6FbEKjz8CD3XDM35fXvUgFk/XVz2qzzyPNpV4w8Esbt9z0iemT/i4uO3vFT3VC5vYZ6RYRocxBMeTO2/T6BXp+Venz9wLOd1IppxDPxbv/gE8us574xvVbavb3/4l1xMV3S74zOJzL7PLjpXfukLmuVEaQThlkEKEe75+8s4n1I8uG8tnYr+DYP7pq87vu1vjivOCiUfJBz7TO+CduOtPqLZKSLwVO7kv27K1tIpClzPuxHDVYFe9F4EYVVAIgp2Wj6YWX/pZ+YprqZluigjh/NCjd/fOuVjUHGy5hQPJXr6jzmeSa69PH7mr5XTRnkzf9oVbXnE4NjySort4aqZ0w58I2vDbc784p33uFdW0oLAdm/U5MQX3ehQGfOede31efOBUHq9cLWd8p82+ds7soqPEr2/q5M2o6GS+AimkjmFQA3r9OeNpTCnFZHXXnUbum6CnXUCnnzaVGR99nH3RrQe+a8OvL1Wu6fggGqVu4r2YhkVeRJcysPmYhh5l3LFky5hi9RxOPQ/fvy6dUHxUj1kjWrktSGfJYvdL78WJx5SO2C0/+cDit7dl51wVVKpOJll92lbJcrcMA+y6q9p+Oc6/ofTbv/fj3vqdatuduBd++7d2SVuuar3MYw6Egchllrdj7ipUDKf77Nm/+c708FPzsIz5WRLWqc1kQXW748DIDNhmXP3qxtbt7/X+fDoOe8OWRx9mLr6+c95FnhWOdHuMv2yn3cTrdlGC8l6KtBguGHQhlYdK4LztjeUHH15zwEcWyYpIzKhUzTqD5Hm7yXVOhKSCI00JNqdjcF+UMqpqANrpsmUjGYz29dhrXjZ52x3jLzs+T3uzSYdtvawT+FuedExRa4hjD5668Sb6i7/w0871K9K2e8wZHT3+YBxyBGR/l323a//n+cUhN9Ow1Mp7XasWuY4565QewtLO2+N9h+GK6/u7vx/ER5T1V/jpoW+Id17ub7mlfd/h8VXXZz+5TGrTr4SOiht7vQYnvarjmaG5Aokc65R7kHjTa0eOO3zqJ3/wfvh7KWXa6+2S5s1jDnL23yMdHh7ZdbG96c/RO2/qUCXndDtYVBleUjr2oDgQvrHITM4FgXmx9KM3V1N1EMAhXu3dB42uX52cdz37w1/bH6dOz/SFEMYoz8Fb98Oe2/URsP32LJ1w4tQf/jT02nfWpALxy6S2wyGvxw6vEYfumd93tTzkk8N+GVEU+Kq0KEjnu+7a9mgh4JQiFtDEyWqQbzkgunu/oYt/Zy6+cEma52G1qDSC1+2KPZbWHQesstIUoyTPmJJcU9iSG6jM6tFKAc8/aL/qgXfnl9wa//x3bqGZw2cdvuPrXjG258tgEmttxkIuhJOLF89p8Oy0005b6GsY2OxwcE4JKLoz69Krb42pjpjLjDvtTBdCCat5YbKREtn7Zc6rdpmhsnrQyx2E+W0Pp1b733q3Oma77OZH2Cv3mdp1Zxk4YrdFk6Gae+j5kV12H/7CcfHLV0xdelfj3cf742O4/8nZmx+Sb96fLVpGn5h8/p6/88MODpcux8tWOEbNPrWhlfVHrGHf+Ij/rjfp390/87Kt8JrdirwIly9qX/032Un8N7yms2Kb8NDXiIbbu/XOsvHagPjCu71PfhBbNto2c1ZOd+56xnvLfmT5MqRig7R055Gy7ycrJ818ZJeNeh86Yvw9786vvCNaMu4f+NrpR57kNz4iDznIbLOlGEwKXlAJ4Fm15udXRq5XP+HNCQ+d7RZ3dhotP/I0LWyJh8F+r629+3D61jcVLIxAa4fsJmCztet0u91b3vC++WH5Hydptx4hDXbZJlwy0m829WSLSi94877y1Pf0jzqMgVqHs9dtn4e098jzttVNq7L05Q+VvnJyF2XNkR6+67DPS39fmZZESMrlTx9JvnTc3OjyuuHkoZWT9z9VvPvQkj+eVETpTXuWhbT3PBsmRdOzwUfelpx5Wl5dahH6u+1Itxo362fYmk5NDsmD9q+975jgXYfME8fXIJQ5DLybDeZsLawCGC7gaXSEw/faTowMOeXy/PysiLKkLCv77+V9/G3OZ4+fdMoG3IIGr32d9pCvfJasXjU16uRfe//oaadqBOyV23Vcx3tsgvT68w0efuVd8sRjZv66Ktl+efC6V80+9uSqOx+ovffY3sgodzD8ulejrlY9+ux45GaBr99zYPWbJ/WXjRsI/tcHWo+vqx+2H1+2HJmQsHjomfmb7l3/zjeP1IdV6OKAXUwt7D78dEnpyMby4+8b+txJWL4Y1nGJqymUgLD/WCP4YkCsfREdxDCwuegrMN510UKxfGYSQ65lDoGEhSWGQENTaAEiQYAMEL2e45V0hDTtB27/xsvct303vvhn/MD9fRhtpw1BxUgUsi9NkBhQCxLOa809Wul1slIlBXNgvGwqlg3SJzQgEhliwDcoMsS0WREVUNoHsSFcII/g51AdqCHQsnKgELnxDOBpP8gg/B7geBAAybByOt96EcAdYBIIkZWyDP0eBAMReVh2CoUimvHDivFkYQoxu46GWxbBi2bH8M2UKpAIVepmILZXEiEk0QDLckRCFyQHhDRcUEgUoitQLqJU5DCxq4UlmOVlCS+cLfqlouy6sBlIBqgedIEwg1OC8AtQYSwyYos878FhjiJA3QpBmhoVMse6Q+iTRCpjOXXh5Ygt9DA44HXRQVYJpaKzOteS1qGdtA+rM/Sbnj8OF7mLVMAl4EqrjGkfIKBNUA4hTKyp9eCgK5g/GA9ccJEBpeDoGRW6nOQKNOuZnudwnmkI2acg8KQVzFAoZLLLwHhsYTxImglioUw/8lm15xqg2YWu55GX1+Kw5PYM9fKYc18ZzCmMBsZwCsBkWiitMoczKAvKQQSIKBR6vKjPdDFS7UK4wDxQQeGnPdgqJO1Q4wGOKqLuZFj3kBe5s8QxiJLcBI4LODEg0WKm9qKZuzLI8IGFIAFqjbEhFXpkmQYSC0pQSmAIIgHG4QI8BQAoQAaJopSXAz8MEhrMSBRuucfQAXwDDMOSntUlIQONlodQGaHpkOE5EId1DhrkljPekzUB5kqeAT0I30dm4FOoitGgGmASlmEtAeXhENDlCLkIc/AEuRd2/ZADmTWU0J4wJYFuorTv+Fsv0wCJbMePy9R3Yw4idN1vgTqgfhvrqmJpYUesbBkYSRmGRkCQYlDQLCweQdR4s8wNTA2UpLBJrmuyCVkFiAcOxECCYoTANRqUJ5AercNAUZTbhUuBmuBcwCCZk/BdEhIHphQBGTUhKAdSapUwodeWZQE4Fi0HxKDqMlg1nGbQTisY7gFDgA9Yms4QYz3KIUMnIppq5A3h5EAEzlxWKbSkjQqAvAPhaAepQY5COhIgAAQ8pgnVhAoOSnoMCWAHO1MvOJoUnqcJdTQnOVBwSC6dIAM4g6bIs7xWOMiBCgzg2CBLwR228TxUmaNjCQ+rPcA3lLWHWN1ap4Gc9nOgBAtqkCVGe6N+SrhL0IszG8pyKhkPMgVKISjyVDuSgkIXBPUGFMoALDwF6gjIOgBFULEUHQNP2voWPaAUx5wgNrCBY4EihyMBCqoLsBfLw8xBQTOwEJg1VlcJRwrtQuRwGEBQuH1OnRBEZQUnFBLgqgXLIUcUhaaKUeJhvmQ83i9FKWgfVKIQJkdR5h2g3NPVEiOW5hKQcDIISRMYxzHIeCkPoA0CRcANEMOUlAVhPClqLuFwABCL5RYtCr9r/LyMGm85OeA4gM7gS/iFBqU9l84AlYBLBVVoSRh84ikOTpTPoEFhDGKNkJWgAbgCWjuUOoCCJTaH4y90GDZ7oXELSqySgiPWyhSm5kbISpBuCniAhiPQhAA3Tm57jlsGWM/CIYbDLQvkAEeBWFPfq9B/nEWMDI4HDioAAs2RujwBAoMgAwRqXT1XZhDQhbVemWeoZagxQCPpzppGVYNybRqGWK/SA1xdAA4AbhEWFprBwJeArSBD4aJP4QG+7iA28IIe9y2DhTLMEJ1WtV/aWNGUFvoD37xpX4pcCXDt0A4DdxCkcDa2fhQFIKUDCnjoUxNIipy5GqCANVbonhQWDBlKGqkA84mfEADgGHZQpNphAszmDo3BZVJYjyAUEUxZUFNAMiAt4DBHsoggJ2gUjpUoLBRBDvjMOpagQOZAGgtL0iqNgBIgYyDwaQ4aIAOCtHAoV4wkWlXsi6WawaCgGVgYhBRFJgmgmAYB04yZ2MSc+gVYBkollwbIYTW4hKejjNdywECXNXONykJVVKbDklVpMuuWfBeNGDCqKKkCqU8Cjn4Oq7nUYL5KQCykyCBlbHukKGnraKN5AiK7wuNC+Rl7VmbbGAFjOhy1FPD4fJnWgZpJQQlyEVjAAE6CnHk6K4GgYFBFL3QDKAPtWgXtgBJYEF00kBNSoCOW1AGdQhW+VycZmEgkpS+emXSbrWnRGVWupMKqnAQkA+G2V885YEDpGooGhd/ToyVSpH3hOqWCwwA+sUxxaEWpdikD89FmICCe8ZBQlaEg0BSiYniH2ArlQQ+B1nAZHKxhyfJy3AMbJlUmhQIFVR2RVWK50ldbNSTSOFAhPJaRIoNXngFGdK4ymssyBxwkSChcpgWXidaumxM3BzhVbpiUBEBLOcAAQ8Ep9MakxbyDoYX+wDdzq2C2FgRJxqgSHB4cuCIFdZWKoTy4JIUpClUSSqWKO5mYCZxyCqcLh4NW44hSA5aB+TlHLhwL44GxPGEgjqtQVPuU9EEF4GuB3nypFJZSqd2CEQViIGwGKNjQusgYSBGDBQSOMR61xALGJo70MguHottxK25BYNIcotQRgOgFIKJIqOvDGj5flMphJBAu9Af7T4M5NAMLwOQFZQIE6KZwHUjEWUJdj6U9IQNkHByw0AxdmldhO0oKjsLmJeLETXhVqBQuLXpuVgJrWsNJUO7ClhFDEWQEPqA8a0CoMuCU5SgcKLT8uEb8HmBQhEpYnlM4RRO6vs63NZAUZriVo8S7XJc16zAe5JZbggLwgKIPxa0jOw5cRK7WceI4oddGdwiUKB8dihCZjDsQI12RlqE1ghywAFOQSQFRwHUArgDdhwwWOhSbB4NUZdwRDIYUADgMwAGFnFpHKGWwmoqtmwBHq5zXCg5OOxoBBzcoAE0RAcPtBJ63TkICI1EfIe0gqlhhjGsYo0VBObNQRDmpENSCkoz3aeILYhFRDOdIHBCgC4wUJhL9HkrjKayLKcTjhYAWoOhSU7YUGdqOgsOrc9DDa9mqRrzCm0KxGBmFI2Kn46OSmUxSkoE4hhBKZsEqSB24fZUGNAIdnstQklpr+GweamTQg920UoAX4HkKh0I4BQBAFDACUdQtwwFxCw+FgSi6IuYQfkrhytUwIeRwCiTK1rgG+MYatG9Qpj2glCKXcNIcuY0rUgMOIDMFgS61rtVO7kAC0JmNpSIgbp87Epsm31BtoqhrgUmOJR3YEkgK+An6pBm49RxIgTJU2ueFD0lQ9JNArAPderZHy7UUxgVtSdT+5QEZFDQDCyAGUti6JjAmFnoa8Thcd1phtEAOWB/WgYQy4LmB1EgF8h6CTo6WEcNu6oNX5rgdTgpwCyG7nbgc+rBAquEzANCI8ixkEhwFjADVHAztGMrvlLsV3sFMA0MJBMVKLxp14IOpvscDZac5RhVRtOCkQN6PZUiV4xa59lpNyEbayAWcjkE1f5q6S+PUVxo+ejyQQJTNBlLJwuYidDpUVeR6JGV0FYYEvEqvQx0NqWeVIXx0eKEDsZnIAKIKhwpY5CopKJgQBlZCZUj8bt+UPZpUux4HEGRxJnMFosFrsUJuUZLoxvBciMAQUAXMoT+mI2pHMw4HliAFPA1DjKGUp0hduAogLcscklIIbrvRRC0cgXJ6WVqquuvnERZZdUwmyHXaDdVw7gPtCYeHQCU1KJJWKeCgpVaEMoEdRQIIdNwsgOQZCtVXQUQjgTCQvfnCJwlrlNuAM9fzR0rtrIhT0ailRBvOlIrKRIINJm1tUhawOVAY6lgIapERFEgS640AimSJ0Zz6DHAUwDJLpLVIjA0yghioYFrABRIkY121uqyXALzAjOAjWqRaZRyceoGleW6mJR0HeBuZC7iQfQOXJkYRwV0LGPQpArNp8i0NwcUYzwAJFGoaZEgQHre6fhyg9gSwDbirem1uqipAxuYCOdxM8gAOk5qhS3hNARr/+v32XiyTkwc2K34fFEQxrDRzvlErLrv3uTd+OFpx5E0HnYAr/pLJPCMJCrQYEpqDsI7JetUgFQ2Hbu/a8Rm3Msn1cGGNpH0hkeiyJR2mZvM2XKYpYqOywiaB7DnQHCmn3SxvAlmBDoKk4vigdSA3ttZB5TOXPP/D85HMgWofVHPmgGGu16YUMQVCH3I1FxOeyb90WfmTv2m56DOgRhGrcRjPJd3Tz5771NkGMEWUyOo0KigWdU0ZpRC9YgtF66ZR3lDUMpCgksk6MNTA6HC+0GHYjCiHMeRQBrkUUlC3iFrXXjMvX9df9ub+9kfTr58Hp1uGyZJeJh1uq+W44sNTfqVbrU4wD2Etc/k6ZijBhGNge0HGRjPekZgmMAoZgAJ9SxSgLSiAAujUWjpocpEzQXhtcc6czINftUnSPOe89T85j/c64HBctwYXls44weKOpZb13AC87sEXCcnPuL712YtXcqwqwVhTUeCdBHm24awL5Ecvlm49iTVEuchYCr42KOCUZmFU1SOLqrNCZbYPJOAF0nSho/BSkxAYClBKNSMaCWCgHGQjCSxsnMeUuhZwNLq5TYlEAhrBt2TGR14yyDGao2QwFnuxcJci5AimRCAQIuHECQgNgtwgT3L0l8ZIcqyvQnJYAIJCIbFGA0UOGARmk+Xb/Ncv5RbIMIN4RhSjrYQhnlh2QPnyCdMlOyehG7vTvCJQhXbiwJuwMcqBkU6HF4ZkFkmSd6DVvz4igxHIgYWRQAXdbLxcwZ0r5z/9w53OfDf5y2v2u/i6uc/8QG1ZL+25j+yi5+hUumOwIjQ+dAKnp0kpwwhF5rIu7ZctNPpGMuqoOFk37gy1dJPxeplEkOVGTApo66clFFkQ+hF4GIwnfRCvT+NAMGgOD+t0vN00QcMBaAE482l1yMWoO9zqoVpCkSM1y1048NgpR8Er9wEfQB53Q5LpVjkz5d5cND4sbCFtuDgF0nxtNVumJBJw47c4NDA8yoD+tDEqLy0hVBfohKgvdBQ2EzyNwUNL0Rcw4KHKcNVNra/9cOvbf6B3qgRPr547/gdy6y1K7ziyIQNsaD++qL6TgYwNJCSjDoCMQtClhsICrI9KNulxbbM6ZEVlMNUUKk7mO+7QMDhTGrBgaaseCiAHTXvznZLfyCi4SBn1PCPn5kJhmMdzDkdbCoBipNODUyoRloAAwlWY8Zj+7vHjaZInySjztJf0kQRlD1G6fPXatUNjdY6q9fuiH8MfmcvyYW8l5lZkbl+aUpqXXO0KzKELAMGLZbOQlwwXMBYAgVY5cRwGnmdotlANDcnK3AJJCwFlKPnE9DooOQDUXHOkWo6lKyRIQS0FBKQQpB/3AzpmXETQKpUtKau879gAmYZBEZUUKymNrM/paM9RTtLsexUXEARADtpq1Uc3Sb6NIekjzctspD2HctU0xHS+jlSLfj9xywE6OqowF05gzBrWX144u4iw0LlrtSsyWNUlReCXgOxfX2AMRmgGFoJBCC7cwBZp+syz7vgQ2XuXdQCO3ll2+mPr+gIK1CwCGwKEJT7iDZdemix+bWn4VY8ctG982+UyajksSFpPz3/0291lx2H4mPEv/vbOVx7KH3qwfN/EypG9ojWPglnjq+zMn0+P7y/7bRWic/bPZ1ccBu91yZaHrjzxQ72pe3Myu1QVG0QXSpteqgBwN4GZfv6p2c98Z8PIG+aX7N/76Jdkex3DdO+ss+Ovf4911xJ08fPL+Ip3iqF3THzqq1j9KFrrpE0yp5j+89W93Q4ZC3ds7vf66P7LEaSzQPm8c1qHvbVXfnl156MWn30udEzCTg3TCx2GzQWTEsYQ/o/2Lp6djaamdthhB3f3vVN/BV6++/Aee5YufWwd7BwtMFraKQfCbu5vKC7+VWerQ7vV/Va99k38xivXUyDNFq9ZO//Z7/bl65Zse5L/2W/3tt53+pkHx26+w3/FSUtuvNfVmSqpqV9d0B9+XS2aLkWzQ9/7r/LL3tL1tm9tuee6D53orrsjRUaNdowG1QmQIk9htMBk9nD8oVPg7OuVD+t+5Mv95PkRzDQ+8U187oejOobTZedf2d7yrY+V9zenfm9N9PiyZDbMp0Gmg/Mu7Gx3ALZ+k7Pb27f60x9oZhkKnPun3kGfmSUHDDdOGv7G9esxOGxjEyMFGKGWMDgOFSBZ3r30D48e8l588aePbHnYTPVAnPC1WtaN0CZzk+yOO7DzO54LX01e/yGcd0WBbow+FCYBJaDRioP19Iwf9Nkedss3N0//xhp6O2KbIcftD7Jjv6CcN6z54KfXnnVGtO1rCUXp5ruLbY9det2tfprnDlo///Xcon03Vb6xj//SjaNau4+vXrJy8bFF5Z317/+Bzk3mQz2FaRWs879yJiO7wT2gfuJXs+m7SQ9CEpx97fSuJ/bYIYuXnyy/dNEGLMAQ9KCgGVgAtoR5E8PCiY17woHBLd/vL24sNRI/uGlqzMeuy1JQkJwAnjYoFC743dj3rqmfe7rtXrrLx9+99mM/xB2Pu8i8T/2UsaL612/g9u899Njt2z03W6qWYGYatidJhrU9CeWVdJDMIW+uven+9hnXNq74T9irh//0rdrVj5bOedCx3iOVLAQFR1by3RR5BUz19Zd+4Tfsoqkrh677VrOftX/2F7QKCM9r6kq5Qf98jf3Rb+X3ji/NXbDoda9I73miM0wRJ/LS87xvnle65kyneWv95E9PvOen9r57t92wpv/NH9ROPLTUvIV++b3333wdfn817VuSjCx0HDYXCSHKFNCQmfEAZ3w8fOeb2LnfQBtDKkDqmEKtC4sKqKtJiyF3gJQ6P77W3HjPyNffOTJ98bKvvGPq/d+Wdz0Ar6s//cNQsq3nf4fLPzn71P2liefq1GJJMNFbh1ECm3MUFF2wZhp6ySU3PPqz3+OPX90quaF20TeGrrgXP7qGw4Ene1ZbrQEIJiyIBirv/JHcZjHyy3Df9+izTefXdyJjPGGra/3ZUOG6W+zXfr34G+/boXdtZ9exxrUPxA5yh+PSO+cuuH7rcz6DdT/Hl4/a8NGzJ9c+jNb6ld//qXvCHo3iKvz4XY9c9vslVz230HF4ydGwsBpEaWsBxmlZk61XzrY9tcsjPx2583v4w+0467dNFPq5h+ff/oXkq0dsHf2Of+WYdV/8ceXMS13YphMvUeAxnA4Vp5xXRL1g6gLy/C/9gAcHfxlx6nWnJz/53d7rt+L298vfeeDIGZeG7bWsKNDARLIKW4Xg1DGgiBSb3lT5ttZNmE+nrrly7VMPLrn9u3L9+XblzJhxeEGkQv/UX84jku2LMXlu0XCLI74al7J0Yl3zV5eOfu6IUn5p/6fvXPnnmxdd9sC/PiCDR04DC4BkGJO+kjCy0oUu+35w28qnjvq8a9Zv8/YjsPWyJnQoPQ70mQpBnvzVz5aferL/ul0BF4cdXL3jeXXr3Rt2rzq//+uyv1wws912Iyh2+sQHO3eejjjpVsNCFIXSQyPlHrLC5s6Qj0pp6Z7bssk/Iksne/2RnbctDttnMuqN5+EuyRK0Ox0ggRjLoVz4Se48+nSw/U5dFshX7l779culU0Mv0bOkFw6V5xm//5Fkj+X+Ww6Yo+XKMQfLb/1mcacE5Sff/on7iQ+YXXakRYAj6iM3PVBcc5d+ryRtB/0ATtUc95bt3vx6hBWoAH3AW+hIbC44cx0YOMYAUBDp0KICqmQxQ6LGX2+Pb7xr6S9PQ7uwVY/kmHQwHqm1l/1l2dF758e9YQNE7cBdF+/3mun770xLs72HHhEf/5IMG9h5SHzwGNzxkM6poJonGpqAuxZglgbKoumsP/H4sWMO6lUrQFbarRTv/UqflLnmmstM2hIVgQYDKMsdw9Vd69nue1gju9tuF15zRloPiIrSMFg6mzCge/9T7mG7O0fsTVGu7XdYtscNxq1n7bx99vUj7zp6ft+XV1Dhb3z10D57yKvv6+85VlZpqS5RdPHWvXbZe08MNxY6Ci851BQgDJRZUhiAWQjtMW2PO5SFDexYar1m+4rDts0UrrqHHvMK/5jjppCNHXvI0pW9NTfcvfy4I+rjI5gzE8N08WPt2WvuXvLjj8ajDQIWfOUE8aOLi3tvxapnx+cKvO2IOQxX9t7H/cR7cPZPQAW4CDSF0TA80yAKVWPcTZRvi4hCr1k6+w/BO/ZXWy2FKbmffT/OP7+gPh6bx2//3jj3s81Kw4etf/ODunIEu+7eRPZNNA+Wgmb20L222m5XLF6xAAH51/+XAwNdqQGkUDK35YLBcuyz/bazVy9dc2F/phV/7bIQgjLGZrMANJ6ZXvT0vH7/t2aW7xWN7ITR3YPzz+N5a9k9s65XQmUohETTFcu21l4FCHPDeUaGSA0UVDtu4bTaCVLpONAbnmmec+74hX/tHvSR0UtudGWvE0b9eA1cpwzhpFlehj9bIBRDn3tT9tOrTO1Q/sWzy3/4m4zm8lK3Xe6WbRdDRf/+J/ju24AEw206J8eyQ/ddQwDN+CrrfPZ8S7af3XYpli4WV//KUZpu+6rqOw7JP/e9tPpq9/vnYrKnESiOXiVb6DhsLjxDLWykYisBDR5rV3E/cYH+yNpno7N/M3nGATh8O1T4KhgrUAOQzY0+9uDas87qb3fYErJ7ZZd34apLq8+tdqfnGuuS6i4vRy5T5tmX7x5pn/DQaF7xh3LDLUTfcF1waI66XYKsMVuUvnc1+f4lePPX0tvumpATUDLVJLUEVvAMKIwLBm315W+15/wmqh1MTv1PevOtEnOad71iivEqIjW/crq3eARug6Syv/XSbJcds/YzJdPvP3MvPnl6vOjA54f2Trc7Sl71x/ba59wDdh4+YJdnP/xdjH4gP+2SPsvn5WAOzSZmHZpAMwA5mEUGA5HPs8TffjsgSIngsvzUhslEktnpGX/nrZBINy93yBC23zF+ZhaZeRS5HjYVFPn6e73u8zj2czrctzP0hg3L3wh/ajqfEUOeXj6M2pLhpsjD4dk9XxFlnibQmrnM06kBAXFAWUAzs6nybdb0EBXrVq3Eq5ZwLaaU6mzbmBqW1mtmnYdUvgbHfrpfe22v/obWikMYn44603b/l9X333nqUz/E0Luj7/428ljLXYAF1IOCZmABcMvcAmHGVYFY0HlCMkJtopJw3D3udY/87tLhVhvGzDckSbgu+U405P36u42ZR0pr1qTdSdueyL94yvxYWO1Pw3cjaAQc1pTtDHI63E57JERhAAR945PFS5ulvl+0//jX6FUnsXXTLTtTO+U4c+BBNS3Lalo6w11uiaLWdZwCUVmkpEyO/bBc/ST7xofYI2vnvvif7RO/4KC/xTqbajoFnqHq5DVAdIEK4LaTksNQJJlG78IvRPaZxsNrsa4ZTq7tn35KBp2e/S3nz1fg25+b+ds93f3fl537qwTd0mCV07+KoorAuszPwfuM9qQAASPAqocnv/Izsd0rtzn6ExMY7xCxpaIEaBqgXOlG3rKvfjd6+i6uVvVWPtDrzDtnnQ7aWE1zq7uwBWBqE02KzDoOVSYyhUNd0jUOJY6DvlfEkP1zLorf8OZ2896wr/CJo+pv3Hukn0zJxCvSapLFNO76gKDGWjBKDvpsZ91d2Q8+Ha9aQ07+QXrIpyUwlwG5QVCS3awmZM6MFiBxVnLKHbeOjLOexC9+4m54ctupx+c23K96a6v/9d012DL++dnbXPN7/dWTnTue6mx/8ND5Zy10HDYXJlfQUqAa27kddeJ1kqeJknoIDE6U9ZBA91iRgsNHkBke5kKhssYv4/6LaPTQ2KoHs+k1zvpo6MijeZuyfg7SLSppDtOYjULAWstYySQVlvsbt96acKzIlm6qfBufKcCs75bRoS3CxnLehxlO3KH1Xo9Ujb8F7rssaD3RWPdoeeLJbm9tePTRERbTX509dvP17a9/bOkNq7o7HhZetAD5NihoBhaAH0MJ05IZtwrfv3j98Z+Xs3ORl4SgWNcaDmobT6Ee0kCBNPS9LRvzDzxMEPW8vrCxG887gTMU+E95Bo83M5hYAo+u7NO82cDEIlmuhemap/JSH6VuO3r+maEUyIYu/Hv5xLdUvvyx6offUbxqh5mp3vzKOcKriXGkLhTPKGLE4DAFDEQC2pEfOqR57RfSzxxRPLYhWTeDsZKbszGN6m4r8NgTaM20qogwre+5z+t27ZirtxuNH3ysYrqqnIKnhYoCz5abrTTR2Ga5PfHgkav/c/ztR0S/f7w0QSx9EW0Z/tLWA9XKcA2poZEylsC25m//0/q93iMq3P32ca1qWkW3onKQIiMFpzC28F7zMvXcUw3dAlSpSErzzyYQaDQWLduCPLgexOQopuLJtCYUiYzuBcjTdHJdObO6NfTUtGSF36PF43P+W44kZ3w4+/IJeO2ek09PC1UbAqPECb3QN4wDsCCEGqPDGNWiPHzUIcGl38y/9rZ1rQxrVDlc3HLSFincnRdlDzzq9JtTLPN9k/zp5kAKlDJ2+E7pykcacQvoN9Dn3Qg5akBgCbZbvP7Tx/Rv+Oqiz33I/Or+hY7DSw3JjQemATjQBBIUhTOkPepwzYA8F1GBVCF0F2+/Pe59WjlG1dUSxHhuIthxEXy6lcr8pppz4DdGhoYa2d/uDGwEX40igZmmEBlla9rzc0knZsQkzZmnH1s9Bs4smnM1gZ5sz1Uig86SiVmQbFPlW7/OuyOhv6yOtTOcFplnFkV9Fs2li3m1UaZCF/c+UEcEp2D9Zhk99OFbIAeWjucfPcb8/kuLPvVh8dPH//URGRQ0AwugZ5s9FAopROKPBkVvEk88XMm7uGXt7LMTw4fui6rXYjpjAEMjITjlbfyKO/HrGwSa7Jmnpo88FRfdmG0ztP1xb5/97sWjkxP++pnOhVfXYi0tt8vG7WTPfXStEzWx8snmOZdtmzoCat0uZXn7fZF+ulmsIj+6gK19em4X0kNTqhleCXTSq8KmyVQmi9KatXfsdiR+fKkTSy9OslXzpaVL2aJFMRHo5Yox9vo9ivufxu9vWq664vI/s/WTouyR+U7lI0ebX9+CC2+maOGpR9a+5RTzyz880llLtj8i+9NFqWhh1WP0yYdLu9TSxfks7y90HDYXZVBuOWBS1RFI/LyJX15iP/CV8TNOHT79U01Rqulq0A5hnRxC5mKkj1Y5CN9zmPnVje4Vd/fNOjx9b3LUx3t/umtmpxX0VTvqM69Ft1l+emLszD+G7X4436RbLs7LZM31Ny1NY3nv0xuu+iNP9WSpXS2p7L7bgC7S9fG3/muriZmENkXB4iybT2Jo5gEwxsAQRmeW7L/2grPyynwJc87zz/hbuRjJI6dZ8RwfqL9m5+5Tz+HyWxZ3ZpPLfu9umLCUKGEXH7h39NNrcOsTmszRxx5K9z2xdct1tWtueug1b8a1vxtXK4No7qFHb6dv3n2h4/CSY6iAtTCKWEoBTVCwRLMsjwuAcVeGtZwATA7vuP2j9z9SXH1FWbdwzW1zP7xk8cH7xHU34ymGCw1g+62X7vMqfdHfcPcjMZ9X115Z1PZlD68uPnjo4pGlw5+6shKpoScnR867vbG+XSQ5tl/aHZcb/vKX4awd3v1Y94JricamyrfAslnQ4WMOnD7rl/Sxh+V8u3/q2SQkLZbyHbYYes0u2a//jNvu1qKdXfWH/vARvfiZ8JZ77nr1Qf0bLrZYTVW0+tE7cNRO//qADAqagQVQcstVMA88lxxv3Wf7w/efOO1X84uPu/kzp1de98rqZ99rwJkteoCSBoVM33OY94l3NL96gSuOn9/p5KWH74sj95aqhm9+qPGynVbt+L7ZXU6oLGpkoRus6i1Jy+4tP1x3xlVp492r/+uq4eMO7o8OOavjpSccX+gkePmXei8/BaCNPV4xdse60tqmMzJkJjIpqhmEWxkuGY2RYO9zv7fy3ofbI8frxoe2WkXdr398klWfduzcFkPccOyxl/j88Wu/+ZuOfwS/6Sm8eteoXaihMbz3KPejx646/ZfUf8f8yz+81WH70+MP2GXFLpXvvDU65ScV76jZg/8jXjHkffztGhAwCx2HzQVLLAAIqqUUEFjfmr/zsf5Ml5z4Hezwnlp4SMz3fHTPN6EzJVgbvIsuhgofx+/vfPODT335J6byvmyfL+rD9xx91R4jieBnnUK2Xtbc4kTzuk81l7oOBMrVTtWvnPruRZc/Yby3qt/cMnr8W5raCwCc8ha1ZLRdf2dRf5/vl/R7D3j00ZUmN50l9d6iqskVLECItoSAVO47zb/tESc4boM8fHZybvH3Ppp6YWNGxT3twI8P2nf08x959ss/n972fd6FD6V77dholrhsNE8+vHLmh5snnanE22b3/5J87+trB74cR2y3wxeOefpjpzlLT143+rblS7dtn3zIAofhpYeBgDBYzggBtDJdZp/bqiGlw4CoG02MBOuqQWxIaf99dz7tFPcrFz5XOkx/9fLhr32se8pxClQm7nrQ0bWAcGa/8y7zmlfgTd9ZRd6An/5VXPGlaKelITz+nY/N+cxUjm2d+J3szdv7I3Wh3HX14aFPvWuLXz3UqhzZvfJG79g3zHrupsq3WUW3QohPH2s/dezsm7+5YcvjgsyNSuXxlRzwOz84me61W/+o/5wjB/V/cp3+0ftLJanesPhlpx83e9J3RodPXFc9vLFsK7zvyH99QAZHHwwsAGNgCnAG5Cm4gWM1CgvwFjNuXnhlmRBQKEm7oAEgE22cgjLV0b2EBSXIQMlMQ8ombB29GQRktli1equ3vOqvt+vtV/TR9SG50uDKxC1KSmu8UqmjaxXWVVmFuf0iDxzXgk4BDMUICAzvF0pJHgA8z8HynPb7pFHprqflALasCWFzGzBcTwq/K+io6cNaaJE6fYqoA7ehR5ACQZEjayEycGuQrvL6BEFmQNPEJZ4BMjvv+RYYnsfgtMB/DQVtwCygtA0ogVHotRG4HSE4ILLCoS4IaxHDGaMGnIIi7yGv9zIIr+86QV5MOEUZ5dT2JOHlSDdDwtATzz9Ctnuvc/tf2O4rYHTXITK1FFa7NkFSsqO8o0FJt0wBlCzImiYWBbEj/dY0SGqri3NwBzAomGYpg7tmBqPDLRe1zCLhcZX4OWASOF5GIXW3oLEhJdOPksDU+zVIB9zoqEdDFzDE2iliGii3gBoMywtb5MpxBRd9gsHJYZuWBYzNGQwKmhKHC/C8j+YMGuOAqxlYawaCI6xCA7ptnYJA2LmU1Ef7lLk5GIEVWA8M99p5CRVFLXfmwBtxlpsOwkVExaKXztTcCozMY1x/4/xxn5Pt9ZTDR38D+uOpIcItmBFWKzQ2Tb5RVTAuiDK61dNGOg0gjrGqjJ2LLGXSdYqsLxSHlsqA0z7KQQZoBU+nMG7qAZjwsPhfHpHBsu2BBUABRZAyENdlxnBNmTbo9Fq1pMZrOYS2MZfCSVXoOl0g9ZgCG4p1xbjlEEUOKHR91BB0M9QD3xrVWGn9ad8mCoUqszKUBSdzNpP+0nCqu1yKTkVooNInvQrPHB7MgOR5bYnj9sVUAEFRSF4DeAzlO204w7nnGKTlegE4bSVLnh5uMFCvT2kVlgbGpKCSaOZANqjXJEgCBFZUW2SUub2K7cMKZZlLMp924StYQQmnqLQV9znchQ7DZoPqImPawBGM5BEI4XF1OALG0aJxAl/mSCxoDSLvJaxUbcMpWZJoA3cImSGg6GCs5DKVuaHfAQFUDh3C8YtaFIzkI+Nd7o0WKEfIQhjAjYo8DHkChCwuFEA5UBA4S+umUH0DpxYw8BTEahQMDAClojBYPtYDhDKwVFXRB3wLcNGnaAOLWFloETWTsDZq8h6sO88xB7qdX8NMgoBbTscki4HhAkiMDhwLLjKG6ZQ33H/92TovbSkgCQALxh0gtcgdycZqUisAsTa86nhEmq7JXNZxvLFCwkhSqU9SVDKwBAiBDK6EF5RdADElhXKGeMdYEy4qw0TcrdRcAE3oKokpEXlt3OHwI4AGi1wfIDHDHNQSo3i2afKtxXktRYfxRFTHLEGHpq4v5YoMcKwrDNCXQcgLJG0uBDxrAQewPCM8SROXw+YoLUREBgXNwAKYomnJcSSgCBJKUyifcdmoBIj0fD+plAPfn0a+VMWOcUoFZISkgqbPRJaUEs9JAR+uAk9tnWGGCcn8SovY4fGIM08QpAVyBmuGA4kCGK1mFoDmKkVAQxTcajQECkpnZvRIbaxrYCQkuh5yHyWLIYLUYa6BAHNjDc+Dhs5VnuVuVZIMJFckJJMcizMOawua1o0PC0igxrNWt6RCaAVOSJpTahtFAU5M3MtqpVjCRyGtwsJ86zc7lJAAVAMUIB6gUclQUXY6qI26tXQ2ko2wqzPOJHHLBTBkFArakGWlwR3qt3OEDpNAAQHGAHBHAhQUM7rl1ivd3qiqwQLQHbARBSjBAZBei/OUY9wUSAsQBdehhjQs78JY5GXNCEEOaKsZBIt74I4MbMKF5YXRWYUxKy1JVYBqoJG22+6I9Br1foogL6GEoUgNSd7iqjbiYSonFZHEhS8TYxUtuUzZwjErnQSh2gI5UF7gSLy0eBawAIxh2oJ6Fhl4DilJril8UA1PW8ICzghKFmBBV9hyYccVQd/CI2s4hjgkMsSCOLRTBsArOdAXEIBjJOGIMJIhHaKuqHRT7sblwmYQEgRGE0Wsn5FlmqOfItw0+RZkzEqvMotKyfQ8lCR3C5rJIEUaFC4IOiG63C7tsSqTyIBKH80Ujid9QVzeQ2JE5oIAlX9xRAaPnAYWQtEFMYoLgHPLoCmUhctidH1dShlxI6iw4EpFXIaG5qRwIDaYfsCCsjYxQwfJotR73qVbNoG6SRTt8WJkbkNneHlFqdW82CKnuSPmQBfl6DsIrEFSrPHl8gIFQcSx8fZWBniC1Isy6ApcZFBS0kxTzZQPBhTIAMYsZ230a1AwoaYZQwfdccNggjkOIBk2UNQjALNYn3bqXslL4sQTLSSLldA8SIDQAH0gQIeaAJTngLPQgdg8tNCrwUVHQbjwSJskBJTAlFPPWKs8q5D5liIlcJyUIiOqknPEaVx124hDMB+GwwBOF4Ln8COAmHZNl5CzLAetwaoNDnOgy9BOR8N3JwUdzw0I6QviAMICOQoHfYJqhDxMgMwpqjAoJAgKZvlaQpb0wVwUFLaAcEAMAGXpvDGjLEffVS0z3aCjKXglRs/PQoAkZtbjBmZUy5RBAtpobphlmE0x4gCRRmBBCrDBTo6bVArwAjxP4VAIpwAAiEIjSVD2U1Cu8ryA7zEFlhhVoiZXjsVKmfhwxiNoZpjroZ8bn3coJbAl2ExFlIsURRVeAuFl0A5iglLfQMagBlCWevMaw9TrEwQpALPexZIcmyTfMpqZVHqMKxEBJLVBTlA3gO5ChJOgdSBGUouz9b63xMgmRQ3IgTmDUQo+VyAgcBYg3wYFzcDAwMDAwMC/vcEqp4GBgYGBgYF/e4OCZmBgYGBgYODf3qCgGRgYGBgYGPi3NyhoBgYGBgYGBv7tDQqagYGBgYGBgX97/wfZgXbWtXtgqAAAAABJRU5ErkJggg==;" vertex="1" parent="7">
                    <mxGeometry x="385" y="110" width="356" height="152.44" as="geometry"/>
                </mxCell>
                <mxCell id="9" value="Triangle&amp;nbsp; Angle Finder (JS)" style="rounded=0;whiteSpace=wrap;html=1;" vertex="1" parent="7">
                    <mxGeometry y="20" width="770" height="60" as="geometry"/>
                </mxCell>
                <mxCell id="10" value="Please enter the 3 sizes" style="text;html=1;strokeColor=none;fillColor=none;align=center;verticalAlign=middle;whiteSpace=wrap;rounded=0;" vertex="1" parent="7">
                    <mxGeometry x="10" y="100" width="220" height="30" as="geometry"/>
                </mxCell>
                <mxCell id="11" value="" style="endArrow=none;html=1;" edge="1" parent="7">
                    <mxGeometry width="50" height="50" relative="1" as="geometry">
                        <mxPoint x="30" y="200" as="sourcePoint"/>
                        <mxPoint x="130" y="200" as="targetPoint"/>
                    </mxGeometry>
                </mxCell>
                <mxCell id="12" value="Size A" style="text;html=1;strokeColor=none;fillColor=none;align=center;verticalAlign=middle;whiteSpace=wrap;rounded=0;" vertex="1" parent="7">
                    <mxGeometry x="40" y="171" width="60" height="30" as="geometry"/>
                </mxCell>
                <mxCell id="13" value="" style="endArrow=none;html=1;" edge="1" parent="7">
                    <mxGeometry width="50" height="50" relative="1" as="geometry">
                        <mxPoint x="30" y="239.5" as="sourcePoint"/>
                        <mxPoint x="130" y="239.5" as="targetPoint"/>
                    </mxGeometry>
                </mxCell>
                <mxCell id="14" value="Size B" style="text;html=1;strokeColor=none;fillColor=none;align=center;verticalAlign=middle;whiteSpace=wrap;rounded=0;" vertex="1" parent="7">
                    <mxGeometry x="40" y="210" width="60" height="30" as="geometry"/>
                </mxCell>
                <mxCell id="15" value="" style="endArrow=none;html=1;" edge="1" parent="7">
                    <mxGeometry width="50" height="50" relative="1" as="geometry">
                        <mxPoint x="30" y="281" as="sourcePoint"/>
                        <mxPoint x="120" y="281" as="targetPoint"/>
                    </mxGeometry>
                </mxCell>
                <mxCell id="16" value="Size C" style="text;html=1;strokeColor=none;fillColor=none;align=center;verticalAlign=middle;whiteSpace=wrap;rounded=0;" vertex="1" parent="7">
                    <mxGeometry x="40" y="250" width="60" height="30" as="geometry"/>
                </mxCell>
                <mxCell id="17" value="Your type of triangle is:&amp;nbsp;" style="text;html=1;strokeColor=none;fillColor=none;align=center;verticalAlign=middle;whiteSpace=wrap;rounded=0;" vertex="1" parent="7">
                    <mxGeometry x="30" y="360" width="180" height="30" as="geometry"/>
                </mxCell>
            </root>
        </mxGraphModel>
    </diagram>
</mxfile>